<svg xmlns="http://www.w3.org/2000/svg" width="184" height="42.229" viewBox="0 0 184 42.229"><g transform="translate(-185.516 -343.723)"><g transform="translate(236.188 354.203)"><g transform="translate(0)"><path d="M614.256,439.006c2.472,0,4.313.657,5.5,1.946a6.76,6.76,0,0,1,1.815,4.813A6.421,6.421,0,0,1,619.7,450.5c-1.236,1.236-3.182,1.841-5.786,1.841h-2.472v6.1h-4.918V439.006Zm-.105,8.915a2.212,2.212,0,1,0,.105-4.418h-2.814v4.418Z" transform="translate(-606.524 -438.585)" fill="#fff"/><path d="M740.458,488.943a7.88,7.88,0,0,1,0-10.887,8.4,8.4,0,0,1,11.414,0,7.812,7.812,0,0,1,0,10.887,8.475,8.475,0,0,1-11.414,0Zm8.047-3.077a3.314,3.314,0,0,0,.947-2.393,3.277,3.277,0,0,0-3.287-3.287,3.06,3.06,0,0,0-2.314.973,3.134,3.134,0,0,0-.947,2.314,3.314,3.314,0,0,0,.947,2.393,3.134,3.134,0,0,0,2.314.947A3.193,3.193,0,0,0,748.505,485.866Z" transform="translate(-722.181 -470.902)" fill="#fff"/><path d="M886.17,490.946V476.429h4.523v2.025a5.073,5.073,0,0,1,4.55-2.419,5.584,5.584,0,0,1,3.971,1.552,5.878,5.878,0,0,1,1.63,4.444v8.915H896.19v-7.679c0-1.893-.973-3-2.551-3a2.832,2.832,0,0,0-2.84,3.13v7.548Z" transform="translate(-852.01 -471.091)" fill="#fff"/><path d="M1032.3,455.924a8.979,8.979,0,0,1-4.629,1.183c-3.6,0-5.391-2-5.391-6v-5.049h-2.209v-3.84h2.262v-5.154h4.6v5.154h4.55v3.84h-4.55v4.5c0,1.552.6,2.314,1.841,2.314a4.93,4.93,0,0,0,2.288-.657Z" transform="translate(-969.555 -436.884)" fill="#fff"/><path d="M1127.741,488.943a7.88,7.88,0,0,1,0-10.887,8.4,8.4,0,0,1,11.414,0,7.812,7.812,0,0,1,0,10.887,8.476,8.476,0,0,1-11.414,0Zm8.047-3.077a3.314,3.314,0,0,0,.947-2.393,3.277,3.277,0,0,0-3.287-3.287,3.06,3.06,0,0,0-2.314.973,3.134,3.134,0,0,0-.947,2.314,3.314,3.314,0,0,0,.947,2.393,3.134,3.134,0,0,0,2.314.947A3.193,3.193,0,0,0,1135.788,485.866Z" transform="translate(-1062.155 -470.902)" fill="#fff"/><path d="M1269.785,496.967l-4.944-14.043h1.63l3.918,11.571,4.208-11.571,1.052.026,4.26,11.545,3.839-11.571h1.657l-4.918,14.043h-1.1l-4.26-11.808-4.234,11.808Z" transform="translate(-1184.424 -477.138)" fill="#fff"/><path d="M1457.85,488.12h-11.834a5.323,5.323,0,0,0,5.707,5.26,8.757,8.757,0,0,0,5.154-1.683l.736,1.21a10,10,0,0,1-5.917,1.946c-5.181,0-7.311-3.708-7.311-7.39a7.41,7.41,0,0,1,1.92-5.26,6.565,6.565,0,0,1,5.076-2.078,6.321,6.321,0,0,1,4.681,1.841,6.561,6.561,0,0,1,1.867,4.918C1457.929,487.068,1457.9,487.489,1457.85,488.12Zm-11.834-1.446H1456.3c-.026-3.13-2.051-5.1-4.918-5.1A5.276,5.276,0,0,0,1446.016,486.673Z" transform="translate(-1342.036 -474.681)" fill="#fff"/><path d="M1594.123,443.161a7.309,7.309,0,0,1,2,5.233,7.415,7.415,0,0,1-2,5.26,6.581,6.581,0,0,1-5,2.13,6.3,6.3,0,0,1-5.6-3.182v2.814h-1.578V435.561h1.578v8.626a6.35,6.35,0,0,1,5.628-3.156A6.564,6.564,0,0,1,1594.123,443.161Zm-1.157,9.441a6.071,6.071,0,0,0,1.552-4.208,5.985,5.985,0,0,0-1.525-4.181,5.1,5.1,0,0,0-3.945-1.709,5.264,5.264,0,0,0-4.024,1.709,5.921,5.921,0,0,0-1.552,4.129,6.183,6.183,0,0,0,1.552,4.234,5.264,5.264,0,0,0,4.024,1.709A5.02,5.02,0,0,0,1592.966,452.6Z" transform="translate(-1462.794 -435.561)" fill="#fff"/></g></g><g transform="translate(185.516 343.723)"><path d="M233.88,372.475v-.01s0-.007,0-.011a21.116,21.116,0,0,0-19.459-22.632l-.074,0-.037,0c-.037,0-.074,0-.111,0a21.112,21.112,0,0,0-22.429,19.448s0,.007,0,.011v.01a21.116,21.116,0,1,0,42.11,3.194ZM209.815,383.86l-.055-.014q-.289-.068-.574-.148l-.113-.034c-.171-.05-.342-.1-.511-.16l-.128-.045c-.164-.057-.328-.116-.49-.18l-.116-.047c-.165-.067-.33-.136-.493-.21l-.088-.041c-.171-.079-.341-.16-.509-.247l-.05-.027q-.267-.139-.53-.289l-.013-.007a13.328,13.328,0,0,1-5.475-6.065l-.015-.031c-.079-.176-.153-.354-.224-.533l-.031-.076c-.064-.165-.124-.331-.181-.5-.015-.042-.03-.084-.044-.127-.051-.153-.1-.307-.142-.461-.017-.058-.035-.116-.051-.175-.039-.142-.075-.284-.109-.427-.017-.072-.036-.143-.052-.215-.03-.134-.056-.269-.082-.4-.016-.081-.032-.161-.046-.242-.023-.133-.042-.267-.061-.4-.012-.082-.025-.164-.035-.247-.017-.143-.031-.285-.044-.428-.006-.073-.015-.146-.02-.219-.012-.17-.02-.339-.026-.509,0-.047-.005-.093-.006-.14a13.406,13.406,0,0,1,.2-2.684c.009-.049.019-.1.028-.144.031-.164.064-.328.1-.491.017-.075.037-.149.055-.223.033-.135.067-.271.1-.4.024-.085.05-.169.076-.254.037-.123.074-.246.115-.368.029-.085.059-.17.09-.254.043-.121.087-.242.134-.362.031-.079.063-.156.1-.234.052-.125.1-.251.16-.375.03-.067.062-.134.094-.2.062-.133.126-.266.193-.4.028-.054.056-.107.085-.16.074-.141.15-.282.23-.421.023-.041.048-.081.072-.121.087-.148.177-.3.27-.441l.059-.089c.1-.152.2-.3.307-.451l.048-.066c.11-.152.223-.3.341-.452l.044-.055c.119-.149.241-.3.367-.441l.047-.051c.126-.143.255-.285.388-.424l.048-.048c.279-.287.571-.566.881-.833s.644-.524.978-.762l.038-.028c.158-.111.318-.218.48-.321l.057-.037c.161-.1.324-.2.488-.294l.065-.038c.161-.092.324-.179.488-.263l.084-.044c.158-.08.318-.155.478-.229l.112-.052c.152-.068.3-.131.458-.192l.15-.061c.142-.055.285-.106.428-.156.065-.023.13-.046.195-.068.131-.043.263-.083.395-.122.08-.024.159-.048.239-.07.121-.033.242-.063.364-.093.092-.023.184-.046.276-.067.114-.025.229-.047.343-.07s.2-.04.3-.057.227-.035.34-.052.2-.03.3-.043c.123-.015.245-.026.368-.037.092-.009.184-.019.277-.025.149-.011.3-.017.446-.023.067,0,.133-.007.2-.009q.321-.008.642,0h.009a13.4,13.4,0,0,1,2.013.2c.057.01.113.023.169.033.156.03.312.06.467.1.08.018.159.039.239.059.131.032.262.065.392.1.088.024.174.052.261.078.122.037.243.073.364.114.085.028.169.059.253.089.122.044.245.087.366.134.075.029.149.061.224.091.13.053.259.107.387.165.061.027.121.056.181.085.14.065.28.132.418.2l.133.07c.151.079.3.161.451.246l.085.05c.161.094.321.191.479.293l.042.028q.253.164.5.34l.005,0a13.33,13.33,0,0,1,4.653,5.969l.007.018q.11.28.206.564l.02.057c.06.179.115.359.167.539.009.031.019.062.027.093.048.172.092.345.133.518.01.041.02.081.029.122.038.17.073.34.1.511.008.044.017.088.025.132.031.176.057.352.081.528.005.039.012.078.016.118.024.195.044.39.06.585,0,.021,0,.041.006.062a13.4,13.4,0,0,1-.305,4.035l-.01.042q-.069.3-.152.59c-.009.031-.019.062-.028.093-.052.179-.107.356-.166.533-.012.034-.024.068-.036.1-.06.173-.123.346-.19.517-.011.029-.023.057-.035.085q-.106.265-.223.526l-.024.051q-.126.276-.265.547l0,.009a13.33,13.33,0,0,1-7.6,6.528h0q-.293.1-.59.182l-.045.013c-.187.052-.375.1-.563.144l-.079.019c-.183.042-.367.079-.551.112l-.1.018c-.188.033-.377.061-.566.086l-.082.012q-.311.039-.623.063l-.026,0A13.4,13.4,0,0,1,209.815,383.86Z" transform="translate(-191.708 -349.766)" fill="#fff"/><path d="M392.875,372.874s0-.007,0-.011a21.116,21.116,0,0,0-19.459-22.632v.006a3.891,3.891,0,0,1-.589,7.757V358a13.325,13.325,0,0,1,12.279,14.284h0a3.9,3.9,0,0,0,7.768.589Z" transform="translate(-350.702 -350.175)" fill="#d8c7ff" opacity="0.48" style="mix-blend-mode:multiply;isolation:isolate"/><path d="M375.092,436.422l0-.008q-.1-.24-.206-.475l-.02-.044c-.069-.147-.141-.292-.215-.436l-.036-.07q-.11-.207-.228-.409l-.046-.08c-.081-.136-.165-.27-.252-.4l-.045-.07q-.143-.216-.3-.425l-.022-.03a11.4,11.4,0,0,0-2.436-2.434l-.043-.031c-.135-.1-.271-.194-.411-.286l-.085-.055c-.127-.082-.255-.163-.386-.241l-.1-.057c-.128-.074-.257-.147-.388-.216l-.1-.049c-.135-.07-.27-.137-.408-.2l-.075-.034q-.218-.1-.441-.191l-.047-.019q-.237-.1-.478-.18l-.015-.005a11.318,11.318,0,0,0-3.655-.63V440.6h11.26A11.3,11.3,0,0,0,375.092,436.422Z" transform="translate(-343.534 -419.624)" fill="#d8c7ff"/></g></g></svg>