<svg xmlns="http://www.w3.org/2000/svg" xmlns:xlink="http://www.w3.org/1999/xlink" width="148.319" height="34.04" viewBox="0 0 148.319 34.04"><defs><linearGradient id="a" x1="-15.777" y1="6.241" x2="-14.984" y2="5.498" gradientUnits="objectBoundingBox"><stop offset="0.073" stop-color="#0a478b"/><stop offset="0.506" stop-color="#16c" stop-opacity="0.749"/><stop offset="0.995" stop-color="#fff" stop-opacity="0"/></linearGradient></defs><path d="M225.7,368.071v-.008s0-.006,0-.009a17.021,17.021,0,0,0-15.686-18.243l-.059,0-.03,0c-.03,0-.059,0-.089,0a17.018,17.018,0,0,0-18.08,15.677v.017a17.021,17.021,0,1,0,33.944,2.575Zm-19.4,9.177-.045-.011c-.155-.037-.31-.076-.463-.119l-.091-.027c-.138-.04-.276-.083-.412-.129l-.1-.036c-.132-.046-.264-.094-.395-.145l-.093-.038c-.133-.054-.266-.11-.4-.169l-.071-.033c-.138-.063-.275-.129-.41-.2l-.041-.021q-.216-.112-.427-.233l-.01-.006a10.744,10.744,0,0,1-4.413-4.888l-.012-.025c-.064-.142-.123-.285-.18-.43l-.025-.061c-.052-.133-.1-.267-.146-.4-.012-.034-.024-.068-.035-.1-.041-.123-.079-.247-.115-.371-.014-.047-.028-.094-.041-.141-.032-.114-.06-.229-.088-.344-.014-.058-.029-.115-.042-.174-.024-.108-.045-.217-.066-.326-.013-.065-.026-.13-.037-.2-.019-.107-.034-.215-.049-.323-.009-.066-.02-.132-.028-.2-.014-.115-.025-.23-.035-.345-.005-.059-.012-.118-.016-.177-.01-.137-.016-.274-.021-.41,0-.038,0-.075,0-.113a10.807,10.807,0,0,1,.165-2.164c.007-.039.016-.077.023-.116.025-.132.051-.264.081-.4.014-.06.03-.12.045-.18.027-.109.054-.218.084-.326.019-.069.041-.137.061-.2.03-.1.06-.2.093-.3.023-.069.048-.137.072-.2.035-.1.07-.2.108-.292.025-.063.051-.126.077-.188.042-.1.084-.2.129-.3.024-.054.05-.108.075-.161.05-.107.1-.214.155-.32.022-.044.046-.086.068-.129.06-.114.121-.227.186-.339l.058-.1c.07-.119.142-.238.218-.355l.048-.072c.08-.122.162-.244.248-.364l.039-.053c.089-.123.18-.245.275-.364l.036-.044c.1-.12.194-.239.3-.356l.038-.041c.1-.115.205-.23.313-.341l.038-.038c.225-.232.461-.457.71-.671s.519-.423.788-.614l.031-.023c.127-.09.257-.175.387-.259l.046-.03c.13-.083.261-.161.394-.237l.052-.031c.13-.074.262-.144.394-.212l.068-.035c.128-.065.256-.125.386-.184l.091-.042c.122-.054.246-.105.369-.155l.121-.049c.115-.044.23-.085.345-.126l.157-.055c.106-.035.212-.067.318-.1.064-.019.128-.039.193-.057.1-.027.2-.051.293-.075.074-.018.148-.037.223-.054.092-.02.184-.038.277-.056s.161-.032.242-.046.183-.028.274-.042.163-.025.245-.034c.1-.012.2-.021.3-.03.074-.007.148-.015.223-.02.12-.009.24-.014.36-.018.054,0,.108-.006.162-.007q.259-.006.518,0h.007a10.8,10.8,0,0,1,1.623.163l.136.027c.126.024.252.049.377.077.065.015.128.032.192.048.105.026.211.052.316.081.071.02.14.042.21.063.1.03.2.059.293.092.069.023.136.048.2.072.1.035.2.07.3.108.061.024.12.049.18.074.1.043.209.086.312.133l.146.068c.113.053.226.107.337.163l.107.057c.122.064.243.13.363.2l.068.041c.13.076.259.154.386.236l.034.022q.2.132.4.274l0,0a10.745,10.745,0,0,1,3.75,4.811l.006.014q.088.226.166.455l.016.046c.048.144.093.289.135.435.007.025.015.05.022.075.039.139.074.278.107.418.008.033.016.065.024.1.031.137.059.274.084.412.007.036.014.071.02.107.025.142.046.284.065.426,0,.032.009.063.013.095.02.157.035.314.048.471,0,.017,0,.033,0,.05a10.8,10.8,0,0,1-.246,3.253l-.008.034q-.056.239-.123.475c-.007.025-.015.05-.022.075-.042.144-.086.287-.134.43-.009.028-.02.055-.029.083-.048.14-.1.279-.153.417l-.028.069q-.086.213-.18.424l-.019.041q-.1.223-.214.441l0,.007a10.745,10.745,0,0,1-6.129,5.262h0q-.236.079-.475.147l-.036.011q-.226.063-.454.116l-.064.015c-.148.034-.3.063-.444.091l-.077.015c-.152.027-.3.049-.456.069l-.066.009q-.251.031-.5.051l-.021,0A10.8,10.8,0,0,1,206.3,377.249Z" transform="translate(-191.708 -349.766)" fill="#1d96d4"/><path d="M388.987,368.484s0-.006,0-.009A17.021,17.021,0,0,0,373.3,350.232v0a3.137,3.137,0,0,1-.474,6.253v0a10.741,10.741,0,0,1,9.9,11.514h0a3.14,3.14,0,0,0,6.262.475Z" transform="translate(-354.993 -350.186)" opacity="0.48" fill="url(#a)" style="mix-blend-mode:multiply;isolation:isolate"/><g transform="translate(40.846 9.267)"><path d="M612.756,498.1a5.751,5.751,0,0,1,4.431,1.569,5.45,5.45,0,0,1,1.463,3.879,5.175,5.175,0,0,1-1.505,3.816,6.384,6.384,0,0,1-4.664,1.484h-1.993v4.918h-3.964V498.1Zm-.085,7.186a1.783,1.783,0,1,0,.085-3.561h-2.268v3.561Z" transform="translate(-606.524 -497.759)" fill="#78768c"/><path d="M740.034,545.49a6.352,6.352,0,0,1,0-8.776,6.773,6.773,0,0,1,9.2,0,6.3,6.3,0,0,1,0,8.776,6.832,6.832,0,0,1-9.2,0Zm6.487-2.48a2.671,2.671,0,0,0,.763-1.929,2.642,2.642,0,0,0-2.65-2.65,2.466,2.466,0,0,0-1.865.784,2.526,2.526,0,0,0-.763,1.865,2.671,2.671,0,0,0,.763,1.929,2.526,2.526,0,0,0,1.865.763A2.574,2.574,0,0,0,746.521,543.01Z" transform="translate(-725.302 -530.948)" fill="#78768c"/><path d="M886.17,547.147v-11.7h3.646v1.632a4.089,4.089,0,0,1,3.667-1.95,4.5,4.5,0,0,1,3.2,1.251A4.738,4.738,0,0,1,898,539.96v7.186h-3.752v-6.19c0-1.526-.784-2.417-2.056-2.417a2.283,2.283,0,0,0-2.289,2.523v6.084Z" transform="translate(-858.634 -531.142)" fill="#78768c"/><path d="M1029.929,511.36a7.239,7.239,0,0,1-3.731.954c-2.9,0-4.346-1.611-4.346-4.833v-4.07h-1.781v-3.095h1.823v-4.155h3.71v4.155h3.667v3.095H1025.6v3.625c0,1.251.488,1.866,1.484,1.866a3.972,3.972,0,0,0,1.844-.53Z" transform="translate(-979.351 -496.013)" fill="#78768c"/><path d="M1127.317,545.49a6.352,6.352,0,0,1,0-8.776,6.773,6.773,0,0,1,9.2,0,6.3,6.3,0,0,1,0,8.776,6.832,6.832,0,0,1-9.2,0Zm6.487-2.48a2.671,2.671,0,0,0,.763-1.929,2.642,2.642,0,0,0-2.65-2.65,2.466,2.466,0,0,0-1.865.784,2.526,2.526,0,0,0-.763,1.865,2.671,2.671,0,0,0,.763,1.929,2.526,2.526,0,0,0,1.865.763A2.574,2.574,0,0,0,1133.8,543.01Z" transform="translate(-1074.45 -530.948)" fill="#78768c"/><path d="M1268.826,553.336l-3.985-11.32h1.314l3.159,9.328,3.392-9.328.848.021,3.434,9.306,3.095-9.328h1.336l-3.964,11.32h-.89l-3.434-9.518-3.413,9.518Z" transform="translate(-1200.019 -537.352)" fill="#78768c"/><path d="M1455.239,545.662H1445.7a4.291,4.291,0,0,0,4.6,4.24,7.059,7.059,0,0,0,4.155-1.357l.594.975a8.062,8.062,0,0,1-4.77,1.569c-4.176,0-5.893-2.989-5.893-5.957a5.973,5.973,0,0,1,1.548-4.24,5.292,5.292,0,0,1,4.091-1.675,5.1,5.1,0,0,1,3.773,1.484,5.288,5.288,0,0,1,1.505,3.964C1455.3,544.815,1455.281,545.154,1455.239,545.662ZM1445.7,544.5h8.289a3.835,3.835,0,0,0-3.964-4.113A4.253,4.253,0,0,0,1445.7,544.5Z" transform="translate(-1361.883 -534.83)" fill="#78768c"/><path d="M1591.762,500.78a5.892,5.892,0,0,1,1.611,4.219,5.978,5.978,0,0,1-1.611,4.24,5.3,5.3,0,0,1-4.028,1.717,5.079,5.079,0,0,1-4.515-2.565v2.268h-1.272v-16h1.272v6.953a5.119,5.119,0,0,1,4.536-2.544A5.291,5.291,0,0,1,1591.762,500.78Zm-.933,7.61A4.893,4.893,0,0,0,1592.08,505a4.824,4.824,0,0,0-1.229-3.371,4.109,4.109,0,0,0-3.18-1.378,4.243,4.243,0,0,0-3.243,1.378,4.772,4.772,0,0,0-1.251,3.328,4.984,4.984,0,0,0,1.251,3.413,4.243,4.243,0,0,0,3.243,1.378A4.046,4.046,0,0,0,1590.829,508.391Z" transform="translate(-1485.9 -494.654)" fill="#78768c"/></g><path d="M373.069,435.05l0-.006q-.079-.194-.166-.383l-.016-.035q-.083-.178-.174-.351l-.029-.056c-.059-.111-.121-.221-.184-.33l-.037-.065c-.065-.11-.133-.218-.2-.325l-.036-.056q-.115-.174-.239-.343l-.017-.024A9.193,9.193,0,0,0,370,431.114l-.035-.025c-.109-.079-.219-.156-.331-.23l-.069-.044c-.1-.066-.206-.132-.311-.194l-.08-.046c-.1-.06-.207-.118-.313-.174l-.077-.039c-.109-.056-.218-.111-.329-.162l-.061-.027q-.176-.081-.355-.154L368,430q-.191-.077-.385-.145l-.012,0a9.125,9.125,0,0,0-2.946-.508v9.072h9.076A9.112,9.112,0,0,0,373.069,435.05Z" transform="translate(-347.631 -421.509)" fill="#cbcbd3"/></svg>