<svg xmlns="http://www.w3.org/2000/svg" width="118.069" height="34.007" viewBox="0 0 118.069 34.007"><g transform="translate(40.846 8.05)"><path d="M779.556,513.764V498.1h3.985V509.99h7.61v3.773Z" transform="translate(-779.556 -497.589)" fill="#78768c"/><path d="M918.48,542.7h-8.352a2.7,2.7,0,0,0,2.862,1.844,6.22,6.22,0,0,0,3.54-1.081l1.463,2.523a8.617,8.617,0,0,1-5.172,1.611,6.338,6.338,0,0,1-4.791-1.759,6.067,6.067,0,0,1-1.675-4.346,5.944,5.944,0,0,1,1.738-4.388,6.68,6.68,0,0,1,8.819-.191,5.572,5.572,0,0,1,1.7,4.282A9.41,9.41,0,0,1,918.48,542.7Zm-8.395-2.565h4.96a2.374,2.374,0,0,0-2.438-1.8A2.416,2.416,0,0,0,910.085,540.134Z" transform="translate(-893.869 -531.167)" fill="#78768c"/><path d="M1052.878,535.64h3.519v11.7h-3.519v-1.018a4.946,4.946,0,0,1-3.455,1.314,5.3,5.3,0,0,1-4.113-1.781,6.284,6.284,0,0,1-1.611-4.409,6.109,6.109,0,0,1,1.611-4.367,5.367,5.367,0,0,1,4.113-1.738,4.8,4.8,0,0,1,3.455,1.357Zm-.827,3.922a2.625,2.625,0,0,0-1.929-.805,2.559,2.559,0,0,0-1.929.805,2.657,2.657,0,0,0-.763,1.908,2.721,2.721,0,0,0,.763,1.95,2.713,2.713,0,0,0,3.858,0,2.654,2.654,0,0,0,.784-1.95A2.592,2.592,0,0,0,1052.051,539.561Z" transform="translate(-1017.69 -531.167)" fill="#78768c"/><path d="M1200.26,492.932h3.752v16.174h-3.646v-1.018a4.46,4.46,0,0,1-3.265,1.314,5.353,5.353,0,0,1-4.091-1.738,6.743,6.743,0,0,1,0-8.8,5.4,5.4,0,0,1,4.091-1.759,4.42,4.42,0,0,1,3.159,1.208Zm.148,10.3a2.631,2.631,0,0,0-2.671-2.713,2.545,2.545,0,0,0-1.908.806,2.657,2.657,0,0,0-.763,1.908,2.736,2.736,0,0,0,.763,1.971,2.526,2.526,0,0,0,1.908.784A2.654,2.654,0,0,0,1200.409,503.234Z" transform="translate(-1150.827 -492.932)" fill="#78768c"/><path d="M1350.322,542.7h-8.352a2.7,2.7,0,0,0,2.862,1.844,6.221,6.221,0,0,0,3.54-1.081l1.463,2.523a8.617,8.617,0,0,1-5.172,1.611,6.338,6.338,0,0,1-4.791-1.759,6.067,6.067,0,0,1-1.675-4.346,5.943,5.943,0,0,1,1.738-4.388,6.68,6.68,0,0,1,8.819-.191,5.571,5.571,0,0,1,1.7,4.282A9.4,9.4,0,0,1,1350.322,542.7Zm-8.395-2.565h4.96a2.374,2.374,0,0,0-2.438-1.8A2.416,2.416,0,0,0,1341.927,540.134Z" transform="translate(-1283.188 -531.167)" fill="#78768c"/><path d="M1480.922,547.147v-11.7h3.583v1.441a3.607,3.607,0,0,1,4.579-1.441l-.3,3.561a4.684,4.684,0,0,0-1.548-.276c-1.717,0-2.586,1.124-2.586,3.371v5.045Z" transform="translate(-1411.861 -530.972)" fill="#78768c"/></g><path d="M460.521,619.433l-2.863-3.969a.629.629,0,0,0-.831-.173,10.764,10.764,0,0,1-11.039-.051.629.629,0,0,0-.833.167l-2.9,3.96a.755.755,0,0,0,.2,1.083,17.031,17.031,0,0,0,18.05.067A.756.756,0,0,0,460.521,619.433Z" transform="translate(-434.312 -589.065)" fill="#1d96d4"/><path d="M370.872,476.1l-4.645-1.527a.756.756,0,0,0-.969.53,17.031,17.031,0,0,0,5.524,17.184.755.755,0,0,0,1.093-.136l2.9-3.96a.629.629,0,0,0-.093-.844,10.764,10.764,0,0,1-3.391-10.508A.629.629,0,0,0,370.872,476.1Z" transform="translate(-364.74 -462.299)" fill="#1d96d4"/><path d="M616.568,476.218a.755.755,0,0,0-.965-.535l-4.636,1.489a.629.629,0,0,0-.421.737,10.748,10.748,0,0,1-3.466,10.5.63.63,0,0,0-.1.847l2.863,3.969a.755.755,0,0,0,1.094.142,17.048,17.048,0,0,0,5.633-17.147Z" transform="translate(-583.018 -463.298)" fill="#1d96d4"/><path d="M541.842,355.919a.629.629,0,0,0,.574.629,10.768,10.768,0,0,1,8.938,6.543.629.629,0,0,0,.773.357l4.632-1.487a.756.756,0,0,0,.473-1A17.035,17.035,0,0,0,542.666,350.3a.756.756,0,0,0-.807.752Z" transform="translate(-524.403 -350.297)" fill="#1d96d4"/><path d="M384.089,360.856a10.729,10.729,0,0,1,7.756-4.362.629.629,0,0,0,.575-.625l.017-4.866a.755.755,0,0,0-.8-.758,17.048,17.048,0,0,0-14.64,10.557.755.755,0,0,0,.466,1l4.644,1.526a.63.63,0,0,0,.776-.353A10.73,10.73,0,0,1,384.089,360.856Z" transform="translate(-375.738 -350.244)" fill="#1d96d4"/><path d="M585.324,540.62v-1.172a2.285,2.285,0,0,0-2.282-2.282h-1.223a3.181,3.181,0,0,1,.193,1.093v5.5A9.408,9.408,0,0,0,585.324,540.62Z" transform="translate(-560.444 -518.76)" fill="#cbcbd3"/><path d="M460.366,537.167h-1.223a2.285,2.285,0,0,0-2.282,2.282v1.172a9.409,9.409,0,0,0,3.312,3.141v-5.5A3.178,3.178,0,0,1,460.366,537.167Z" transform="translate(-447.79 -518.761)" fill="#cbcbd3"/><path d="M504.844,525.092h-2.8a2.285,2.285,0,0,0-2.282,2.282v5.953a9.387,9.387,0,0,0,7.359,0v-5.953A2.285,2.285,0,0,0,504.844,525.092Z" transform="translate(-486.471 -507.875)" fill="#cbcbd3"/><path d="M512.008,463.64a2.744,2.744,0,1,0,2.745,2.745A2.748,2.748,0,0,0,512.008,463.64Z" transform="translate(-495.033 -452.474)" fill="#cbcbd3"/><path d="M469.4,489.619a2.051,2.051,0,1,0,2.053,2.053A2.055,2.055,0,0,0,469.4,489.619Z" transform="translate(-457.245 -475.895)" fill="#cbcbd3"/><path d="M569.34,491.672a2.052,2.052,0,1,0-2.053,2.053A2.055,2.055,0,0,0,569.34,491.672Z" transform="translate(-545.493 -475.895)" fill="#cbcbd3"/></svg>