<svg xmlns="http://www.w3.org/2000/svg" xmlns:xlink="http://www.w3.org/1999/xlink" width="93.451" height="35.044" viewBox="0 0 93.451 35.044"><defs><linearGradient id="a" x1="-9.033" y1="3.616" x2="-8.261" y2="2.853" gradientUnits="objectBoundingBox"><stop offset="0.073" stop-color="#0a478b"/><stop offset="0.506" stop-color="#16c" stop-opacity="0.749"/><stop offset="0.995" stop-color="#fff" stop-opacity="0"/></linearGradient></defs><g transform="translate(40.898 8.882)"><g transform="translate(0)"><path d="M887.793,505.976V490.608h2.87l5.532,7.9,5.511-7.9H904.6v15.368h-3.847v-7.383L896.9,503.98h-1.456l-3.847-5.386v7.383Z" transform="translate(-887.793 -489.277)" fill="#78768c"/><path d="M1124.322,538.528H1128v6.509a1.842,1.842,0,1,0,3.681,0v-6.509h3.681V545c0,3.39-2.1,5.3-5.532,5.3s-5.511-1.913-5.511-5.3Z" transform="translate(-1105.127 -533.308)" fill="#78768c"/><path d="M1290.962,500.326h-3.66V484.458h3.66Z" transform="translate(-1254.88 -483.626)" fill="#78768c"/><path d="M1361.291,503.213a7.1,7.1,0,0,1-3.66.936c-2.849,0-4.263-1.581-4.263-4.742v-3.993h-1.747v-3.036h1.789V488.3h3.639v4.076h3.6v3.036h-3.6v3.556c0,1.227.478,1.83,1.456,1.83a3.9,3.9,0,0,0,1.809-.52Z" transform="translate(-1313.979 -487.158)" fill="#78768c"/><path d="M1483.336,476.288a2.111,2.111,0,1,1,2.121,2.121A2.069,2.069,0,0,1,1483.336,476.288Zm3.972,14.62h-3.681v-11.48h3.681Z" transform="translate(-1435.005 -474.208)" fill="#78768c"/></g></g><path d="M427.4,330.548s0,0,0-.005,0,0,0,0,0-.006,0-.008a16.7,16.7,0,0,0-16.134-17.23h-.058l-.029,0c-.03,0-.058,0-.088,0a16.7,16.7,0,0,0-17.07,16.119s0,.006,0,.008,0,0,0,0v.005a16.7,16.7,0,1,0,33.38,1.112Zm-18.633,9.8-.044-.009q-.23-.044-.459-.1l-.09-.023c-.137-.034-.274-.07-.409-.109l-.1-.031c-.132-.04-.263-.081-.393-.126l-.093-.033c-.133-.047-.265-.1-.4-.149l-.071-.03q-.207-.085-.41-.178l-.041-.019q-.216-.1-.428-.211l-.01-.006a10.542,10.542,0,0,1-4.529-4.608l-.012-.024c-.068-.137-.133-.275-.195-.414l-.027-.059c-.056-.128-.109-.258-.16-.388-.013-.033-.026-.066-.039-.1-.045-.119-.087-.239-.128-.359-.015-.045-.031-.091-.046-.137-.036-.111-.069-.222-.1-.334-.016-.056-.033-.112-.048-.168-.028-.105-.054-.211-.079-.317-.015-.063-.031-.126-.044-.19-.023-.1-.042-.209-.062-.314-.012-.065-.025-.129-.036-.194-.019-.112-.034-.224-.049-.337-.008-.058-.017-.115-.023-.173-.016-.134-.027-.267-.037-.4,0-.037-.007-.074-.01-.111a10.6,10.6,0,0,1,.072-2.128c.005-.039.012-.077.018-.115.019-.131.039-.261.063-.391.011-.06.024-.119.036-.178.022-.108.044-.216.069-.323.016-.068.034-.136.052-.2.025-.1.051-.2.079-.295.02-.068.041-.136.062-.2.03-.1.06-.194.093-.291.022-.063.045-.125.068-.188.037-.1.074-.2.114-.3.022-.054.045-.108.067-.161.045-.107.09-.214.139-.32.02-.043.041-.086.062-.13.054-.114.11-.228.168-.34l.053-.1c.064-.12.13-.239.2-.357l.044-.073c.073-.123.149-.246.228-.367l.036-.054c.082-.124.166-.247.254-.368l.033-.045c.089-.122.18-.242.275-.361l.035-.042c.1-.117.192-.234.293-.348l.036-.039c.211-.236.433-.467.669-.687s.491-.436.747-.635l.029-.024c.121-.093.244-.183.368-.27l.044-.031c.124-.086.249-.168.376-.249l.05-.033c.124-.078.25-.152.377-.224l.065-.038c.122-.068.246-.133.37-.2l.087-.045c.118-.059.236-.114.356-.167l.117-.053c.11-.048.222-.093.333-.137l.152-.06c.1-.039.2-.074.308-.11.062-.021.124-.043.187-.063.094-.03.189-.058.284-.086.072-.021.144-.042.216-.062.089-.024.179-.045.269-.067s.157-.038.236-.055.178-.035.267-.052.159-.031.239-.044c.1-.016.193-.029.29-.042.073-.01.145-.021.218-.029.117-.014.234-.023.352-.033.053,0,.105-.01.158-.014q.254-.017.508-.022h.007a10.608,10.608,0,0,1,1.6.092l.135.021c.124.018.249.037.373.06.064.012.127.026.191.039.1.021.209.042.313.067.07.016.139.035.208.053.1.025.195.05.291.078.068.02.135.041.2.062.1.03.2.061.294.094.06.021.12.043.18.065.1.038.208.076.311.117l.146.061c.113.047.226.1.337.146l.107.051c.122.058.244.117.364.179l.069.037c.131.069.26.14.388.215l.034.02q.206.121.407.252l0,0a10.541,10.541,0,0,1,3.876,4.56l.006.014q.1.218.181.439l.017.044c.053.139.1.28.15.42l.025.073c.044.134.084.269.122.4.009.032.019.064.027.1.036.133.069.267.1.4.008.035.017.069.024.1.03.138.057.276.082.415.005.031.012.061.017.092.026.153.048.306.067.46,0,.016,0,.032.007.049a10.6,10.6,0,0,1-.106,3.2c0,.011,0,.022-.007.034-.03.158-.063.315-.1.471-.006.025-.013.05-.019.074-.035.143-.073.285-.114.427-.008.028-.017.055-.025.082-.042.139-.085.277-.133.415l-.025.068q-.075.213-.159.423l-.017.041q-.09.222-.191.441l0,.007a10.543,10.543,0,0,1-5.789,5.413h0q-.228.088-.46.164l-.035.012q-.219.072-.44.133l-.062.018c-.143.039-.287.074-.432.107l-.074.017c-.148.032-.3.061-.444.087l-.065.012q-.244.041-.49.071l-.021,0A10.6,10.6,0,0,1,408.769,340.351Z" transform="translate(-393.186 -312.473)" fill="#1d96d4"/><path d="M620.45,330.607s0-.006,0-.008a16.7,16.7,0,0,0-16.134-17.23v0a3.077,3.077,0,0,1-.2,6.149v0A10.538,10.538,0,0,1,614.292,330.4h0a3.081,3.081,0,0,0,6.158.205Z" transform="translate(-586.234 -312.54)" opacity="0.48" fill="url(#a)" style="mix-blend-mode:multiply;isolation:isolate"/><path d="M536.138,554.972a5.87,5.87,0,0,1-7.729.006l-.87-.764-1.528,1.74.87.764a8.186,8.186,0,0,0,10.785-.006l.869-.764-1.528-1.74Z" transform="translate(-514.473 -533.834)" fill="#cbcbd4"/><path d="M386.16,657.825v-3.877h-2.318v5.874a.7.7,0,0,0,.7.7h5.874v-2.318H386.54A.38.38,0,0,1,386.16,657.825Z" transform="translate(-383.842 -625.479)" fill="#cbcbd4"/><path d="M738.936,305.849v3.877h2.318v-5.874a.7.7,0,0,0-.7-.7h-5.874v2.318h3.877A.38.38,0,0,1,738.936,305.849Z" transform="translate(-706.207 -303.151)" fill="#cbcbd4"/></svg>