<svg xmlns="http://www.w3.org/2000/svg" width="104.975" height="29.656" viewBox="0 0 104.975 29.656"><g transform="translate(-22.962 -18)"><g transform="translate(22.962 18)"><g transform="translate(13.512 13.577)"><path d="M206.367,190.094a5.334,5.334,0,1,1-10.667,0,1.423,1.423,0,0,0-2.845,0,8.178,8.178,0,1,0,16.356,0,1.423,1.423,0,0,0-2.845,0Z" transform="translate(-192.856 -188.721)" fill="#324fd1"/></g><g transform="translate(0 13.577)"><path d="M31.14,195.428a5.392,5.392,0,0,1-5.334-5.334,1.423,1.423,0,0,0-2.845,0,8.285,8.285,0,0,0,8.178,8.178,1.423,1.423,0,0,0,0-2.845Z" transform="translate(-22.962 -188.721)" fill="#324fd1"/></g><path d="M124.455,26.179a8.3,8.3,0,0,0-5.521-7.733,8.176,8.176,0,1,0,5.515,7.9A1.661,1.661,0,0,0,124.455,26.179Zm-6.278,4.99a5.341,5.341,0,1,1,3.433-4.99A5.4,5.4,0,0,1,118.177,31.17Z" transform="translate(-101.345 -18)" fill="#324fd1"/></g><g transform="translate(76.806 43.189)"><path d="M701.189,354.321a1.94,1.94,0,0,1-1.16-.375.066.066,0,0,1-.018-.094l.158-.27c.023-.041.053-.047.094-.018a1.559,1.559,0,0,0,.938.328c.392,0,.691-.164.691-.469,0-.328-.363-.4-.691-.469-.422-.088-1.143-.252-1.143-.932,0-.6.568-.862,1.154-.862a2.016,2.016,0,0,1,1.019.276.054.054,0,0,1,.023.088l-.158.264a.056.056,0,0,1-.088.023,1.762,1.762,0,0,0-.82-.217c-.41,0-.656.164-.656.428,0,.323.346.41.762.493.469.094,1.084.229,1.084.885C702.378,354,701.874,354.321,701.189,354.321Z" transform="translate(-700 -349.854)" fill="#324fd1"/><path d="M739.58,351.972a.063.063,0,0,1,.065.07v2.714a.079.079,0,0,1-.047.082,2.727,2.727,0,0,1-1.107.229A1.148,1.148,0,0,1,737.2,353.8v-1.759a.065.065,0,0,1,.07-.07h.346a.063.063,0,0,1,.064.07v1.747c0,.616.3.85.814.85a2.1,2.1,0,0,0,.674-.111v-2.486a.065.065,0,0,1,.07-.07Z" transform="translate(-734.238 -350.6)" fill="#324fd1"/><path d="M776.632,351.161A1.042,1.042,0,0,1,777.8,352.3v1.759a.076.076,0,0,1-.053.076,3.491,3.491,0,0,1-1.13.188c-.656,0-1.259-.264-1.259-.961,0-.621.51-.932,1.259-.932a4.263,4.263,0,0,1,.7.07v-.188c0-.475-.193-.715-.7-.715a1.66,1.66,0,0,0-.832.217.056.056,0,0,1-.088-.018l-.17-.246c-.018-.035-.023-.059,0-.082A1.963,1.963,0,0,1,776.632,351.161Zm-.018,2.732a2.573,2.573,0,0,0,.7-.106v-.879a4.12,4.12,0,0,0-.7-.07c-.533,0-.779.2-.779.522C775.835,353.711,776.163,353.893,776.614,353.893Z" transform="translate(-769.362 -349.854)" fill="#324fd1"/><path d="M830.981,354.321a1.94,1.94,0,0,1-1.16-.375.066.066,0,0,1-.018-.094l.158-.27c.023-.041.053-.047.094-.018a1.557,1.557,0,0,0,.937.328c.393,0,.691-.164.691-.469,0-.328-.363-.4-.691-.469-.422-.088-1.142-.252-1.142-.932,0-.6.568-.862,1.154-.862a2.017,2.017,0,0,1,1.019.276.054.054,0,0,1,.023.088l-.158.264a.056.056,0,0,1-.088.023,1.761,1.761,0,0,0-.82-.217c-.41,0-.656.164-.656.428,0,.323.346.41.762.493.469.094,1.084.229,1.084.885C832.17,354,831.666,354.321,830.981,354.321Z" transform="translate(-819.47 -349.854)" fill="#324fd1"/><path d="M865.835,351.161A1.042,1.042,0,0,1,867,352.3v1.759a.076.076,0,0,1-.053.076,3.489,3.489,0,0,1-1.13.188c-.656,0-1.26-.264-1.26-.961,0-.621.51-.932,1.26-.932a4.265,4.265,0,0,1,.7.07v-.188c0-.475-.193-.715-.7-.715a1.66,1.66,0,0,0-.832.217.056.056,0,0,1-.088-.018l-.17-.246c-.018-.035-.023-.059,0-.082A1.963,1.963,0,0,1,865.835,351.161Zm-.017,2.732a2.575,2.575,0,0,0,.7-.106v-.879a4.123,4.123,0,0,0-.7-.07c-.533,0-.779.2-.779.522C865.038,353.711,865.366,353.893,865.818,353.893Z" transform="translate(-851.471 -349.854)" fill="#324fd1"/><path d="M907.013,336.095a.063.063,0,0,1,.065.07v2.714a.079.079,0,0,1-.047.082,2.728,2.728,0,0,1-1.107.229,1.148,1.148,0,0,1-1.295-1.266v-1.759a.065.065,0,0,1,.07-.07h.346a.063.063,0,0,1,.065.07v1.747c0,.616.3.85.814.85a2.1,2.1,0,0,0,.674-.111v-2.486a.065.065,0,0,1,.07-.07Zm-1.458-.469c-.053,0-.082-.035-.053-.082l.474-.78a.112.112,0,0,1,.082-.041h.369c.053,0,.07.035.035.082l-.562.78a.1.1,0,0,1-.082.041Z" transform="translate(-888.355 -334.723)" fill="#324fd1"/><path d="M946.122,337.441c0-.041.023-.064.07-.064h.346a.059.059,0,0,1,.064.064v3.91a.073.073,0,0,1-.053.076,3.3,3.3,0,0,1-1.131.205,1.165,1.165,0,0,1-1.306-1.266v-.651a1.177,1.177,0,0,1,1.271-1.243,1.634,1.634,0,0,1,.738.182Zm-.691,3.77a2.033,2.033,0,0,0,.691-.111v-1.987a1.227,1.227,0,0,0-.7-.211.727.727,0,0,0-.826.815v.651C944.6,340.982,944.91,341.211,945.431,341.211Z" transform="translate(-924.699 -337.166)" fill="#324fd1"/><path d="M986.653,352.9c0,.047-.023.07-.064.07h-1.915v.246a.675.675,0,0,0,.762.674,1.386,1.386,0,0,0,.9-.328.062.062,0,0,1,.094.018l.17.223a.058.058,0,0,1-.012.094,1.745,1.745,0,0,1-1.16.422,1.122,1.122,0,0,1-1.236-1.1v-.891a1.235,1.235,0,0,1,2.466,0Zm-1.224-1.307a.678.678,0,0,0-.755.733v.246h1.511v-.246A.686.686,0,0,0,985.429,351.6Z" transform="translate(-961.586 -349.854)" fill="#324fd1"/><path d="M1041.291,336.988c-.369,0-.568.24-.568.639v.194h.808a.059.059,0,0,1,.064.065v.293c0,.047-.023.07-.064.07h-.808v2.509c0,.041-.023.064-.07.064h-.346a.058.058,0,0,1-.064-.064v-3.125a.956.956,0,0,1,.984-1.067,3.359,3.359,0,0,1,.352.018.068.068,0,0,1,.065.076v.281a.057.057,0,0,1-.059.064A2.388,2.388,0,0,0,1041.291,336.988Z" transform="translate(-1013.184 -336.419)" fill="#324fd1"/><path d="M1063.3,338.247a.285.285,0,0,1-.293-.287.282.282,0,0,1,.293-.287.277.277,0,0,1,.287.287A.28.28,0,0,1,1063.3,338.247Zm-.176,3.594c-.047,0-.07-.023-.07-.064v-2.9a.065.065,0,0,1,.07-.07h.346a.063.063,0,0,1,.064.07v2.9a.059.059,0,0,1-.064.064Z" transform="translate(-1034.134 -337.437)" fill="#324fd1"/><path d="M1079.788,354.257a.059.059,0,0,1-.065-.064v-2.72a.083.083,0,0,1,.047-.082,2.916,2.916,0,0,1,1.125-.229,1.158,1.158,0,0,1,1.318,1.266v1.765c0,.041-.023.064-.07.064h-.346a.059.059,0,0,1-.064-.064v-1.753a.737.737,0,0,0-.838-.844,2.406,2.406,0,0,0-.691.105v2.492c0,.041-.024.064-.071.064Z" transform="translate(-1049.525 -349.854)" fill="#324fd1"/><path d="M1119.38,351.161a1.042,1.042,0,0,1,1.166,1.137v1.759a.076.076,0,0,1-.053.076,3.489,3.489,0,0,1-1.13.188c-.656,0-1.26-.264-1.26-.961,0-.621.51-.932,1.26-.932a4.263,4.263,0,0,1,.7.07v-.188c0-.475-.193-.715-.7-.715a1.659,1.659,0,0,0-.832.217.056.056,0,0,1-.088-.018l-.17-.246c-.018-.035-.023-.059,0-.082A1.963,1.963,0,0,1,1119.38,351.161Zm-.018,2.732a2.574,2.574,0,0,0,.7-.106v-.879a4.122,4.122,0,0,0-.7-.07c-.533,0-.779.2-.779.522C1118.583,353.711,1118.911,353.893,1119.363,353.893Z" transform="translate(-1084.852 -349.854)" fill="#324fd1"/><path d="M1158.459,354.257a.059.059,0,0,1-.064-.064v-2.72a.083.083,0,0,1,.047-.082,2.916,2.916,0,0,1,1.125-.229,1.158,1.158,0,0,1,1.318,1.266v1.765c0,.041-.023.064-.07.064h-.346a.059.059,0,0,1-.064-.064v-1.753a.737.737,0,0,0-.838-.844,2.406,2.406,0,0,0-.691.105v2.492c0,.041-.024.064-.071.064Z" transform="translate(-1121.939 -349.854)" fill="#324fd1"/><path d="M1199.428,354.321a1.125,1.125,0,0,1-1.253-1.131V352.3a1.128,1.128,0,0,1,1.248-1.137,1.7,1.7,0,0,1,.955.293.065.065,0,0,1,.018.1l-.152.24a.066.066,0,0,1-.094.018,1.3,1.3,0,0,0-.715-.217.688.688,0,0,0-.779.7v.891a.686.686,0,0,0,.773.7,1.393,1.393,0,0,0,.785-.258.058.058,0,0,1,.094.012l.17.241a.061.061,0,0,1-.012.094A1.668,1.668,0,0,1,1199.428,354.321Z" transform="translate(-1158.556 -349.854)" fill="#324fd1"/><path d="M1234.821,352.9c0,.047-.023.07-.064.07h-1.916v.246a.675.675,0,0,0,.762.674,1.385,1.385,0,0,0,.9-.328.062.062,0,0,1,.094.018l.17.223a.058.058,0,0,1-.012.094,1.745,1.745,0,0,1-1.16.422,1.122,1.122,0,0,1-1.236-1.1v-.891a1.235,1.235,0,0,1,2.466,0ZM1233.6,351.6a.678.678,0,0,0-.756.733v.246h1.511v-.246A.686.686,0,0,0,1233.6,351.6Z" transform="translate(-1190.017 -349.854)" fill="#324fd1"/><path d="M1271.538,338.247a.285.285,0,0,1-.293-.287.282.282,0,0,1,.293-.287.277.277,0,0,1,.287.287A.28.28,0,0,1,1271.538,338.247Zm-.176,3.594c-.047,0-.07-.023-.07-.064v-2.9a.065.065,0,0,1,.07-.07h.345a.063.063,0,0,1,.064.07v2.9a.059.059,0,0,1-.064.064Z" transform="translate(-1225.814 -337.437)" fill="#324fd1"/><path d="M1288.03,354.257a.059.059,0,0,1-.065-.064v-2.738a.071.071,0,0,1,.047-.076,2.382,2.382,0,0,1,1-.217,4.387,4.387,0,0,1,.6.047.067.067,0,0,1,.059.076v.287c0,.047-.024.07-.07.059a3.833,3.833,0,0,0-.527-.041,1.764,1.764,0,0,0-.633.117v2.486c0,.041-.024.064-.071.064Z" transform="translate(-1241.205 -349.854)" fill="#324fd1"/><path d="M1313.48,351.161a1.042,1.042,0,0,1,1.166,1.137v1.759a.076.076,0,0,1-.053.076,3.49,3.49,0,0,1-1.13.188c-.656,0-1.26-.264-1.26-.961,0-.621.51-.932,1.26-.932a4.262,4.262,0,0,1,.7.07v-.188c0-.475-.193-.715-.7-.715a1.66,1.66,0,0,0-.832.217.056.056,0,0,1-.088-.018l-.17-.246c-.018-.035-.023-.059,0-.082A1.963,1.963,0,0,1,1313.48,351.161Zm-.018,2.732a2.575,2.575,0,0,0,.7-.106v-.879a4.121,4.121,0,0,0-.7-.07c-.533,0-.779.2-.779.522C1312.683,353.711,1313.011,353.893,1313.462,353.893Z" transform="translate(-1263.515 -349.854)" fill="#324fd1"/></g><g transform="translate(62.58 18.841)"><path d="M1078.319,55.47a2.357,2.357,0,1,1,2.37,2.344A2.315,2.315,0,0,1,1078.319,55.47Z" transform="translate(-1034.006 -51.173)" fill="#324fd1"/><rect width="3.958" height="13.815" transform="translate(44.666 8.078)" fill="#324fd1"/><path d="M1170.882,139.59V125.775h3.857v1.916a4.937,4.937,0,0,1,4.361-2.294,5.353,5.353,0,0,1,3.807,1.487,5.634,5.634,0,0,1,1.563,4.26v8.445h-3.958v-7.412c0-2.017-1.059-3.151-2.7-3.151a2.952,2.952,0,0,0-2.975,3.252v7.311Z" transform="translate(-1119.207 -117.697)" fill="#324fd1"/><path d="M532.194,126.067v1.462a5.738,5.738,0,0,0-4.26-1.815,6.433,6.433,0,0,0-4.865,2.042,7.2,7.2,0,0,0-1.941,5.143,7.474,7.474,0,0,0,1.916,5.244,6.4,6.4,0,0,0,4.891,2.092,5.786,5.786,0,0,0,4.26-1.765v1.412h3.731V126.067Zm-1.272,9.712a3.3,3.3,0,0,1-2.307.851,3.367,3.367,0,0,1-2.546-1.059c-.086-.1-.165-.194-.24-.294a3.629,3.629,0,0,1,.189-4.84c.017-.019.032-.04.05-.059a3.6,3.6,0,0,1,4.7-.348,3.628,3.628,0,0,1,.153,5.749Z" transform="translate(-521.127 -117.989)" fill="#324fd1"/><path d="M956.728,34.416A2.159,2.159,0,0,1,958.9,32a5.062,5.062,0,0,1,2.118.605l1.034-2.881a7.911,7.911,0,0,0-3.832-1.152c-3.353,0-5.42,2.186-5.42,6.118V50.468h1.71a2.54,2.54,0,0,0,2.223-2.62V39.931h4.286V36.653h-4.286V34.416Z" transform="translate(-918.465 -28.575)" fill="#324fd1"/><path d="M757.556,69.113a5.293,5.293,0,0,0-3.781-1.487,5.022,5.022,0,0,0-4.361,2.218v-7.21h-3.857V81.818h3.958V74.508a2.952,2.952,0,0,1,2.975-3.252c1.639,0,2.672,1.134,2.672,3.151v4.454h0c0,2.4,1.577,2.866,2.235,2.957h1.722V73.373A5.634,5.634,0,0,0,757.556,69.113Z" transform="translate(-727.707 -59.925)" fill="#324fd1"/></g></g></svg>