<svg xmlns="http://www.w3.org/2000/svg" xmlns:xlink="http://www.w3.org/1999/xlink" width="156.288" height="39.954" viewBox="0 0 156.288 39.954"><defs><linearGradient id="a" x1="-8.75" y1="5.146" x2="-7.978" y2="4.384" gradientUnits="objectBoundingBox"><stop offset="0.073" stop-color="#0a478b"/><stop offset="0.506" stop-color="#16c" stop-opacity="0.749"/><stop offset="0.995" stop-color="#fff" stop-opacity="0"/></linearGradient></defs><g transform="translate(39.595 13.224)"><path d="M577.335,544.995h-4.346v-3.816h12.677v3.816h-4.324v11.85h-4.007Z" transform="translate(-572.989 -539.822)" fill="#78768c"/><path d="M714.641,529.521a2.152,2.152,0,1,1,2.162,2.162A2.109,2.109,0,0,1,714.641,529.521Zm4.049,14.9h-3.752v-11.7h3.752Z" transform="translate(-700.693 -527.401)" fill="#78768c"/><path d="M796.854,579.261a4.53,4.53,0,0,1,1.42,3.625v7.144h-3.752v-6.4c0-1.463-.827-2.2-1.95-2.2a2.123,2.123,0,0,0-2.184,2.332v6.275h-3.731v-6.4a1.981,1.981,0,0,0-2.014-2.2,2.11,2.11,0,0,0-2.12,2.332v6.275h-3.731v-11.7h3.646v1.632a4.1,4.1,0,0,1,3.625-1.971,3.324,3.324,0,0,1,3.243,1.95,5.294,5.294,0,0,1,7.547-.678Z" transform="translate(-758.528 -573.008)" fill="#78768c"/><path d="M1006.2,585.78h-8.352a2.7,2.7,0,0,0,2.862,1.844,6.221,6.221,0,0,0,3.54-1.081l1.463,2.523a8.617,8.617,0,0,1-5.172,1.611,6.338,6.338,0,0,1-4.791-1.759,6.067,6.067,0,0,1-1.675-4.346,5.943,5.943,0,0,1,1.738-4.388,6.68,6.68,0,0,1,8.819-.191,5.571,5.571,0,0,1,1.7,4.282A9.4,9.4,0,0,1,1006.2,585.78Zm-8.395-2.565h4.96a2.374,2.374,0,0,0-2.438-1.8A2.416,2.416,0,0,0,997.8,583.215Z" transform="translate(-952.608 -573.4)" fill="#78768c"/><path d="M1127.543,588.144l1.675-2.523a5.3,5.3,0,0,0,3.5,1.463c.827,0,1.251-.254,1.251-.742,0-.276-.212-.488-.636-.657-.064-.021-.488-.148-1.293-.424-.784-.276-1.335-.466-1.611-.594a3.332,3.332,0,0,1-2.183-3.18,3.236,3.236,0,0,1,1.314-2.671,5.478,5.478,0,0,1,3.519-1.039,6.688,6.688,0,0,1,4.367,1.526l-1.611,2.459a5.069,5.069,0,0,0-2.819-1c-.615,0-1.06.3-1.06.657,0,.382.36.657,1.06.848a15.305,15.305,0,0,1,2.756,1.018,3.04,3.04,0,0,1,1.993,2.968,3.463,3.463,0,0,1-1.357,2.819,5.723,5.723,0,0,1-3.667,1.081A7.287,7.287,0,0,1,1127.543,588.144Z" transform="translate(-1072.938 -572.818)" fill="#78768c"/><path d="M1249.821,552.188V536.013h3.646v6.063a4.2,4.2,0,0,1,3.667-1.908,4.5,4.5,0,0,1,3.2,1.251A4.738,4.738,0,0,1,1261.65,545v7.186H1257.9V546c0-1.526-.785-2.417-2.056-2.417a2.276,2.276,0,0,0-2.289,2.5v6.105Z" transform="translate(-1183.176 -535.165)" fill="#78768c"/><path d="M1399.293,585.78h-8.352a2.7,2.7,0,0,0,2.862,1.844,6.221,6.221,0,0,0,3.54-1.081l1.463,2.523a8.617,8.617,0,0,1-5.172,1.611,6.339,6.339,0,0,1-4.791-1.759,6.067,6.067,0,0,1-1.675-4.346,5.943,5.943,0,0,1,1.738-4.388,6.68,6.68,0,0,1,8.819-.191,5.571,5.571,0,0,1,1.7,4.282A9.4,9.4,0,0,1,1399.293,585.78Zm-8.395-2.565h4.961a2.374,2.374,0,0,0-2.438-1.8A2.416,2.416,0,0,0,1390.9,583.215Z" transform="translate(-1306.998 -573.4)" fill="#78768c"/><path d="M1536.638,585.78h-8.352a2.7,2.7,0,0,0,2.862,1.844,6.22,6.22,0,0,0,3.54-1.081l1.463,2.523a8.617,8.617,0,0,1-5.172,1.611,6.338,6.338,0,0,1-4.791-1.759,6.067,6.067,0,0,1-1.675-4.346,5.943,5.943,0,0,1,1.738-4.388,6.68,6.68,0,0,1,8.819-.191,5.571,5.571,0,0,1,1.7,4.282A9.4,9.4,0,0,1,1536.638,585.78Zm-8.395-2.565h4.96a2.374,2.374,0,0,0-2.438-1.8A2.416,2.416,0,0,0,1528.243,583.215Z" transform="translate(-1430.818 -573.4)" fill="#78768c"/><path d="M1667.842,554.441a7.239,7.239,0,0,1-3.731.954c-2.9,0-4.346-1.611-4.346-4.833v-4.07h-1.781v-3.1h1.823v-4.155h3.71V543.4h3.667v3.1h-3.667v3.625c0,1.251.488,1.866,1.484,1.866a3.971,3.971,0,0,0,1.844-.53Z" transform="translate(-1551.148 -538.076)" fill="#78768c"/></g><g transform="translate(0 0)"><path d="M204.908,409.815v-.008s0-.006,0-.009a17.021,17.021,0,0,0-16.446-17.562H188.4l-.03,0c-.03,0-.059,0-.09,0a17.019,17.019,0,0,0-17.4,16.43s0,.006,0,.009,0,0,0,0,0,0,0,.005a17.022,17.022,0,0,0,34.024,1.133Zm-18.992,9.992-.045-.009c-.156-.03-.312-.063-.468-.1l-.092-.023c-.14-.034-.279-.071-.417-.111l-.1-.032c-.134-.04-.268-.083-.4-.128l-.095-.034c-.135-.048-.27-.1-.4-.152l-.072-.03c-.14-.057-.28-.118-.418-.181l-.042-.02q-.22-.1-.436-.215l-.01-.006a10.746,10.746,0,0,1-4.617-4.7l-.013-.025c-.07-.139-.135-.28-.2-.422l-.027-.06c-.057-.131-.111-.263-.163-.4-.013-.034-.027-.067-.04-.1-.046-.121-.089-.244-.13-.366-.016-.046-.032-.092-.047-.139-.037-.113-.07-.226-.1-.34-.016-.057-.034-.114-.049-.172-.029-.107-.055-.215-.08-.323-.015-.064-.031-.129-.045-.193-.023-.106-.043-.213-.063-.32-.012-.066-.025-.131-.036-.2-.019-.114-.034-.229-.05-.344-.008-.059-.017-.117-.024-.176-.016-.136-.028-.273-.038-.409,0-.038-.007-.075-.01-.113a10.809,10.809,0,0,1,.073-2.169c.005-.039.012-.078.018-.117.02-.133.04-.266.065-.4.011-.061.025-.121.037-.182.022-.11.045-.22.071-.33.016-.07.035-.138.053-.207.026-.1.051-.2.08-.3.02-.07.042-.139.064-.208.031-.1.062-.2.1-.3.022-.064.046-.128.069-.191.037-.1.075-.205.116-.307.022-.055.046-.11.068-.165.046-.109.092-.218.141-.326.02-.044.042-.088.063-.132.055-.116.112-.232.171-.347l.054-.1c.065-.122.132-.244.2-.364l.045-.074c.075-.126.152-.251.232-.374l.037-.055c.084-.126.17-.252.259-.376l.034-.046c.091-.124.184-.247.281-.368l.036-.043c.1-.12.2-.238.3-.354l.037-.04c.215-.241.441-.476.681-.7s.5-.444.761-.647l.03-.024c.123-.1.249-.186.375-.275l.044-.032c.126-.088.254-.172.383-.254l.051-.033c.127-.079.255-.155.384-.229l.066-.038c.125-.07.251-.136.378-.2l.089-.046c.12-.06.241-.116.362-.171l.119-.054c.113-.049.226-.1.34-.14l.155-.061c.1-.039.209-.076.314-.112.063-.022.127-.044.191-.065.1-.031.193-.059.29-.087.073-.021.146-.043.22-.063.091-.024.183-.046.274-.068s.16-.039.24-.056.181-.036.272-.053.162-.031.243-.045c.1-.016.2-.029.3-.043.074-.01.148-.021.222-.03.119-.014.239-.024.359-.033.054,0,.107-.01.161-.014q.258-.017.517-.022h.007a10.807,10.807,0,0,1,1.628.094l.138.021c.127.019.254.038.38.061.065.012.129.026.194.04.107.022.213.043.319.068.071.017.142.036.213.054.1.026.2.051.3.079.069.02.138.042.207.063.1.031.2.062.3.1.062.021.122.044.183.066.106.038.212.077.317.119l.149.062c.115.048.23.1.344.149l.109.052c.125.059.249.119.371.183l.07.038c.133.07.265.143.4.22l.034.021q.21.124.415.257l0,0a10.745,10.745,0,0,1,3.951,4.648l.006.014q.1.222.185.447l.018.045c.054.142.1.285.153.429.008.025.017.049.025.074.045.137.086.275.125.413.009.032.019.065.028.1.037.136.07.272.1.408.008.035.017.07.025.106.031.14.058.281.083.423.006.031.012.063.017.094.026.156.049.312.068.469,0,.017,0,.033.007.05a10.8,10.8,0,0,1-.108,3.26c0,.012,0,.023-.007.034q-.046.241-.1.48c-.006.025-.013.051-.019.076-.036.146-.074.291-.116.435-.008.028-.017.056-.026.084-.042.142-.087.283-.135.423l-.025.07c-.051.145-.1.288-.162.431l-.017.042q-.092.227-.195.45l0,.007a10.744,10.744,0,0,1-5.9,5.518h0q-.233.089-.469.167l-.036.012q-.223.073-.449.135l-.063.018c-.146.04-.293.076-.44.109l-.076.018c-.15.033-.3.062-.453.089l-.066.012q-.249.042-.5.072l-.021,0A10.8,10.8,0,0,1,185.916,419.807Z" transform="translate(-170.874 -386.316)" fill="#1d96d4"/><path d="M364.029,409.863s0-.006,0-.009a17.021,17.021,0,0,0-16.446-17.562v0a3.137,3.137,0,0,1-.209,6.268v0a10.741,10.741,0,0,1,10.378,11.085h0a3.14,3.14,0,1,0,6.277.209Z" transform="translate(-329.995 -386.371)" opacity="0.48" fill="url(#a)" style="mix-blend-mode:multiply;isolation:isolate"/><rect width="12.715" height="3.513" rx="1.757" transform="translate(10.617)" fill="#1d96d4"/><path d="M305.3,510.328V499.776a1.509,1.509,0,0,1,2.2-1.34l7.733,5.276a1.509,1.509,0,0,1,0,2.68l-7.733,5.276A1.509,1.509,0,0,1,305.3,510.328Z" transform="translate(-292.066 -481.91)" fill="#cbcbd3"/></g></svg>