<svg xmlns="http://www.w3.org/2000/svg" xmlns:xlink="http://www.w3.org/1999/xlink" width="78.287" height="36.958" viewBox="0 0 78.287 36.958"><defs><linearGradient id="a" x1="-17.618" y1="5.178" x2="-16.824" y2="4.436" gradientUnits="objectBoundingBox"><stop offset="0.073" stop-color="#0a478b"/><stop offset="0.506" stop-color="#16c" stop-opacity="0.749"/><stop offset="0.995" stop-color="#fff" stop-opacity="0"/></linearGradient></defs><g transform="translate(37.987 10.112)"><path d="M863.062,528.071V513.529h3.7v11.039h7.064v3.5Z" transform="translate(-863.062 -512.27)" fill="#78768c"/><path d="M993.52,501.719a2,2,0,1,1,2.007,2.007A1.958,1.958,0,0,1,993.52,501.719Zm3.758,13.834H993.8V504.69h3.483Z" transform="translate(-981.596 -499.751)" fill="#78768c"/><path d="M1054.781,553.788h3.8l-4.664,10.843h-2.794l-4.644-10.843h3.818l2.282,6.2Z" transform="translate(-1029.712 -548.849)" fill="#78768c"/><path d="M1190.776,557.6h-7.753a2.506,2.506,0,0,0,2.657,1.712,5.774,5.774,0,0,0,3.286-1l1.358,2.342a8,8,0,0,1-4.8,1.5,5.884,5.884,0,0,1-4.447-1.633,5.632,5.632,0,0,1-1.555-4.034,5.517,5.517,0,0,1,1.614-4.073,6.2,6.2,0,0,1,8.186-.177,5.172,5.172,0,0,1,1.574,3.975A8.744,8.744,0,0,1,1190.776,557.6Zm-7.793-2.381h4.6a2.2,2.2,0,0,0-2.263-1.673A2.243,2.243,0,0,0,1182.984,555.221Z" transform="translate(-1150.594 -546.11)" fill="#78768c"/></g><path d="M479.208,339.1c0-.179-.01-.359-.02-.54,0-.073-.009-.146-.014-.219,0-.053-.006-.107-.01-.16,0-.036-.008-.072-.011-.109q-.024-.289-.059-.574c-.008-.063-.014-.126-.023-.188q-.046-.347-.106-.689c0-.015,0-.03-.007-.044s0-.024-.006-.036,0-.009,0-.013a16.016,16.016,0,0,0-14.415-13l-.055,0-.027,0c-.028,0-.055,0-.083,0a15.983,15.983,0,0,0-16.64,13.012s0,.008,0,.013,0,.024-.006.036,0,.03-.007.044c-.041.228-.076.458-.106.689-.008.063-.015.125-.023.188q-.034.286-.059.574c0,.036-.008.072-.011.109,0,.053-.006.107-.01.16,0,.073-.01.146-.014.219q-.014.271-.02.54c0,.039,0,.079,0,.119q0,.262,0,.522c0,.031,0,.061,0,.092a15.841,15.841,0,0,0,4.575,10.711l8.859,8.9a3.459,3.459,0,0,0,4.865,0l8.858-8.9A15.841,15.841,0,0,0,479.2,339.83c0-.031,0-.061,0-.092q.006-.26,0-.521C479.208,339.178,479.209,339.138,479.208,339.1Zm-6.587-3.466.005.013q.082.21.154.422l.015.042c.045.134.086.268.125.4.007.023.014.046.02.07.036.129.069.258.1.388.007.031.015.061.022.091.029.127.054.255.078.383.006.033.013.066.019.1.023.131.043.263.061.4,0,.029.009.058.012.088.018.146.033.291.045.438,0,.015,0,.031,0,.046a10.028,10.028,0,0,1-.228,3.02l-.008.032q-.052.222-.114.441c-.007.023-.014.046-.021.07-.039.134-.08.267-.124.4-.009.026-.018.051-.027.077-.045.13-.092.259-.142.387l-.026.064c-.053.132-.108.263-.167.393l-.018.038q-.094.207-.2.409l0,.006a9.974,9.974,0,0,1-5.689,4.885h0q-.219.073-.441.136l-.034.01c-.14.039-.28.075-.421.108l-.059.014c-.137.031-.275.059-.412.084l-.071.014c-.141.025-.282.046-.423.064l-.061.009q-.233.029-.466.047l-.02,0a10.028,10.028,0,0,1-3.017-.228l-.041-.01c-.144-.034-.287-.071-.43-.111l-.084-.025c-.128-.037-.256-.077-.383-.119l-.1-.034c-.123-.043-.245-.087-.367-.135l-.086-.035c-.124-.05-.247-.1-.369-.157l-.066-.031c-.128-.059-.255-.12-.381-.185l-.038-.02q-.2-.1-.4-.217l-.01-.006a9.974,9.974,0,0,1-4.1-4.538l-.011-.023c-.059-.132-.115-.265-.167-.4l-.023-.057c-.048-.124-.093-.248-.136-.373-.011-.032-.022-.063-.033-.095-.038-.114-.073-.229-.107-.345-.013-.044-.026-.087-.038-.131-.029-.106-.056-.213-.082-.32-.013-.054-.027-.107-.039-.161-.022-.1-.042-.2-.061-.3-.012-.06-.024-.12-.034-.181-.017-.1-.031-.2-.046-.3-.009-.062-.018-.123-.026-.185-.013-.107-.023-.214-.032-.32,0-.055-.011-.109-.015-.164-.009-.127-.015-.254-.019-.381,0-.035,0-.07,0-.1a10.034,10.034,0,0,1,.153-2.009c.006-.036.014-.072.021-.108.023-.123.048-.245.076-.367.013-.056.028-.111.041-.167.025-.1.05-.2.078-.3.018-.064.038-.127.057-.19.028-.092.056-.184.086-.276.021-.064.045-.127.067-.19.032-.091.065-.181.1-.271.023-.059.047-.117.071-.175.039-.094.078-.188.119-.28.023-.05.047-.1.07-.15.047-.1.094-.2.144-.3.021-.04.042-.08.063-.12.056-.106.113-.211.173-.315l.054-.091c.065-.111.132-.221.2-.33l.044-.067c.074-.114.151-.226.23-.338l.036-.049c.083-.114.167-.227.255-.338l.033-.041c.089-.112.18-.222.275-.33l.035-.039c.095-.107.191-.213.291-.317l.036-.036q.14-.144.287-.283l.087-.082c.053-.049.107-.1.161-.146a10.032,10.032,0,0,1,2.416-1.584c.017-.007.035-.012.051-.019a9.951,9.951,0,0,1,3.345-.874c.167-.014.333-.022.5-.028l.031,0c.094,0,.186,0,.279,0s.186,0,.279,0l.031,0c.166.005.332.014.5.028a9.951,9.951,0,0,1,3.345.874c.017.008.034.013.051.019a10.038,10.038,0,0,1,2.981,2.123l.042.045q.079.082.156.167t.165.187l.019.022A9.956,9.956,0,0,1,472.621,335.632Z" transform="translate(-447.466 -323.479)" fill="#1d96d4"/><path d="M630.586,323.95a2.912,2.912,0,0,1-.44,5.8v0a9.932,9.932,0,0,1,6.386,2.984l.046.046.042.045q.079.082.156.167t.165.187l.019.022c.033.039.064.079.1.118l.085.1q.1.127.2.256l.073.1q.063.085.124.171t.136.2q.057.085.112.171l.08.127q.073.117.142.236.046.079.091.159c.028.05.056.1.083.151q.067.125.13.252l.052.106q.073.15.14.3l.027.062a9.906,9.906,0,0,1,.82,3.554c0,.028,0,.055,0,.083,0,.107.006.215.006.324,0,.026,0,.053,0,.08q0,.122,0,.244,0,.07-.005.14c0,.071-.007.141-.012.212,0,.035,0,.071-.006.106a2.915,2.915,0,0,0,5.814.428s0-.005,0-.008a15.726,15.726,0,0,0-1.988-8.933q-.232-.412-.489-.809l-.015-.023q-.118-.181-.24-.359l-.028-.041q-.4-.572-.841-1.108l-.028-.033q-.133-.16-.271-.315l-.039-.044q-.457-.516-.958-.991l-.047-.044q-.143-.135-.29-.266l-.056-.05q-.165-.146-.333-.288l-.005,0q-.182-.152-.369-.3l0,0q-.172-.136-.349-.266l-.072-.053q-.148-.109-.3-.214l-.077-.054q-.175-.12-.353-.237l-.018-.012q-.195-.126-.394-.247l-.045-.027q-.168-.1-.338-.2l-.1-.056q-.151-.084-.3-.166l-.1-.053q-.183-.1-.368-.187l-.031-.015q-.205-.1-.414-.194l-.083-.037q-.163-.072-.328-.141l-.125-.051q-.152-.062-.306-.121l-.121-.046q-.192-.072-.386-.139l-.038-.013q-.215-.073-.433-.14l-.114-.034q-.161-.048-.323-.094l-.145-.039q-.156-.042-.312-.08l-.136-.033q-.206-.049-.414-.092l-.033-.007c-.149-.031-.3-.059-.451-.085l-.136-.022q-.162-.027-.324-.051l-.159-.022q-.161-.022-.323-.04l-.144-.016c-.154-.016-.309-.031-.464-.043h0Z" transform="translate(-613.447 -323.903)" opacity="0.48" fill="url(#a)" style="mix-blend-mode:multiply;isolation:isolate"/><ellipse cx="6.84" cy="6.84" rx="6.84" ry="6.84" transform="translate(9.142 8.867)" fill="#cbcbd3"/></svg>