<svg xmlns="http://www.w3.org/2000/svg" width="126.86" height="33.481" viewBox="0 0 126.86 33.481"><g transform="translate(16.741 1.747)"><path d="M464.125,478.222c-.018-.042-.038-.083-.057-.125C464.087,478.138,464.106,478.18,464.125,478.222Z" transform="translate(-455.487 -467.024)" fill="#2b64ad"/><path d="M466.562,484c-.014-.037-.029-.074-.044-.111C466.532,483.925,466.548,483.961,466.562,484Z" transform="translate(-457.726 -472.315)" fill="#2b64ad"/><path d="M461.472,472.8l-.054-.1Z" transform="translate(-453.067 -462.087)" fill="#2b64ad"/><path d="M470.681,496.918c-.01-.045-.02-.09-.031-.134C470.661,496.828,470.67,496.873,470.681,496.918Z" transform="translate(-461.5 -484.096)" fill="#2b64ad"/><path d="M447.251,451.989l-.043-.05Z" transform="translate(-440.085 -443.128)" fill="#2b64ad"/><path d="M471.982,502.878c-.01-.06-.021-.12-.032-.18C471.961,502.758,471.972,502.818,471.982,502.878Z" transform="translate(-462.688 -489.498)" fill="#2b64ad"/><path d="M458.546,467.561l-.017-.029Z" transform="translate(-450.427 -457.373)" fill="#2b64ad"/><path d="M451.3,456.927l-.023-.03Z" transform="translate(-443.798 -447.657)" fill="#2b64ad"/><path d="M443.106,447.466l.027.029Z" transform="translate(-436.338 -439.041)" fill="#2b64ad"/><path d="M370.361,357.381l3.269-4.5a15.024,15.024,0,0,0-8.814-2.863v5.559a9.391,9.391,0,0,1,5.545,1.8Z" transform="translate(-364.817 -350.019)" fill="#2b64ad"/><path d="M473.621,515.419c0-.057-.009-.113-.013-.169C473.612,515.306,473.618,515.362,473.621,515.419Z" transform="translate(-464.203 -500.965)" fill="#2b64ad"/><path d="M472.963,508.992c-.007-.063-.016-.126-.024-.19C472.947,508.865,472.956,508.928,472.963,508.992Z" transform="translate(-463.591 -495.075)" fill="#2b64ad"/></g><path d="M195.553,352.1a9.435,9.435,0,1,1-7.633-14.98h0v-7.306a16.821,16.821,0,0,0-10.081,3.376l-.03.022a16.709,16.709,0,0,0-3.916,4.212l-.014.021-.084.13a16.64,16.64,0,0,0-2.4,6.3l-.01.061-.01.063a16.638,16.638,0,0,0,.336,6.73q.019.076.04.151l.006.023a16.7,16.7,0,0,0,2.609,5.478l.01.013v0a16.7,16.7,0,0,0,4.413,4.185l.019.012.133.085a16.637,16.637,0,0,0,6.3,2.4l.062.01.062.009a16.637,16.637,0,0,0,6.731-.335l.15-.04.024-.006a16.666,16.666,0,0,0,9.191-6.325Z" transform="translate(-171.18 -329.809)" fill="#1d96d4"/><g transform="translate(22.285 4.04)"><path d="M432.632,376.545l-3.683,5.069a9.43,9.43,0,0,1,2.088,13.177h0l5.069,3.683.086-.12.017-.024.062-.088.057-.082.039-.058.076-.112.028-.042.084-.127.022-.034.086-.133.021-.033.084-.134.022-.036.079-.13.025-.042.072-.123.03-.051.064-.111.036-.064.054-.1.044-.08.042-.077.054-.1.028-.053.065-.125.012-.023A15.7,15.7,0,0,0,432.632,376.545Z" transform="translate(-428.949 -376.545)" fill="#0d457c"/></g><path d="M405.788,522.685l0,.007h0l0-.007Z" transform="translate(-385.502 -506.01)" fill="none"/><path d="M404.523,522.718l.109-.022,0-.007Z" transform="translate(-384.35 -506.014)" fill="#4d0087"/><path d="M405.65,522.789a.083.083,0,0,0,.013-.022h0Z" transform="translate(-385.379 -506.085)" fill="#4d0087"/><path d="M405.847,522.247l-.02.038h0Z" transform="translate(-385.541 -505.61)" fill="#4d0087"/><path d="M283.19,443.051v-7.51a7.6,7.6,0,1,0,6.152,12.06Z" transform="translate(-266.563 -426.4)" fill="#cbcbd3"/><g transform="translate(36.316 7.358)"><path d="M600.824,511.852l-.8-2.513H595.65l-.819,2.513h-3.592l5.025-13.755H599.5l4.9,13.755Zm-1.638-5.528-1.3-4.076-1.359,4.076Z" transform="translate(-591.239 -496.907)" fill="#78768c"/><path d="M756.357,545.68V535.406h3.2v1.433a3.591,3.591,0,0,1,3.22-1.712,3.952,3.952,0,0,1,2.81,1.1,4.16,4.16,0,0,1,1.154,3.146v6.31h-3.294v-5.435c0-1.34-.689-2.122-1.805-2.122a2,2,0,0,0-2.01,2.215v5.342Z" transform="translate(-742.082 -530.735)" fill="#78768c"/><path d="M901.977,535.6h3.09v10.274h-3.09v-.893a4.343,4.343,0,0,1-3.034,1.154,4.653,4.653,0,0,1-3.611-1.563,5.518,5.518,0,0,1-1.414-3.871,5.364,5.364,0,0,1,1.414-3.834,4.712,4.712,0,0,1,3.611-1.526,4.214,4.214,0,0,1,3.034,1.191Zm-.726,3.443a2.3,2.3,0,0,0-1.694-.707,2.246,2.246,0,0,0-1.694.707,2.333,2.333,0,0,0-.67,1.675,2.389,2.389,0,0,0,.67,1.712,2.382,2.382,0,0,0,3.388,0,2.33,2.33,0,0,0,.689-1.712A2.276,2.276,0,0,0,901.251,539.047Z" transform="translate(-867.75 -530.932)" fill="#78768c"/><path d="M1050.254,507.133h-3.276v-14.2h3.276Z" transform="translate(-1007.578 -492.187)" fill="#78768c"/><path d="M1105.644,538.357h3.555l-3.983,10.293c-1.117,2.848-2.587,4.355-4.97,4.355a4.05,4.05,0,0,1-2.215-.577l.633-2.7a2.887,2.887,0,0,0,1.34.354,2.247,2.247,0,0,0,1.973-1.489l.056-.13-4.467-10.106h3.778l2.271,5.9Z" transform="translate(-1053.792 -533.685)" fill="#78768c"/><path d="M1246.15,509.506a6.355,6.355,0,0,1-3.276.838c-2.55,0-3.816-1.415-3.816-4.244v-3.574h-1.563v-2.717h1.6v-3.648h3.257v3.648h3.22v2.717h-3.22v3.183c0,1.1.428,1.638,1.3,1.638a3.488,3.488,0,0,0,1.619-.465Z" transform="translate(-1181.624 -495.137)" fill="#78768c"/><path d="M1348.147,486.181a1.889,1.889,0,1,1,1.9,1.9A1.852,1.852,0,0,1,1348.147,486.181Zm3.555,13.084h-3.294V488.992h3.294Z" transform="translate(-1282.709 -484.32)" fill="#78768c"/><path d="M1408.425,544.593a5.231,5.231,0,0,1-1.508-3.871,5.174,5.174,0,0,1,1.526-3.871,5.434,5.434,0,0,1,3.983-1.508,5.154,5.154,0,0,1,4.9,3l-2.624,1.377a2.438,2.438,0,0,0-2.2-1.321,2.285,2.285,0,0,0-1.694.67,2.319,2.319,0,0,0-.652,1.656,2.275,2.275,0,0,0,2.308,2.364,2.411,2.411,0,0,0,2.2-1.321l2.624,1.563a5.812,5.812,0,0,1-8.859,1.266Z" transform="translate(-1336.399 -530.932)" fill="#78768c"/><path d="M1534.791,543.8l1.47-2.215a4.651,4.651,0,0,0,3.071,1.284c.726,0,1.1-.223,1.1-.651,0-.242-.186-.428-.558-.577-.056-.019-.428-.13-1.135-.372-.689-.242-1.172-.41-1.415-.521a2.925,2.925,0,0,1-1.917-2.792,2.841,2.841,0,0,1,1.154-2.345,4.808,4.808,0,0,1,3.09-.912,5.872,5.872,0,0,1,3.834,1.34l-1.415,2.159a4.451,4.451,0,0,0-2.475-.875c-.54,0-.931.26-.931.577,0,.335.316.577.931.745a13.441,13.441,0,0,1,2.42.893,2.669,2.669,0,0,1,1.75,2.606,3.04,3.04,0,0,1-1.191,2.475,5.025,5.025,0,0,1-3.22.949A6.4,6.4,0,0,1,1534.791,543.8Z" transform="translate(-1453.218 -530.342)" fill="#78768c"/></g></svg>