<svg xmlns="http://www.w3.org/2000/svg" xmlns:xlink="http://www.w3.org/1999/xlink" width="119.426" height="35.232" viewBox="0 0 119.426 35.232"><defs><linearGradient id="a" x1="-16.908" y1="5.438" x2="-16.114" y2="4.695" gradientUnits="objectBoundingBox"><stop offset="0.073" stop-color="#0a478b"/><stop offset="0.506" stop-color="#16c" stop-opacity="0.749"/><stop offset="0.995" stop-color="#fff" stop-opacity="0"/></linearGradient></defs><path d="M398.734,368.071v-.008s0-.006,0-.009a17.021,17.021,0,0,0-15.686-18.243l-.059,0-.03,0c-.03,0-.06,0-.09,0a17.018,17.018,0,0,0-18.079,15.677v.017a17.021,17.021,0,1,0,33.944,2.575Zm-19.4,9.177-.045-.011c-.155-.037-.31-.076-.463-.119l-.091-.027c-.138-.04-.275-.083-.412-.129l-.1-.036c-.132-.046-.264-.094-.395-.145l-.093-.038c-.133-.054-.266-.11-.4-.169l-.071-.033c-.138-.063-.275-.129-.41-.2l-.041-.021q-.215-.112-.427-.233l-.01-.006a10.744,10.744,0,0,1-4.413-4.888l-.012-.025c-.064-.142-.123-.285-.18-.43l-.025-.061c-.052-.133-.1-.267-.146-.4-.012-.034-.024-.068-.035-.1-.041-.123-.079-.247-.115-.371-.014-.047-.028-.094-.041-.141-.032-.114-.06-.229-.088-.344-.014-.058-.029-.115-.042-.174-.024-.108-.046-.217-.066-.326-.013-.065-.026-.13-.037-.2-.018-.107-.034-.215-.049-.323-.009-.066-.02-.132-.028-.2-.014-.115-.025-.23-.035-.345-.005-.059-.012-.118-.016-.177-.01-.137-.016-.274-.021-.41,0-.038,0-.075,0-.113a10.8,10.8,0,0,1,.165-2.164c.007-.039.016-.077.023-.116.025-.132.051-.264.081-.4.014-.06.03-.12.045-.18.027-.109.054-.218.085-.326.019-.069.041-.137.061-.2.03-.1.06-.2.093-.3.023-.069.048-.137.072-.2.035-.1.07-.2.108-.292.025-.063.051-.126.077-.188.042-.1.084-.2.129-.3.024-.054.05-.108.075-.161.05-.107.1-.214.155-.32.022-.044.046-.086.068-.129.06-.114.121-.227.186-.339l.058-.1c.07-.119.142-.238.218-.355l.048-.072c.08-.122.162-.244.248-.364l.039-.053c.089-.123.18-.245.275-.364l.036-.044c.1-.12.194-.239.3-.356l.038-.041c.1-.115.206-.23.313-.341l.038-.038c.225-.232.461-.457.71-.671s.519-.423.788-.614l.031-.023c.127-.09.257-.175.387-.259l.046-.03c.13-.083.261-.161.394-.237l.052-.031c.13-.074.262-.144.394-.212l.068-.035c.128-.065.256-.125.386-.184l.091-.042c.122-.054.246-.105.369-.155l.121-.049c.115-.044.23-.085.345-.126l.157-.055c.106-.035.212-.067.318-.1.064-.019.128-.039.193-.057.1-.027.2-.051.293-.075.074-.018.148-.037.223-.054.092-.02.184-.038.277-.056s.161-.032.242-.046.183-.028.274-.042.163-.025.245-.034c.1-.012.2-.021.3-.03.074-.007.148-.015.223-.02.12-.009.24-.014.36-.018.054,0,.108-.006.162-.007q.259-.006.518,0h.007a10.8,10.8,0,0,1,1.623.163c.046.008.091.018.137.027.126.024.252.049.377.077.065.015.128.032.192.048.105.026.211.052.316.081.071.02.14.042.21.063.1.03.2.059.293.092.069.023.136.048.2.072.1.035.2.07.3.108.061.024.12.049.18.074.1.043.209.086.312.133l.146.068c.113.053.226.107.337.163l.107.057c.122.064.243.13.363.2l.068.041c.13.076.259.154.386.236l.034.022q.2.132.4.274l0,0a10.745,10.745,0,0,1,3.75,4.811l.006.014q.088.226.166.455l.016.046c.048.144.093.289.135.435.007.025.015.05.022.075.039.139.074.278.107.418.008.033.016.065.024.1.031.137.059.274.084.412.007.036.014.071.02.107.025.142.046.284.065.426,0,.032.009.063.013.095.02.157.035.314.048.471,0,.017,0,.033,0,.05a10.8,10.8,0,0,1-.246,3.253l-.008.034q-.056.239-.123.475c-.007.025-.015.05-.022.075-.042.144-.086.287-.134.43-.009.028-.02.055-.029.083-.048.14-.1.279-.153.417l-.028.069q-.086.213-.18.424l-.019.041q-.1.223-.214.441l0,.007a10.745,10.745,0,0,1-6.129,5.262h0q-.236.079-.475.147l-.036.011q-.226.063-.454.116l-.064.015c-.148.034-.3.063-.444.091l-.077.015c-.152.027-.3.049-.456.069l-.066.009q-.251.031-.5.051l-.021,0A10.8,10.8,0,0,1,379.336,377.249Z" transform="translate(-364.74 -349.766)" fill="#1d96d4"/><path d="M562.019,368.484s0-.006,0-.009a17.021,17.021,0,0,0-15.685-18.243v0a3.137,3.137,0,0,1-.474,6.253v0a10.741,10.741,0,0,1,9.9,11.514h0a3.14,3.14,0,0,0,6.262.475Z" transform="translate(-528.025 -350.186)" opacity="0.48" fill="url(#a)" style="mix-blend-mode:multiply;isolation:isolate"/><g transform="translate(39.341 14.097)"><path d="M775.188,513.764l-.911-2.862H769.3l-.933,2.862h-4.091l5.724-15.666h3.689l5.575,15.666Zm-1.865-6.3-1.484-4.643-1.547,4.643Z" transform="translate(-764.271 -497.589)" fill="#78768c"/><path d="M929.389,509.106V492.932h3.646v6.063a4.2,4.2,0,0,1,3.667-1.908,4.5,4.5,0,0,1,3.2,1.251,4.737,4.737,0,0,1,1.314,3.583v7.186h-3.752v-6.19c0-1.526-.784-2.417-2.056-2.417a2.276,2.276,0,0,0-2.289,2.5v6.105Z" transform="translate(-913.13 -492.932)" fill="#78768c"/><path d="M1075.979,535.64h3.371v10.578a5.628,5.628,0,0,1-1.887,4.43,6.947,6.947,0,0,1-4.77,1.654,9.115,9.115,0,0,1-5.533-1.76l1.357-2.735a7.3,7.3,0,0,0,4.028,1.336c2.1,0,3.244-1.145,3.244-2.692V546.2a4.531,4.531,0,0,1-3.265,1.166,5.494,5.494,0,0,1-4.2-1.675,6,6,0,0,1-1.59-4.3,5.894,5.894,0,0,1,1.7-4.367,5.767,5.767,0,0,1,4.261-1.675,4.6,4.6,0,0,1,3.286,1.272Zm-2.819,3.137a2.561,2.561,0,0,0-2.65,2.65,2.651,2.651,0,1,0,5.3,0A2.573,2.573,0,0,0,1073.159,538.777Z" transform="translate(-1036.953 -531.167)" fill="#78768c"/><path d="M1214.886,545.49a6.352,6.352,0,0,1,0-8.776,6.773,6.773,0,0,1,9.2,0,6.3,6.3,0,0,1,0,8.776,6.832,6.832,0,0,1-9.2,0Zm6.487-2.48a2.672,2.672,0,0,0,.763-1.929,2.642,2.642,0,0,0-2.65-2.65,2.466,2.466,0,0,0-1.865.784,2.526,2.526,0,0,0-.763,1.865,2.671,2.671,0,0,0,.763,1.929,2.526,2.526,0,0,0,1.865.763A2.574,2.574,0,0,0,1221.373,543.01Z" transform="translate(-1168.929 -530.778)" fill="#78768c"/><path d="M1361.022,547.147v-11.7h3.583v1.441a3.607,3.607,0,0,1,4.579-1.441l-.3,3.561a4.684,4.684,0,0,0-1.548-.276c-1.717,0-2.586,1.124-2.586,3.371v5.045Z" transform="translate(-1302.262 -530.972)" fill="#78768c"/><path d="M1457.821,535.64h3.519v11.7h-3.519v-1.018a4.946,4.946,0,0,1-3.456,1.314,5.3,5.3,0,0,1-4.113-1.781,6.285,6.285,0,0,1-1.611-4.409,6.11,6.11,0,0,1,1.611-4.367,5.367,5.367,0,0,1,4.113-1.738,4.8,4.8,0,0,1,3.456,1.357Zm-.827,3.922a2.625,2.625,0,0,0-1.929-.805,2.559,2.559,0,0,0-1.929.805,2.657,2.657,0,0,0-.763,1.908,2.72,2.72,0,0,0,.763,1.95,2.713,2.713,0,0,0,3.858,0,2.654,2.654,0,0,0,.784-1.95A2.592,2.592,0,0,0,1456.994,539.561Z" transform="translate(-1381.254 -531.167)" fill="#78768c"/></g><g transform="translate(41.482 2.301)"><path d="M786.023,380.989v-7.853h.287l3.454,5.08,3.422-5.08h.3v7.853h-.648v-6.249l-3,4.442h-.159l-3.007-4.431v6.238Z" transform="translate(-786.023 -373.136)" fill="#78768c"/><path d="M879.111,395.152h.7l-2.4,6.111c-.563,1.445-1.084,1.987-1.945,1.987a1.64,1.64,0,0,1-.818-.2l.1-.563a1.687,1.687,0,0,0,.7.17c.6,0,.988-.489,1.36-1.456l.138-.361-2.423-5.685h.7l2.03,4.857Z" transform="translate(-865.806 -392.984)" fill="#78768c"/></g><g transform="translate(12.096 9.392)"><path d="M492.511,445.148a4.925,4.925,0,1,0,4.925,4.925A4.931,4.931,0,0,0,492.511,445.148Z" transform="translate(-487.586 -445.148)" fill="#cbcbd3"/></g><path d="M474.219,562.416a9.4,9.4,0,0,0,6.923-3.028,7.327,7.327,0,0,0-.8-.961,7.021,7.021,0,0,0-5.033-2.123h-2.189a7.021,7.021,0,0,0-5.033,2.123,7.336,7.336,0,0,0-.8.961A9.4,9.4,0,0,0,474.219,562.416Z" transform="translate(-457.197 -535.966)" fill="#cbcbd3"/><path d="M398.734,368.071v-.008s0-.006,0-.009a17.021,17.021,0,0,0-15.686-18.243l-.059,0-.03,0c-.03,0-.06,0-.09,0a17.018,17.018,0,0,0-18.079,15.677v.017a17.021,17.021,0,1,0,33.944,2.575Zm-19.4,9.177-.045-.011c-.155-.037-.31-.076-.463-.119l-.091-.027c-.138-.04-.275-.083-.412-.129l-.1-.036c-.132-.046-.264-.094-.395-.145l-.093-.038c-.133-.054-.266-.11-.4-.169l-.071-.033c-.138-.063-.275-.129-.41-.2l-.041-.021q-.215-.112-.427-.233l-.01-.006a10.744,10.744,0,0,1-4.413-4.888l-.012-.025c-.064-.142-.123-.285-.18-.43l-.025-.061c-.052-.133-.1-.267-.146-.4-.012-.034-.024-.068-.035-.1-.041-.123-.079-.247-.115-.371-.014-.047-.028-.094-.041-.141-.032-.114-.06-.229-.088-.344-.014-.058-.029-.115-.042-.174-.024-.108-.046-.217-.066-.326-.013-.065-.026-.13-.037-.2-.018-.107-.034-.215-.049-.323-.009-.066-.02-.132-.028-.2-.014-.115-.025-.23-.035-.345-.005-.059-.012-.118-.016-.177-.01-.137-.016-.274-.021-.41,0-.038,0-.075,0-.113a10.8,10.8,0,0,1,.165-2.164c.007-.039.016-.077.023-.116.025-.132.051-.264.081-.4.014-.06.03-.12.045-.18.027-.109.054-.218.085-.326.019-.069.041-.137.061-.2.03-.1.06-.2.093-.3.023-.069.048-.137.072-.2.035-.1.07-.2.108-.292.025-.063.051-.126.077-.188.042-.1.084-.2.129-.3.024-.054.05-.108.075-.161.05-.107.1-.214.155-.32.022-.044.046-.086.068-.129.06-.114.121-.227.186-.339l.058-.1c.07-.119.142-.238.218-.355l.048-.072c.08-.122.162-.244.248-.364l.039-.053c.089-.123.18-.245.275-.364l.036-.044c.1-.12.194-.239.3-.356l.038-.041c.1-.115.206-.23.313-.341l.038-.038c.225-.232.461-.457.71-.671s.519-.423.788-.614l.031-.023c.127-.09.257-.175.387-.259l.046-.03c.13-.083.261-.161.394-.237l.052-.031c.13-.074.262-.144.394-.212l.068-.035c.128-.065.256-.125.386-.184l.091-.042c.122-.054.246-.105.369-.155l.121-.049c.115-.044.23-.085.345-.126l.157-.055c.106-.035.212-.067.318-.1.064-.019.128-.039.193-.057.1-.027.2-.051.293-.075.074-.018.148-.037.223-.054.092-.02.184-.038.277-.056s.161-.032.242-.046.183-.028.274-.042.163-.025.245-.034c.1-.012.2-.021.3-.03.074-.007.148-.015.223-.02.12-.009.24-.014.36-.018.054,0,.108-.006.162-.007q.259-.006.518,0h.007a10.8,10.8,0,0,1,1.623.163c.046.008.091.018.137.027.126.024.252.049.377.077.065.015.128.032.192.048.105.026.211.052.316.081.071.02.14.042.21.063.1.03.2.059.293.092.069.023.136.048.2.072.1.035.2.07.3.108.061.024.12.049.18.074.1.043.209.086.312.133l.146.068c.113.053.226.107.337.163l.107.057c.122.064.243.13.363.2l.068.041c.13.076.259.154.386.236l.034.022q.2.132.4.274l0,0a10.745,10.745,0,0,1,3.75,4.811l.006.014q.088.226.166.455l.016.046c.048.144.093.289.135.435.007.025.015.05.022.075.039.139.074.278.107.418.008.033.016.065.024.1.031.137.059.274.084.412.007.036.014.071.02.107.025.142.046.284.065.426,0,.032.009.063.013.095.02.157.035.314.048.471,0,.017,0,.033,0,.05a10.8,10.8,0,0,1-.246,3.253l-.008.034q-.056.239-.123.475c-.007.025-.015.05-.022.075-.042.144-.086.287-.134.43-.009.028-.02.055-.029.083-.048.14-.1.279-.153.417l-.028.069q-.086.213-.18.424l-.019.041q-.1.223-.214.441l0,.007a10.745,10.745,0,0,1-6.129,5.262h0q-.236.079-.475.147l-.036.011q-.226.063-.454.116l-.064.015c-.148.034-.3.063-.444.091l-.077.015c-.152.027-.3.049-.456.069l-.066.009q-.251.031-.5.051l-.021,0A10.8,10.8,0,0,1,379.336,377.249Z" transform="translate(-364.74 -349.766)" fill="#1d96d4"/><path d="M562.019,368.484s0-.006,0-.009a17.021,17.021,0,0,0-15.685-18.243v0a3.137,3.137,0,0,1-.474,6.253v0a10.741,10.741,0,0,1,9.9,11.514h0a3.14,3.14,0,0,0,6.262.475Z" transform="translate(-528.025 -350.186)" opacity="0.48" fill="url(#a)" style="mix-blend-mode:multiply;isolation:isolate"/><g transform="translate(39.341 14.097)"><path d="M775.188,513.764l-.911-2.862H769.3l-.933,2.862h-4.091l5.724-15.666h3.689l5.575,15.666Zm-1.865-6.3-1.484-4.643-1.547,4.643Z" transform="translate(-764.271 -497.589)" fill="#78768c"/><path d="M929.389,509.106V492.932h3.646v6.063a4.2,4.2,0,0,1,3.667-1.908,4.5,4.5,0,0,1,3.2,1.251,4.737,4.737,0,0,1,1.314,3.583v7.186h-3.752v-6.19c0-1.526-.784-2.417-2.056-2.417a2.276,2.276,0,0,0-2.289,2.5v6.105Z" transform="translate(-913.13 -492.932)" fill="#78768c"/><path d="M1075.979,535.64h3.371v10.578a5.628,5.628,0,0,1-1.887,4.43,6.947,6.947,0,0,1-4.77,1.654,9.115,9.115,0,0,1-5.533-1.76l1.357-2.735a7.3,7.3,0,0,0,4.028,1.336c2.1,0,3.244-1.145,3.244-2.692V546.2a4.531,4.531,0,0,1-3.265,1.166,5.494,5.494,0,0,1-4.2-1.675,6,6,0,0,1-1.59-4.3,5.894,5.894,0,0,1,1.7-4.367,5.767,5.767,0,0,1,4.261-1.675,4.6,4.6,0,0,1,3.286,1.272Zm-2.819,3.137a2.561,2.561,0,0,0-2.65,2.65,2.651,2.651,0,1,0,5.3,0A2.573,2.573,0,0,0,1073.159,538.777Z" transform="translate(-1036.953 -531.167)" fill="#78768c"/><path d="M1214.886,545.49a6.352,6.352,0,0,1,0-8.776,6.773,6.773,0,0,1,9.2,0,6.3,6.3,0,0,1,0,8.776,6.832,6.832,0,0,1-9.2,0Zm6.487-2.48a2.672,2.672,0,0,0,.763-1.929,2.642,2.642,0,0,0-2.65-2.65,2.466,2.466,0,0,0-1.865.784,2.526,2.526,0,0,0-.763,1.865,2.671,2.671,0,0,0,.763,1.929,2.526,2.526,0,0,0,1.865.763A2.574,2.574,0,0,0,1221.373,543.01Z" transform="translate(-1168.929 -530.778)" fill="#78768c"/><path d="M1361.022,547.147v-11.7h3.583v1.441a3.607,3.607,0,0,1,4.579-1.441l-.3,3.561a4.684,4.684,0,0,0-1.548-.276c-1.717,0-2.586,1.124-2.586,3.371v5.045Z" transform="translate(-1302.262 -530.972)" fill="#78768c"/><path d="M1457.821,535.64h3.519v11.7h-3.519v-1.018a4.946,4.946,0,0,1-3.456,1.314,5.3,5.3,0,0,1-4.113-1.781,6.285,6.285,0,0,1-1.611-4.409,6.11,6.11,0,0,1,1.611-4.367,5.367,5.367,0,0,1,4.113-1.738,4.8,4.8,0,0,1,3.456,1.357Zm-.827,3.922a2.625,2.625,0,0,0-1.929-.805,2.559,2.559,0,0,0-1.929.805,2.657,2.657,0,0,0-.763,1.908,2.72,2.72,0,0,0,.763,1.95,2.713,2.713,0,0,0,3.858,0,2.654,2.654,0,0,0,.784-1.95A2.592,2.592,0,0,0,1456.994,539.561Z" transform="translate(-1381.254 -531.167)" fill="#78768c"/></g><g transform="translate(41.482 2.301)"><path d="M786.023,380.989v-7.853h.287l3.454,5.08,3.422-5.08h.3v7.853h-.648v-6.249l-3,4.442h-.159l-3.007-4.431v6.238Z" transform="translate(-786.023 -373.136)" fill="#78768c"/><path d="M879.111,395.152h.7l-2.4,6.111c-.563,1.445-1.084,1.987-1.945,1.987a1.64,1.64,0,0,1-.818-.2l.1-.563a1.687,1.687,0,0,0,.7.17c.6,0,.988-.489,1.36-1.456l.138-.361-2.423-5.685h.7l2.03,4.857Z" transform="translate(-865.806 -392.984)" fill="#78768c"/></g></svg>