<svg xmlns="http://www.w3.org/2000/svg" width="161.107" height="34.04" viewBox="0 0 161.107 34.04"><path d="M163.357,366.279v-.008s0-.006,0-.009a17.021,17.021,0,0,0-15.685-18.243l-.059,0-.03,0c-.03,0-.059,0-.09,0a17.018,17.018,0,0,0-18.08,15.677v.017a17.021,17.021,0,1,0,33.944,2.575Zm-19.4,9.177-.045-.011q-.233-.055-.463-.119l-.091-.027c-.138-.04-.276-.083-.412-.129l-.1-.036c-.132-.046-.264-.094-.395-.145l-.093-.038c-.133-.054-.266-.11-.4-.169l-.071-.033c-.138-.063-.275-.129-.41-.2l-.041-.021q-.215-.112-.427-.233l-.01-.006a10.744,10.744,0,0,1-4.413-4.888l-.012-.025c-.064-.142-.123-.285-.18-.43l-.025-.061c-.052-.133-.1-.267-.146-.4-.012-.034-.024-.068-.035-.1-.041-.123-.079-.247-.115-.371-.014-.047-.028-.094-.041-.141-.032-.114-.06-.229-.088-.344-.014-.058-.029-.115-.042-.174-.024-.108-.045-.217-.066-.326-.013-.065-.026-.13-.037-.2-.019-.107-.034-.215-.049-.323-.009-.066-.02-.132-.028-.2-.014-.115-.025-.23-.035-.345-.005-.059-.012-.118-.016-.177-.01-.137-.016-.273-.021-.41,0-.038,0-.075,0-.113a10.806,10.806,0,0,1,.165-2.164c.007-.039.016-.077.023-.116.025-.132.051-.264.081-.4.014-.06.03-.12.045-.18.027-.109.054-.218.084-.326.019-.069.041-.137.061-.2.03-.1.06-.2.093-.3.023-.069.048-.137.072-.2.035-.1.07-.2.108-.292.025-.063.051-.126.077-.188.042-.1.084-.2.129-.3.024-.054.05-.108.075-.161.05-.107.1-.214.155-.32.022-.044.045-.086.068-.129.06-.114.121-.227.186-.339l.058-.1c.07-.12.142-.238.218-.355l.048-.072c.08-.123.162-.244.248-.364l.039-.053c.089-.123.18-.245.275-.364l.036-.044c.1-.12.194-.239.3-.356l.038-.042c.1-.115.206-.23.313-.341l.038-.038c.225-.232.461-.457.71-.671s.519-.423.788-.614l.031-.023c.127-.09.257-.175.387-.259l.046-.03c.13-.082.261-.161.394-.237l.052-.031c.13-.074.262-.144.394-.212l.068-.035c.128-.065.256-.125.386-.184l.091-.042c.122-.054.246-.105.369-.155l.121-.049c.115-.044.23-.086.346-.126l.157-.054c.106-.035.212-.067.318-.1.064-.019.128-.039.193-.057.1-.027.2-.051.293-.075.074-.018.148-.037.223-.054.092-.021.184-.038.277-.056s.161-.032.242-.046.183-.028.274-.042.163-.024.245-.034c.1-.012.2-.021.3-.03.074-.007.148-.015.223-.02.12-.009.24-.013.36-.018.054,0,.108-.006.162-.007q.259-.006.518,0h.007a10.812,10.812,0,0,1,1.623.163l.136.027c.126.024.252.049.377.077.065.015.128.032.192.048.105.026.211.052.316.081.07.02.14.042.21.063.1.03.2.059.293.092.069.023.136.048.2.072.1.035.2.07.3.109.061.024.12.049.18.074.1.043.209.086.312.133l.146.068c.113.053.226.106.337.163l.107.057c.122.064.243.129.363.2l.068.041c.13.076.259.154.386.236l.034.022q.2.132.4.274l0,0a10.744,10.744,0,0,1,3.75,4.811l.006.014q.088.226.166.455l.016.046c.048.144.093.289.135.435.007.025.015.05.022.075.039.139.074.278.107.418.008.033.016.065.024.1.031.137.059.274.084.412.007.036.014.071.02.107.025.142.046.284.065.426,0,.032.009.063.013.095.02.157.035.314.048.471,0,.017,0,.033,0,.05a10.8,10.8,0,0,1-.246,3.253l-.008.034q-.056.239-.123.475c-.007.025-.015.05-.022.075-.042.144-.086.287-.134.429-.009.028-.02.055-.029.083-.048.14-.1.279-.153.417l-.028.069q-.086.213-.18.424l-.019.041q-.1.223-.214.441l0,.007a10.745,10.745,0,0,1-6.129,5.262h0q-.236.079-.475.147l-.036.011c-.151.042-.3.081-.454.116l-.064.015c-.148.033-.3.063-.444.09l-.077.015c-.152.027-.3.049-.456.069l-.066.009q-.251.031-.5.051l-.021,0A10.8,10.8,0,0,1,143.959,375.456Z" transform="translate(-129.363 -347.973)" fill="#1d96d4"/><g transform="translate(39.75 8.507)"><path d="M533.054,509.191l1.993-2.9a6.146,6.146,0,0,0,4.452,1.971c.954,0,1.759-.4,1.759-1.145q0-.731-1.272-1.208l-1.4-.466a18.771,18.771,0,0,1-1.993-.806,4.486,4.486,0,0,1-.954-7.525,6.294,6.294,0,0,1,4.2-1.378,8.458,8.458,0,0,1,5.575,1.971l-1.844,3.01a6.418,6.418,0,0,0-3.667-1.293c-1.081,0-1.675.445-1.675,1.017,0,.466.424.848,1.251,1.166l1.378.509c.784.276,1.4.509,1.8.678a4.286,4.286,0,0,1,2.989,4.113,4.519,4.519,0,0,1-1.7,3.6,6.847,6.847,0,0,1-4.515,1.4A8.236,8.236,0,0,1,533.054,509.191Z" transform="translate(-533.054 -495.688)" fill="#78768c"/><path d="M696.859,536.18a4.53,4.53,0,0,1,1.42,3.625v7.144h-3.752v-6.4c0-1.463-.827-2.2-1.95-2.2a2.123,2.123,0,0,0-2.183,2.332v6.275h-3.731v-6.4a1.981,1.981,0,0,0-2.014-2.2,2.11,2.11,0,0,0-2.12,2.332v6.275H678.8v-11.7h3.646v1.632a4.1,4.1,0,0,1,3.625-1.972,3.325,3.325,0,0,1,3.243,1.95,5.294,5.294,0,0,1,7.547-.678Z" transform="translate(-664.447 -531.008)" fill="#78768c"/><path d="M903.256,535.64h3.519v11.7h-3.519v-1.018a4.945,4.945,0,0,1-3.455,1.314,5.3,5.3,0,0,1-4.113-1.781,6.285,6.285,0,0,1-1.611-4.409,6.11,6.11,0,0,1,1.611-4.367,5.367,5.367,0,0,1,4.113-1.738,4.8,4.8,0,0,1,3.455,1.357Zm-.827,3.922a2.626,2.626,0,0,0-1.929-.805,2.559,2.559,0,0,0-1.929.805,2.657,2.657,0,0,0-.763,1.908,2.721,2.721,0,0,0,.763,1.95,2.713,2.713,0,0,0,3.858,0,2.654,2.654,0,0,0,.784-1.95A2.592,2.592,0,0,0,902.429,539.561Z" transform="translate(-858.528 -531.4)" fill="#78768c"/><path d="M1047.137,547.147v-11.7h3.583v1.441a3.607,3.607,0,0,1,4.579-1.441l-.3,3.561a4.683,4.683,0,0,0-1.547-.276c-1.717,0-2.586,1.124-2.586,3.371v5.045Z" transform="translate(-996.517 -531.205)" fill="#78768c"/><path d="M1147.41,511.36a7.239,7.239,0,0,1-3.731.954c-2.9,0-4.346-1.611-4.346-4.833v-4.07h-1.781v-3.095h1.823v-4.155h3.71v4.155h3.667v3.095h-3.667v3.625c0,1.251.488,1.866,1.484,1.866a3.972,3.972,0,0,0,1.844-.53Z" transform="translate(-1078.03 -496.076)" fill="#78768c"/><path d="M1251.55,509.185a7.9,7.9,0,0,1-2.268-5.766,7.687,7.687,0,0,1,2.374-5.808,7.918,7.918,0,0,1,5.745-2.311,8.847,8.847,0,0,1,3.71.805,7.573,7.573,0,0,1,2.819,2.1l-.933.848a7.315,7.315,0,0,0-5.6-2.5,6.7,6.7,0,0,0-6.8,6.868,6.7,6.7,0,0,0,1.908,4.9,6.422,6.422,0,0,0,4.791,1.929,7.928,7.928,0,0,0,5.83-2.586v-3.667h-6.254v-1.208h7.5v5.363a9.014,9.014,0,0,1-7.1,3.328A7.7,7.7,0,0,1,1251.55,509.185Z" transform="translate(-1178.757 -495.3)" fill="#78768c"/><path d="M1434.411,539.494h1.229v11.341h-1.229v-2.2a5.168,5.168,0,0,1-4.473,2.48,5.3,5.3,0,0,1-4.028-1.717,6.044,6.044,0,0,1-1.611-4.282,5.879,5.879,0,0,1,1.59-4.2,5.376,5.376,0,0,1,4.049-1.7,5.149,5.149,0,0,1,4.473,2.459Zm-1.166,9.052a4.919,4.919,0,0,0,1.272-3.434,4.748,4.748,0,0,0-1.272-3.349,4.244,4.244,0,0,0-3.244-1.378,4.153,4.153,0,0,0-3.2,1.378,5.322,5.322,0,0,0,0,6.8,4.433,4.433,0,0,0,6.444-.021Z" transform="translate(-1336.541 -534.894)" fill="#78768c"/><path d="M1568.36,515.955a4.667,4.667,0,0,1-3.01.975c-2.268,0-3.413-1.484-3.413-3.964v-6.508h-2.014v-1.124h2.035v-4.006h1.251v4.006h4.664v1.124h-4.664v6.55c0,1.844.742,2.756,2.247,2.756a3.894,3.894,0,0,0,2.374-.784Z" transform="translate(-1458.81 -500.734)" fill="#78768c"/><path d="M1665.5,545.662h-9.539a4.291,4.291,0,0,0,4.6,4.24,7.059,7.059,0,0,0,4.155-1.357l.594.975a8.062,8.062,0,0,1-4.77,1.569c-4.176,0-5.893-2.989-5.893-5.957a5.973,5.973,0,0,1,1.548-4.24,5.292,5.292,0,0,1,4.091-1.675,5.1,5.1,0,0,1,3.773,1.484,5.288,5.288,0,0,1,1.505,3.964C1665.563,544.815,1665.542,545.154,1665.5,545.662Zm-9.539-1.166h8.288a3.835,3.835,0,0,0-3.964-4.113A4.253,4.253,0,0,0,1655.96,544.5Z" transform="translate(-1544.206 -534.894)" fill="#78768c"/></g><g transform="translate(8.842 13.139)"><rect width="16.359" height="7.763" rx="3.881" fill="#cbcbd3"/><ellipse cx="3.165" cy="3.165" rx="3.165" ry="3.165" transform="translate(0.566 0.716)" fill="#fff"/></g></svg>