<svg xmlns="http://www.w3.org/2000/svg" xmlns:xlink="http://www.w3.org/1999/xlink" width="145.161" height="34.04" viewBox="0 0 145.161 34.04"><defs><linearGradient id="a" x1="-15.777" y1="6.241" x2="-14.984" y2="5.498" gradientUnits="objectBoundingBox"><stop offset="0.073" stop-color="#0a478b"/><stop offset="0.506" stop-color="#16c" stop-opacity="0.749"/><stop offset="0.995" stop-color="#fff" stop-opacity="0"/></linearGradient></defs><path d="M225.7,368.071v-.008s0-.006,0-.009a17.021,17.021,0,0,0-15.686-18.243l-.059,0-.03,0c-.03,0-.059,0-.089,0a17.018,17.018,0,0,0-18.08,15.677v.017a17.021,17.021,0,1,0,33.944,2.575Zm-19.4,9.177-.045-.011c-.155-.037-.31-.076-.463-.119l-.091-.027c-.138-.04-.276-.083-.412-.129l-.1-.036c-.132-.046-.264-.094-.395-.145l-.093-.038c-.133-.054-.266-.11-.4-.169l-.071-.033c-.138-.063-.275-.129-.41-.2l-.041-.021q-.216-.112-.427-.233l-.01-.006a10.744,10.744,0,0,1-4.413-4.888l-.012-.025c-.064-.142-.123-.285-.18-.43l-.025-.061c-.052-.133-.1-.267-.146-.4-.012-.034-.024-.068-.035-.1-.041-.123-.079-.247-.115-.371-.014-.047-.028-.094-.041-.141-.032-.114-.06-.229-.088-.344-.014-.058-.029-.115-.042-.174-.024-.108-.045-.217-.066-.326-.013-.065-.026-.13-.037-.2-.019-.107-.034-.215-.049-.323-.009-.066-.02-.132-.028-.2-.014-.115-.025-.23-.035-.345-.005-.059-.012-.118-.016-.177-.01-.137-.016-.274-.021-.41,0-.038,0-.075,0-.113a10.807,10.807,0,0,1,.165-2.164c.007-.039.016-.077.023-.116.025-.132.051-.264.081-.4.014-.06.03-.12.045-.18.027-.109.054-.218.084-.326.019-.069.041-.137.061-.2.03-.1.06-.2.093-.3.023-.069.048-.137.072-.2.035-.1.07-.2.108-.292.025-.063.051-.126.077-.188.042-.1.084-.2.129-.3.024-.054.05-.108.075-.161.05-.107.1-.214.155-.32.022-.044.046-.086.068-.129.06-.114.121-.227.186-.339l.058-.1c.07-.119.142-.238.218-.355l.048-.072c.08-.122.162-.244.248-.364l.039-.053c.089-.123.18-.245.275-.364l.036-.044c.1-.12.194-.239.3-.356l.038-.041c.1-.115.205-.23.313-.341l.038-.038c.225-.232.461-.457.71-.671s.519-.423.788-.614l.031-.023c.127-.09.257-.175.387-.259l.046-.03c.13-.083.261-.161.394-.237l.052-.031c.13-.074.262-.144.394-.212l.068-.035c.128-.065.256-.125.386-.184l.091-.042c.122-.054.246-.105.369-.155l.121-.049c.115-.044.23-.085.345-.126l.157-.055c.106-.035.212-.067.318-.1.064-.019.128-.039.193-.057.1-.027.2-.051.293-.075.074-.018.148-.037.223-.054.092-.02.184-.038.277-.056s.161-.032.242-.046.183-.028.274-.042.163-.025.245-.034c.1-.012.2-.021.3-.03.074-.007.148-.015.223-.02.12-.009.24-.014.36-.018.054,0,.108-.006.162-.007q.259-.006.518,0h.007a10.8,10.8,0,0,1,1.623.163l.136.027c.126.024.252.049.377.077.065.015.128.032.192.048.105.026.211.052.316.081.071.02.14.042.21.063.1.03.2.059.293.092.069.023.136.048.2.072.1.035.2.07.3.108.061.024.12.049.18.074.1.043.209.086.312.133l.146.068c.113.053.226.107.337.163l.107.057c.122.064.243.13.363.2l.068.041c.13.076.259.154.386.236l.034.022q.2.132.4.274l0,0a10.745,10.745,0,0,1,3.75,4.811l.006.014q.088.226.166.455l.016.046c.048.144.093.289.135.435.007.025.015.05.022.075.039.139.074.278.107.418.008.033.016.065.024.1.031.137.059.274.084.412.007.036.014.071.02.107.025.142.046.284.065.426,0,.032.009.063.013.095.02.157.035.314.048.471,0,.017,0,.033,0,.05a10.8,10.8,0,0,1-.246,3.253l-.008.034q-.056.239-.123.475c-.007.025-.015.05-.022.075-.042.144-.086.287-.134.43-.009.028-.02.055-.029.083-.048.14-.1.279-.153.417l-.028.069q-.086.213-.18.424l-.019.041q-.1.223-.214.441l0,.007a10.745,10.745,0,0,1-6.129,5.262h0q-.236.079-.475.147l-.036.011q-.226.063-.454.116l-.064.015c-.148.034-.3.063-.444.091l-.077.015c-.152.027-.3.049-.456.069l-.066.009q-.251.031-.5.051l-.021,0A10.8,10.8,0,0,1,206.3,377.249Z" transform="translate(-191.708 -349.766)" fill="#1d96d4"/><path d="M388.988,368.475a16.982,16.982,0,0,0-4.9-13.267q-.432-.435-.894-.838a16.979,16.979,0,0,0-4.521-2.834q-.576-.245-1.174-.448-.4-.135-.806-.251-.2-.058-.41-.111a17.133,17.133,0,0,0-2.983-.493v0a3.137,3.137,0,0,1-.474,6.253v0l.234.021.035,0c.123.012.245.027.366.044l.068.01a10.678,10.678,0,0,1,4.965,2.066l.088.068.133.1.118.1.09.075.143.122.024.021a10.729,10.729,0,0,1,1.074,1.083c.039.046.076.093.114.139l.079.1q.121.149.236.3l.062.082q.215.29.407.591l.077.122q.083.134.162.269.048.082.094.165c.031.056.062.112.093.168q.071.133.139.268l.057.116q.078.161.151.325l.029.067a10.668,10.668,0,0,1,.883,3.829q0,.045,0,.089c0,.116.007.233.007.35,0,.028,0,.056,0,.084q0,.132,0,.264c0,.05,0,.1-.006.15,0,.077-.008.153-.013.23,0,.038,0,.075-.007.113a3.14,3.14,0,0,0,6.262.465h0v0h0S388.987,368.478,388.988,368.475Z" transform="translate(-354.993 -350.186)" opacity="0.48" fill="url(#a)" style="mix-blend-mode:multiply;isolation:isolate"/><path d="M296.366,457.592a6.811,6.811,0,1,0,6.279-4.172,6.82,6.82,0,0,0-1.919.274.712.712,0,1,0,.4,1.366,5.364,5.364,0,1,1-3.859,5.148,5.322,5.322,0,0,1,.414-2.067.713.713,0,0,0-1.317-.549Z" transform="translate(-285.588 -443.214)" fill="#cbcbd3"/><path d="M275.429,443.948a.712.712,0,0,0,.559.838,9.6,9.6,0,0,0,1.879.185,9.494,9.494,0,1,0-7.914-4.226.713.713,0,0,0,1.187-.791,8.086,8.086,0,1,1,6.727,3.593,8.165,8.165,0,0,1-1.6-.158A.713.713,0,0,0,275.429,443.948Z" transform="translate(-260.81 -418.487)" fill="#cbcbd3"/><g transform="translate(40.846 8.249)"><path d="M614.792,513.764l-2.756-5.194h-1.547v5.194h-3.964V498.1h6.529a5.715,5.715,0,0,1,4.282,1.484,5.015,5.015,0,0,1,1.463,3.71,4.951,4.951,0,0,1-2.862,4.664l3.392,5.808Zm-4.3-12.041v3.392h2.374c2.544.127,2.353-3.561.148-3.392Z" transform="translate(-606.524 -496.741)" fill="#78768c"/><path d="M745.632,545.49a6.352,6.352,0,0,1,0-8.776,6.773,6.773,0,0,1,9.2,0,6.3,6.3,0,0,1,0,8.776,6.832,6.832,0,0,1-9.2,0Zm6.487-2.48a2.671,2.671,0,0,0,.763-1.929,2.642,2.642,0,0,0-2.65-2.65,2.466,2.466,0,0,0-1.865.784,2.526,2.526,0,0,0-.763,1.865,2.671,2.671,0,0,0,.763,1.929,2.526,2.526,0,0,0,1.865.763A2.575,2.575,0,0,0,752.119,543.01Z" transform="translate(-730.349 -529.93)" fill="#78768c"/><path d="M882.083,545.063l1.675-2.523a5.3,5.3,0,0,0,3.5,1.463c.827,0,1.251-.254,1.251-.742,0-.276-.212-.487-.636-.657-.064-.021-.488-.148-1.293-.424-.784-.276-1.335-.466-1.611-.594a3.331,3.331,0,0,1-2.184-3.18,3.236,3.236,0,0,1,1.314-2.671,5.477,5.477,0,0,1,3.519-1.039,6.688,6.688,0,0,1,4.367,1.526l-1.611,2.459a5.069,5.069,0,0,0-2.819-1c-.615,0-1.06.3-1.06.657,0,.382.36.657,1.06.848a15.315,15.315,0,0,1,2.756,1.018,3.04,3.04,0,0,1,1.993,2.968A3.463,3.463,0,0,1,890.944,546a5.723,5.723,0,0,1-3.667,1.081A7.287,7.287,0,0,1,882.083,545.063Z" transform="translate(-854.95 -529.737)" fill="#78768c"/><path d="M1003.672,511.36a7.239,7.239,0,0,1-3.731.954c-2.9,0-4.346-1.611-4.346-4.833v-4.07h-1.781v-3.095h1.823v-4.155h3.71v4.155h3.668v3.095h-3.668v3.625c0,1.251.488,1.866,1.484,1.866a3.971,3.971,0,0,0,1.844-.53Z" transform="translate(-955.68 -494.995)" fill="#78768c"/><path d="M1111.643,542.7h-8.352a2.7,2.7,0,0,0,2.862,1.844,6.221,6.221,0,0,0,3.54-1.081l1.463,2.523a8.617,8.617,0,0,1-5.173,1.611,6.338,6.338,0,0,1-4.791-1.759,6.066,6.066,0,0,1-1.675-4.346,5.944,5.944,0,0,1,1.738-4.388,6.68,6.68,0,0,1,8.819-.191,5.572,5.572,0,0,1,1.7,4.282A9.417,9.417,0,0,1,1111.643,542.7Zm-8.395-2.565h4.96a2.374,2.374,0,0,0-2.438-1.8A2.416,2.416,0,0,0,1103.248,540.134Z" transform="translate(-1050.974 -530.319)" fill="#78768c"/><path d="M1242.244,547.147v-11.7h3.583v1.441a3.607,3.607,0,0,1,4.579-1.441l-.3,3.561a4.683,4.683,0,0,0-1.547-.276c-1.717,0-2.586,1.124-2.586,3.371v5.045Z" transform="translate(-1179.647 -530.124)" fill="#78768c"/><path d="M1336.106,486.44a2.152,2.152,0,1,1,2.162,2.162A2.109,2.109,0,0,1,1336.106,486.44Zm4.049,14.9H1336.4v-11.7h3.752Z" transform="translate(-1264.266 -484.32)" fill="#78768c"/><path d="M1400.257,547.147v-11.7h3.646v1.632a4.089,4.089,0,0,1,3.667-1.95,4.5,4.5,0,0,1,3.2,1.251,4.738,4.738,0,0,1,1.314,3.583v7.186h-3.752v-6.19c0-1.526-.784-2.417-2.056-2.417a2.283,2.283,0,0,0-2.289,2.523v6.084Z" transform="translate(-1322.101 -530.124)" fill="#78768c"/><path d="M1547.061,535.64h3.371v10.578a5.628,5.628,0,0,1-1.887,4.43,6.948,6.948,0,0,1-4.77,1.654,9.115,9.115,0,0,1-5.533-1.76l1.357-2.735a7.3,7.3,0,0,0,4.028,1.336c2.1,0,3.243-1.145,3.243-2.692V546.2a4.53,4.53,0,0,1-3.265,1.166,5.494,5.494,0,0,1-4.2-1.675,6,6,0,0,1-1.59-4.3,5.894,5.894,0,0,1,1.7-4.367,5.767,5.767,0,0,1,4.261-1.675,4.6,4.6,0,0,1,3.286,1.272Zm-2.819,3.137a2.561,2.561,0,0,0-2.65,2.65,2.651,2.651,0,1,0,5.3,0A2.574,2.574,0,0,0,1544.241,538.777Z" transform="translate(-1446.116 -530.319)" fill="#78768c"/></g></svg>