<svg xmlns="http://www.w3.org/2000/svg" width="163.292" height="34.04" viewBox="0 0 163.292 34.04"><path d="M163.357,366.279v-.008s0-.006,0-.009a17.021,17.021,0,0,0-15.685-18.243l-.059,0-.03,0c-.03,0-.059,0-.09,0a17.018,17.018,0,0,0-18.08,15.677v.017a17.021,17.021,0,1,0,33.944,2.575Zm-19.4,9.177-.045-.011q-.233-.055-.463-.119l-.091-.027c-.138-.04-.276-.083-.412-.129l-.1-.036c-.132-.046-.264-.094-.395-.145l-.093-.038c-.133-.054-.266-.11-.4-.169l-.071-.033c-.138-.063-.275-.129-.41-.2l-.041-.021q-.215-.112-.427-.233l-.01-.006a10.744,10.744,0,0,1-4.413-4.888l-.012-.025c-.064-.142-.123-.285-.18-.43l-.025-.061c-.052-.133-.1-.267-.146-.4-.012-.034-.024-.068-.035-.1-.041-.123-.079-.247-.115-.371-.014-.047-.028-.094-.041-.141-.032-.114-.06-.229-.088-.344-.014-.058-.029-.115-.042-.174-.024-.108-.045-.217-.066-.326-.013-.065-.026-.13-.037-.2-.019-.107-.034-.215-.049-.323-.009-.066-.02-.132-.028-.2-.014-.115-.025-.23-.035-.345-.005-.059-.012-.118-.016-.177-.01-.137-.016-.273-.021-.41,0-.038,0-.075,0-.113a10.806,10.806,0,0,1,.165-2.164c.007-.039.016-.077.023-.116.025-.132.051-.264.081-.4.014-.06.03-.12.045-.18.027-.109.054-.218.084-.326.019-.069.041-.137.061-.2.03-.1.06-.2.093-.3.023-.069.048-.137.072-.2.035-.1.07-.2.108-.292.025-.063.051-.126.077-.188.042-.1.084-.2.129-.3.024-.054.05-.108.075-.161.05-.107.1-.214.155-.32.022-.044.045-.086.068-.129.06-.114.121-.227.186-.339l.058-.1c.07-.12.142-.238.218-.355l.048-.072c.08-.123.162-.244.248-.364l.039-.053c.089-.123.18-.245.275-.364l.036-.044c.1-.12.194-.239.3-.356l.038-.042c.1-.115.206-.23.313-.341l.038-.038c.225-.232.461-.457.71-.671s.519-.423.788-.614l.031-.023c.127-.09.257-.175.387-.259l.046-.03c.13-.082.261-.161.394-.237l.052-.031c.13-.074.262-.144.394-.212l.068-.035c.128-.065.256-.125.386-.184l.091-.042c.122-.054.246-.105.369-.155l.121-.049c.115-.044.23-.086.346-.126l.157-.054c.106-.035.212-.067.318-.1.064-.019.128-.039.193-.057.1-.027.2-.051.293-.075.074-.018.148-.037.223-.054.092-.021.184-.038.277-.056s.161-.032.242-.046.183-.028.274-.042.163-.024.245-.034c.1-.012.2-.021.3-.03.074-.007.148-.015.223-.02.12-.009.24-.013.36-.018.054,0,.108-.006.162-.007q.259-.006.518,0h.007a10.812,10.812,0,0,1,1.623.163l.136.027c.126.024.252.049.377.077.065.015.128.032.192.048.105.026.211.052.316.081.07.02.14.042.21.063.1.03.2.059.293.092.069.023.136.048.2.072.1.035.2.07.3.109.061.024.12.049.18.074.1.043.209.086.312.133l.146.068c.113.053.226.106.337.163l.107.057c.122.064.243.129.363.2l.068.041c.13.076.259.154.386.236l.034.022q.2.132.4.274l0,0a10.744,10.744,0,0,1,3.75,4.811l.006.014q.088.226.166.455l.016.046c.048.144.093.289.135.435.007.025.015.05.022.075.039.139.074.278.107.418.008.033.016.065.024.1.031.137.059.274.084.412.007.036.014.071.02.107.025.142.046.284.065.426,0,.032.009.063.013.095.02.157.035.314.048.471,0,.017,0,.033,0,.05a10.8,10.8,0,0,1-.246,3.253l-.008.034q-.056.239-.123.475c-.007.025-.015.05-.022.075-.042.144-.086.287-.134.429-.009.028-.02.055-.029.083-.048.14-.1.279-.153.417l-.028.069q-.086.213-.18.424l-.019.041q-.1.223-.214.441l0,.007a10.745,10.745,0,0,1-6.129,5.262h0q-.236.079-.475.147l-.036.011c-.151.042-.3.081-.454.116l-.064.015c-.148.033-.3.063-.444.09l-.077.015c-.152.027-.3.049-.456.069l-.066.009q-.251.031-.5.051l-.021,0A10.8,10.8,0,0,1,143.959,375.456Z" transform="translate(-129.363 -347.973)" fill="#1d96d4"/><g transform="translate(13.249 10.207)"><path d="M268.8,511.422l1.465-7.509h3.626l1.465,7.509a.813.813,0,0,1-.8.969H269.6A.813.813,0,0,1,268.8,511.422Z" transform="translate(-268.305 -498.765)" fill="#cbcbd3"/><ellipse cx="3.773" cy="3.773" rx="3.773" ry="3.773" fill="#cbcbd3"/></g><g transform="translate(39.517 8.443)"><path d="M541.6,513.764l-.911-2.862H535.71l-.933,2.862h-4.091l5.724-15.666H540.1l5.575,15.666Zm-1.865-6.3-1.484-4.643-1.548,4.643Z" transform="translate(-530.686 -497.759)" fill="#78768c"/><path d="M689.344,545.879a5.958,5.958,0,0,1-1.717-4.409,5.892,5.892,0,0,1,1.738-4.409,6.189,6.189,0,0,1,4.536-1.717,5.87,5.87,0,0,1,5.575,3.413l-2.989,1.569a2.776,2.776,0,0,0-2.5-1.505,2.6,2.6,0,0,0-1.929.763,2.642,2.642,0,0,0-.742,1.887,2.591,2.591,0,0,0,2.629,2.692,2.746,2.746,0,0,0,2.5-1.505l2.989,1.781a6.619,6.619,0,0,1-10.09,1.441Z" transform="translate(-672.174 -531.336)" fill="#78768c"/><path d="M829.781,542.7h-8.352a2.7,2.7,0,0,0,2.862,1.844,6.221,6.221,0,0,0,3.54-1.081l1.463,2.523a8.617,8.617,0,0,1-5.172,1.611,6.338,6.338,0,0,1-4.791-1.759,6.067,6.067,0,0,1-1.675-4.346,5.943,5.943,0,0,1,1.738-4.388,6.68,6.68,0,0,1,8.819-.191,5.572,5.572,0,0,1,1.7,4.282A9.4,9.4,0,0,1,829.781,542.7Zm-8.395-2.565h4.961a2.374,2.374,0,0,0-2.438-1.8A2.416,2.416,0,0,0,821.387,540.134Z" transform="translate(-789.399 -531.336)" fill="#78768c"/><path d="M951.128,545.063l1.675-2.523A5.3,5.3,0,0,0,956.3,544c.827,0,1.251-.254,1.251-.742,0-.276-.212-.487-.636-.657-.064-.021-.488-.148-1.293-.424-.784-.276-1.335-.466-1.611-.594a3.332,3.332,0,0,1-2.183-3.18,3.236,3.236,0,0,1,1.314-2.671,5.477,5.477,0,0,1,3.519-1.039,6.688,6.688,0,0,1,4.367,1.526l-1.611,2.459a5.069,5.069,0,0,0-2.819-1c-.615,0-1.06.3-1.06.657,0,.382.36.657,1.06.848a15.315,15.315,0,0,1,2.756,1.018,3.04,3.04,0,0,1,1.993,2.968A3.463,3.463,0,0,1,959.989,546a5.724,5.724,0,0,1-3.667,1.081A7.287,7.287,0,0,1,951.128,545.063Z" transform="translate(-909.728 -530.754)" fill="#78768c"/><path d="M1062.643,545.063l1.675-2.523a5.3,5.3,0,0,0,3.5,1.463c.827,0,1.251-.254,1.251-.742,0-.276-.212-.487-.636-.657-.064-.021-.488-.148-1.293-.424-.784-.276-1.336-.466-1.611-.594a3.331,3.331,0,0,1-2.183-3.18,3.236,3.236,0,0,1,1.314-2.671,5.477,5.477,0,0,1,3.519-1.039,6.688,6.688,0,0,1,4.367,1.526l-1.611,2.459a5.07,5.07,0,0,0-2.82-1c-.615,0-1.06.3-1.06.657,0,.382.36.657,1.06.848a15.312,15.312,0,0,1,2.756,1.018,3.04,3.04,0,0,1,1.993,2.968A3.463,3.463,0,0,1,1071.5,546a5.722,5.722,0,0,1-3.667,1.081A7.287,7.287,0,0,1,1062.643,545.063Z" transform="translate(-1010.263 -530.754)" fill="#78768c"/><path d="M1180.44,545.49a6.352,6.352,0,0,1,0-8.776,6.773,6.773,0,0,1,9.2,0,6.3,6.3,0,0,1,0,8.776,6.832,6.832,0,0,1-9.2,0Zm6.487-2.48a2.671,2.671,0,0,0,.763-1.929,2.642,2.642,0,0,0-2.65-2.65,2.466,2.466,0,0,0-1.865.784,2.526,2.526,0,0,0-.763,1.865,2.671,2.671,0,0,0,.763,1.929,2.526,2.526,0,0,0,1.865.763A2.575,2.575,0,0,0,1186.927,543.01Z" transform="translate(-1114.875 -530.948)" fill="#78768c"/><path d="M1323.2,513.764l-5.236-15.666h1.314l4.261,13.1,4.494-13.1h.573l4.558,13.08,4.219-13.08h1.293l-5.194,15.666h-.636l-4.515-13.186-4.494,13.186Z" transform="translate(-1240.444 -497.759)" fill="#78768c"/><path d="M1544.96,545.662h-9.539a4.291,4.291,0,0,0,4.6,4.24,7.059,7.059,0,0,0,4.155-1.357l.594.975a8.062,8.062,0,0,1-4.77,1.569c-4.176,0-5.893-2.989-5.893-5.957a5.973,5.973,0,0,1,1.547-4.24,5.292,5.292,0,0,1,4.091-1.675,5.1,5.1,0,0,1,3.773,1.484,5.288,5.288,0,0,1,1.505,3.964C1545.023,544.815,1545,545.154,1544.96,545.662Zm-9.539-1.166h8.289a3.835,3.835,0,0,0-3.964-4.113A4.253,4.253,0,0,0,1535.42,544.5Z" transform="translate(-1435.302 -534.83)" fill="#78768c"/><path d="M1681.483,500.78a5.89,5.89,0,0,1,1.611,4.219,5.976,5.976,0,0,1-1.611,4.24,5.3,5.3,0,0,1-4.028,1.717,5.078,5.078,0,0,1-4.515-2.565v2.268h-1.272v-16h1.272v6.953a5.118,5.118,0,0,1,4.536-2.544A5.291,5.291,0,0,1,1681.483,500.78Zm-.932,7.61A4.893,4.893,0,0,0,1681.8,505a4.823,4.823,0,0,0-1.229-3.371,4.109,4.109,0,0,0-3.18-1.378,4.243,4.243,0,0,0-3.243,1.378,4.773,4.773,0,0,0-1.251,3.328,4.984,4.984,0,0,0,1.251,3.413,4.243,4.243,0,0,0,3.243,1.378A4.047,4.047,0,0,0,1680.55,508.391Z" transform="translate(-1559.319 -494.654)" fill="#78768c"/></g></svg>