<svg xmlns="http://www.w3.org/2000/svg" width="24.819" height="24.819" viewBox="0 0 24.819 24.819"><g transform="translate(3.699 3.699)"><path d="M3.749,3,16.407,7.969c.5.124.372.869-.124.993l-5.336,1.613a.4.4,0,0,0-.372.372L8.837,16.283a.545.545,0,0,1-.993.124L3,3.749A.586.586,0,0,1,3.749,3Z" transform="translate(-2.981 -2.981)" fill="#fff"/></g><path d="M.5,11.169h.869a11.928,11.928,0,0,1,.993-3.6l1.489,3.723a3.436,3.436,0,0,0-.124,1.117A8.687,8.687,0,1,0,12.41,3.723a3.436,3.436,0,0,0-1.117.124L7.57,2.358a11.928,11.928,0,0,1,3.6-.993V.5a.534.534,0,0,1,.5-.5h1.489a.534.534,0,0,1,.5.5v.869a11.084,11.084,0,0,1,9.8,9.8h.869a.534.534,0,0,1,.5.5v1.489a.534.534,0,0,1-.5.5h-.869a11.084,11.084,0,0,1-9.8,9.8v.869a.534.534,0,0,1-.5.5H11.665a.534.534,0,0,1-.5-.5v-.869a11.084,11.084,0,0,1-9.8-9.8H.5a.534.534,0,0,1-.5-.5V11.665A.534.534,0,0,1,.5,11.169Z" fill="#fff"/></svg>