<svg xmlns="http://www.w3.org/2000/svg" width="23.202" height="17.662" viewBox="0 0 23.202 17.662"><g transform="translate(0 0)"><ellipse cx="2.439" cy="2.439" rx="2.439" ry="2.439" transform="translate(9.162 12.785)" fill="#fff"/><path d="M-936.4,963.7a15.242,15.242,0,0,0-11.6,5.351l1.847,1.752a12.616,12.616,0,0,1,9.754-4.569,12.616,12.616,0,0,1,9.754,4.569l1.847-1.752A15.163,15.163,0,0,0-936.4,963.7Z" transform="translate(948 -963.7)" fill="#fff"/><path d="M-926.4,981.7a10.88,10.88,0,0,0-8.5,4.048l1.847,1.776a8.471,8.471,0,0,1,6.653-3.267,8.4,8.4,0,0,1,6.653,3.267l1.847-1.776A10.88,10.88,0,0,0-926.4,981.7Z" transform="translate(938.001 -977.438)" fill="#fff"/><path d="M-916.4,999.7a6.6,6.6,0,0,0-5.4,2.746l1.87,1.776a4.173,4.173,0,0,1,3.528-1.965,4.114,4.114,0,0,1,3.528,1.965l1.87-1.776A6.736,6.736,0,0,0-916.4,999.7Z" transform="translate(928.003 -991.177)" fill="#fff"/></g></svg>