<svg xmlns="http://www.w3.org/2000/svg" width="20.851" height="18.936" viewBox="0 0 20.851 18.936"><g transform="translate(0 18.936) rotate(-90)"><g transform="translate(0)"><path d="M7.582,0H1.264A1.264,1.264,0,0,0,0,1.264V7.582H2.527V4.552a6.95,6.95,0,0,1,3.71,7.188A6.95,6.95,0,0,1,.632,17.571V20.13a9.478,9.478,0,0,0,8.015-7.57A9.478,9.478,0,0,0,4.075,2.527H7.582Z" transform="translate(10.112)" fill="#fff"/><path d="M.634,19.4H6.953a1.264,1.264,0,0,0,1.264-1.264V11.815H5.689v3.292A6.95,6.95,0,0,1,7.584,2.6V0A9.478,9.478,0,0,0,3.793,16.87H.634Z" transform="translate(0 1.453)" fill="#fff"/></g></g></svg>