<svg xmlns="http://www.w3.org/2000/svg" width="32.951" height="23.344" viewBox="0 0 32.951 23.344"><g transform="translate(0)"><path d="M76.273,20.077a3.677,3.677,0,1,0-4.96,3.434v4.3L65,29.511v10.2h2.532v-8.22l6.313-1.7V23.511A3.676,3.676,0,0,0,76.273,20.077Z" transform="translate(-43.321 -16.4)" fill="#e9005e"/><path d="M7.46,23.511a3.677,3.677,0,1,0-2.567,0v6.278l6.313,1.7v8.255h2.567V29.511l-6.313-1.7Z" transform="translate(-2.5 -16.4)" fill="#e9005e"/><path d="M43.077,16.4a3.67,3.67,0,0,0-1.283,7.111V39.743h2.532V23.511a3.694,3.694,0,0,0,2.393-3.434A3.627,3.627,0,0,0,43.077,16.4Z" transform="translate(-26.601 -16.4)" fill="#e9005e"/></g></svg>