<svg xmlns="http://www.w3.org/2000/svg" width="36.5" height="35.511" viewBox="0 0 36.5 35.511"><g transform="translate(-2.5 -3.675)"><g transform="translate(2.5 3.675)"><path d="M39,19.937a3.73,3.73,0,0,0-3.727-3.727H27.512a16.422,16.422,0,0,0,1.575-6.647,6.016,6.016,0,0,0-3.765-5.571,3.521,3.521,0,0,0-2.92,0A3.455,3.455,0,0,0,20.558,6.22L20.1,8.026A14.909,14.909,0,0,1,15.1,16.018c-.307.231-.576.423-.884.615a3.359,3.359,0,0,0-2.92-1.691H5.881A3.362,3.362,0,0,0,2.5,18.323V35.8a3.386,3.386,0,0,0,3.381,3.381H11.3a3.364,3.364,0,0,0,3.074-2,36.514,36.514,0,0,0,9.874,1.422h8.529A3.73,3.73,0,0,0,36.5,34.882a3.673,3.673,0,0,0-.5-1.844,3.747,3.747,0,0,0,1.729-3.151,3.673,3.673,0,0,0-.5-1.844,3.747,3.747,0,0,0,1.729-3.151A3.8,3.8,0,0,0,38,22.4,3.485,3.485,0,0,0,39,19.937ZM12.221,35.881a.935.935,0,0,1-.922.922H5.881a.935.935,0,0,1-.922-.922V18.4a.935.935,0,0,1,.922-.922H11.3a.935.935,0,0,1,.922.922ZM32.929,23.664h2.344a1.268,1.268,0,1,1,0,2.536h-2.8a1.229,1.229,0,0,0,0,2.459h1.575a1.268,1.268,0,0,1,0,2.536H31.585a1.229,1.229,0,1,0,0,2.459h1.229a1.268,1.268,0,1,1,0,2.536H24.246a34.5,34.5,0,0,1-9.567-1.383V19.245A11.843,11.843,0,0,0,16.6,17.977a17.386,17.386,0,0,0,5.878-9.3l.461-1.806a.849.849,0,0,1,.5-.615.957.957,0,0,1,.807,0A3.493,3.493,0,0,1,26.59,9.6a15.323,15.323,0,0,1-2.19,7.223,1.3,1.3,0,0,0,0,1.191,1.262,1.262,0,0,0,1.076.653h9.8a1.268,1.268,0,1,1,0,2.536H32.929a1.229,1.229,0,0,0,0,2.459Z" transform="translate(-2.5 -3.675)" fill="#fff"/><circle cx="1.614" cy="1.614" r="1.614" transform="translate(4.495 28.134)" fill="#fff"/></g></g></svg>