<?xml version="1.0" encoding="UTF-8"?>
<svg version="1.1" viewBox="0 0 119.66 40" xmlns="http://www.w3.org/2000/svg"><g transform="translate(0)"><path d="m110.14 0h-100.6-1.095c-0.306 0-0.61 8e-3 -0.919 0.013a13.215 13.215 0 0 0-2 0.177 6.665 6.665 0 0 0-1.9 0.627 6.438 6.438 0 0 0-1.621 1.183 6.258 6.258 0 0 0-1.181 1.618 6.6 6.6 0 0 0-0.625 1.9 12.993 12.993 0 0 0-0.179 2c-9e-3 0.312-0.015 0.62-0.015 0.926v23.115c0 0.31 6e-3 0.611 0.015 0.922a12.992 12.992 0 0 0 0.179 2 6.588 6.588 0 0 0 0.625 1.9 6.208 6.208 0 0 0 1.181 1.619 6.274 6.274 0 0 0 1.616 1.18 6.7 6.7 0 0 0 1.9 0.631 13.454 13.454 0 0 0 2 0.177c0.309 7e-3 0.613 0.011 0.919 0.011h1.095 100.6 1.084c0.3 0 0.617 0 0.922-0.011a13.279 13.279 0 0 0 2-0.177 6.8 6.8 0 0 0 1.908-0.631 6.277 6.277 0 0 0 1.622-1.18 6.4 6.4 0 0 0 1.182-1.614 6.6 6.6 0 0 0 0.619-1.9 13.507 13.507 0 0 0 0.186-2v-0.922c8e-3 -0.363 8e-3 -0.725 8e-3 -1.094v-20.934c0-0.366 0-0.729-8e-3 -1.092v-0.921a13.505 13.505 0 0 0-0.186-2 6.618 6.618 0 0 0-0.619-1.9 6.466 6.466 0 0 0-2.8-2.8 6.768 6.768 0 0 0-1.908-0.627 13.044 13.044 0 0 0-2-0.177c-0.3 0-0.617-0.011-0.922-0.013h-1.084z" fill="#a6a6a6"/><path d="M8.445,39.125c-.3,0-.6,0-.9-.011a12.688,12.688,0,0,1-1.869-.163A5.884,5.884,0,0,1,4.015,38.4a5.406,5.406,0,0,1-1.4-1.017A5.321,5.321,0,0,1,1.6,35.99a5.722,5.722,0,0,1-.543-1.657,12.413,12.413,0,0,1-.167-1.875c-.006-.211-.015-.913-.015-.913V8.444s.009-.691.015-.895a12.37,12.37,0,0,1,.166-1.872A5.755,5.755,0,0,1,1.6,4.016a5.374,5.374,0,0,1,1.015-1.4A5.565,5.565,0,0,1,4.014,1.6a5.823,5.823,0,0,1,1.653-.544A12.586,12.586,0,0,1,7.543.887l.9-.012H111.214l.913.013a12.385,12.385,0,0,1,1.858.163,5.938,5.938,0,0,1,1.671.548,5.594,5.594,0,0,1,2.415,2.42,5.763,5.763,0,0,1,.535,1.649,12.994,12.994,0,0,1,.174,1.887c0,.283,0,.587,0,.89.008.375.008.732.008,1.092V30.465c0,.363,0,.718-.008,1.075,0,.325,0,.623,0,.93a12.734,12.734,0,0,1-.171,1.853,5.739,5.739,0,0,1-.54,1.67,5.481,5.481,0,0,1-1.016,1.386,5.413,5.413,0,0,1-1.4,1.023,5.862,5.862,0,0,1-1.668.55,12.542,12.542,0,0,1-1.869.163c-.293.007-.6.011-.9.011l-1.084,0Z"/><g fill="#fff"><path d="M24.769,20.3a4.949,4.949,0,0,1,2.357-4.152,5.066,5.066,0,0,0-3.991-2.158c-1.679-.176-3.307,1-4.163,1-.872,0-2.19-.987-3.608-.958a5.315,5.315,0,0,0-4.473,2.728c-1.934,3.348-.491,8.269,1.361,10.976.927,1.325,2.01,2.806,3.428,2.753,1.387-.058,1.905-.884,3.579-.884,1.659,0,2.145.884,3.591.851,1.488-.024,2.426-1.331,3.321-2.669A10.962,10.962,0,0,0,27.688,24.7a4.782,4.782,0,0,1-2.919-4.4Z"/><path d="m22.037 12.211a4.872 4.872 0 0 0 1.115-3.491 4.957 4.957 0 0 0-3.208 1.66 4.636 4.636 0 0 0-1.144 3.361 4.1 4.1 0 0 0 3.237-1.53z"/><path d="M42.3,27.14H37.569L36.432,30.5h-2l4.483-12.418h2.083L45.477,30.5H43.438Zm-4.243-1.549h3.752l-1.85-5.447H39.91Z"/><path d="m55.16 25.97c0 2.813-1.506 4.621-3.778 4.621a3.069 3.069 0 0 1-2.849-1.584h-0.043v4.484h-1.859v-12.049h1.8v1.506h0.034a3.212 3.212 0 0 1 2.883-1.6c2.297 0 3.812 1.816 3.812 4.622zm-1.91 0c0-1.833-0.947-3.038-2.393-3.038-1.42 0-2.375 1.23-2.375 3.038 0 1.824 0.955 3.046 2.375 3.046 1.445 0 2.393-1.2 2.393-3.046z"/><path d="m65.124 25.97c0 2.813-1.506 4.621-3.778 4.621a3.069 3.069 0 0 1-2.846-1.584h-0.043v4.484h-1.857v-12.049h1.8v1.506h0.034a3.212 3.212 0 0 1 2.883-1.6c2.293 0 3.807 1.816 3.807 4.622zm-1.91 0c0-1.833-0.947-3.038-2.393-3.038-1.42 0-2.375 1.23-2.375 3.038 0 1.824 0.955 3.046 2.375 3.046 1.445 0 2.393-1.2 2.393-3.046z"/><path d="M71.711,27.036c.138,1.231,1.334,2.04,2.969,2.04,1.566,0,2.693-.809,2.693-1.919,0-.964-.68-1.541-2.289-1.937l-1.609-.388c-2.28-.551-3.339-1.617-3.339-3.348,0-2.143,1.867-3.614,4.519-3.614,2.624,0,4.423,1.472,4.483,3.614H77.261c-.112-1.239-1.137-1.987-2.634-1.987s-2.521.757-2.521,1.858c0,.878.654,1.395,2.255,1.79l1.368.336c2.548.6,3.606,1.626,3.606,3.442,0,2.323-1.851,3.778-4.794,3.778-2.754,0-4.613-1.421-4.733-3.667Z"/><path d="M83.346,19.3v2.143h1.722v1.472H83.346v4.991c0,.775.345,1.137,1.1,1.137A5.807,5.807,0,0,0,85.059,29v1.463a5.1,5.1,0,0,1-1.032.086c-1.833,0-2.548-.688-2.548-2.444V22.914H80.163V21.442h1.316V19.3Z"/><path d="m86.065 25.97c0-2.849 1.678-4.639 4.294-4.639s4.295 1.79 4.295 4.639-1.661 4.639-4.295 4.639-4.294-1.783-4.294-4.639zm6.7 0c0-1.954-0.9-3.107-2.4-3.107s-2.4 1.162-2.4 3.107c0 1.962 0.895 3.106 2.4 3.106s2.4-1.145 2.4-3.106z"/><path d="M96.186,21.442h1.772v1.541H98a2.159,2.159,0,0,1,2.178-1.636,2.866,2.866,0,0,1,.637.069v1.738a2.6,2.6,0,0,0-.835-.112,1.873,1.873,0,0,0-1.937,2.083V30.5H96.186Z"/><path d="M109.384,27.837c-.25,1.644-1.851,2.771-3.9,2.771-2.634,0-4.269-1.765-4.269-4.6s1.644-4.682,4.19-4.682c2.5,0,4.08,1.721,4.08,4.466v.637h-6.395v.112a2.358,2.358,0,0,0,2.436,2.564,2.048,2.048,0,0,0,2.091-1.273Zm-6.282-2.7h4.526a2.177,2.177,0,0,0-2.221-2.3,2.292,2.292,0,0,0-2.305,2.3Z"/><path d="M35.671,14.7V8.731h2.4c1.121,0,1.795.57,1.795,1.488A1.308,1.308,0,0,1,38.818,11.5v.07a1.411,1.411,0,0,1,1.344,1.435c0,1.05-.765,1.691-2.039,1.691Zm.927-3.44h1.1c.819,0,1.245-.3,1.245-.868,0-.55-.4-.873-1.088-.873H36.6Zm1.34,2.655c.835,0,1.277-.339,1.277-.972s-.459-.951-1.331-.951H36.6v1.923Z"/><path d="M41.114,13.424c0-.811.6-1.278,1.675-1.344l1.22-.07v-.389c0-.476-.314-.744-.922-.744-.5,0-.84.182-.938.5h-.86c.091-.773.818-1.27,1.84-1.27,1.129,0,1.766.562,1.766,1.513V14.7h-.855v-.633h-.07a1.515,1.515,0,0,1-1.353.707,1.36,1.36,0,0,1-1.5-1.348Zm2.895-.385v-.376l-1.1.07c-.62.042-.9.252-.9.649s.352.641.835.641a1.061,1.061,0,0,0,1.166-.984Z"/><path d="M46.169,8.863a.576.576,0,1,1,.575.541.547.547,0,0,1-.575-.541Zm.132,1.332h.886v4.5H46.3Z"/><path d="M50.236,13.1l-.984,1.6h-.976l1.493-2.241-1.506-2.262H49.3l.968,1.588h.07l.959-1.588h.988L50.8,12.419,52.3,14.7H51.283l-.98-1.6Z"/><path d="M53.088,13.424c0-.811.6-1.278,1.675-1.344l1.22-.07v-.389c0-.476-.314-.744-.922-.744-.5,0-.84.182-.938.5h-.86c.091-.773.818-1.27,1.84-1.27,1.129,0,1.766.562,1.766,1.513V14.7h-.855v-.633h-.07a1.515,1.515,0,0,1-1.353.707,1.36,1.36,0,0,1-1.5-1.348Zm2.895-.385v-.376l-1.1.07c-.62.042-.9.252-.9.649s.352.641.835.641a1.062,1.062,0,0,0,1.166-.984Z"/><path d="M58.259,10.195h.855v.69h.066A1.221,1.221,0,0,1,60.4,10.12a1.868,1.868,0,0,1,.4.037v.877a2.434,2.434,0,0,0-.5-.054,1.055,1.055,0,0,0-1.149,1.059V14.7h-.889Z"/><path d="M64.218,10.195h.856v.715h.066a1.348,1.348,0,0,1,1.344-.8,1.465,1.465,0,0,1,1.559,1.675V14.7h-.889V12.006c0-.724-.314-1.083-.972-1.083a1.033,1.033,0,0,0-1.075,1.141V14.7h-.889Z"/><path d="M69.161,13.424c0-.811.6-1.278,1.675-1.344l1.22-.07v-.389c0-.476-.314-.744-.922-.744-.5,0-.84.182-.938.5h-.86c.091-.773.818-1.27,1.84-1.27,1.129,0,1.766.562,1.766,1.513V14.7h-.855v-.633h-.07a1.515,1.515,0,0,1-1.353.707,1.36,1.36,0,0,1-1.5-1.348Zm2.895-.385v-.376l-1.1.07c-.62.042-.9.252-.9.649s.352.641.835.641a1.061,1.061,0,0,0,1.166-.984Z"/></g></g></svg>
