<?xml version="1.0" encoding="UTF-8"?>
<svg version="1.1" viewBox="0 0 133.57 39.578" xmlns="http://www.w3.org/2000/svg"><defs><linearGradient id="h" x1="44.107" x2="20.986" y1="130.36" y2="118.44" gradientTransform="scale(.71811 1.3925)" gradientUnits="userSpaceOnUse"><stop stop-color="#00a0ff" offset="0"/><stop stop-color="#00a1ff" offset=".007"/><stop stop-color="#00beff" offset=".26"/><stop stop-color="#00d2ff" offset=".512"/><stop stop-color="#00dfff" offset=".76"/><stop stop-color="#00e3ff" offset="1"/></linearGradient><linearGradient id="g" x1="40.11" x2="18.143" y1="185.79" y2="185.79" gradientTransform="scale(1.09 .91741)" gradientUnits="userSpaceOnUse"><stop stop-color="#ffe000" offset="0"/><stop stop-color="#ffbd00" offset=".409"/><stop stop-color="orange" offset=".775"/><stop stop-color="#ff9c00" offset="1"/></linearGradient><linearGradient id="f" x1="30.446" x2="10.682" y1="191.67" y2="166.01" gradientTransform="scale(1.1386 .87824)" gradientUnits="userSpaceOnUse"><stop stop-color="#ff3a44" offset="0"/><stop stop-color="#c31162" offset="1"/></linearGradient><linearGradient id="e" x1="15.221" x2="24.051" y1="216.46" y2="205" gradientTransform="scale(1.1386 .87824)" gradientUnits="userSpaceOnUse"><stop stop-color="#32a071" offset="0"/><stop stop-color="#2da771" offset=".068"/><stop stop-color="#15cf74" offset=".476"/><stop stop-color="#06e775" offset=".801"/><stop stop-color="#00f076" offset="1"/></linearGradient></defs><g transform="translate(-9.991,-10.009)"><g transform="translate(.359 .429)"><g transform="translate(9.632,9.581)"><path transform="translate(-10,-10)" d="m138.62 10.792a4.16 4.16 0 0 1 4.156 4.156v29.682a4.16 4.16 0 0 1-4.156 4.156h-123.68a4.16 4.16 0 0 1-4.156-4.156v-29.683a4.16 4.16 0 0 1 4.156-4.156h123.68m0-0.792h-123.68a4.962 4.962 0 0 0-4.947 4.948v29.683a4.962 4.962 0 0 0 4.947 4.947h123.68a4.962 4.962 0 0 0 4.947-4.947v-29.683a4.962 4.962 0 0 0-4.947-4.947z" fill="#a6a6a6"/></g><path transform="translate(10.001,10.392)" d="m5 0h123c2.77 0 5 2.23 5 5v28c0 2.77-2.23 5-5 5h-123c-2.77 0-5-2.23-5-5v-28c0-2.77 2.23-5 5-5z"/><path transform="translate(-.802 -.599)" d="m77.849 31.7a4.208 4.208 0 1 0 4.224 4.208 4.148 4.148 0 0 0-4.224-4.208zm0 6.758a2.557 2.557 0 1 1 2.375-2.55 2.434 2.434 0 0 1-2.375 2.552zm-9.214-6.758a4.208 4.208 0 1 0 4.224 4.208 4.148 4.148 0 0 0-4.224-4.208zm0 6.758a2.557 2.557 0 1 1 2.375-2.55 2.434 2.434 0 0 1-2.375 2.552zm-10.962-5.465v1.785h4.271a3.726 3.726 0 0 1-0.972 2.247 4.374 4.374 0 0 1-3.3 1.307 4.75 4.75 0 0 1 0-9.5 4.551 4.551 0 0 1 3.22 1.275l1.26-1.26a6.229 6.229 0 0 0-4.479-1.8 6.536 6.536 0 1 0 0 13.071 5.972 5.972 0 0 0 4.558-1.833 5.9 5.9 0 0 0 1.546-4.176 5.767 5.767 0 0 0-0.1-1.115zm44.827 1.387a3.911 3.911 0 0 0-3.6-2.68 4 4 0 0 0-3.969 4.208 4.118 4.118 0 0 0 4.176 4.208 4.185 4.185 0 0 0 3.506-1.865l-1.435-0.957a2.4 2.4 0 0 1-2.072 1.164 2.142 2.142 0 0 1-2.041-1.274l5.627-2.328zm-5.739 1.4a2.309 2.309 0 0 1 2.2-2.455 1.628 1.628 0 0 1 1.562 0.892zm-4.574 4.08h1.848v-12.367h-1.846zm-3.03-7.221h-0.057a2.917 2.917 0 0 0-2.215-0.94 4.212 4.212 0 0 0 0 8.416 2.867 2.867 0 0 0 2.215-0.957h0.063v0.607c0 1.61-0.86 2.471-2.247 2.471a2.329 2.329 0 0 1-2.12-1.5l-1.61 0.67a4.01 4.01 0 0 0 3.73 2.486c2.168 0 4-1.275 4-4.383v-7.553h-1.757zm-2.117 5.821a2.559 2.559 0 0 1 0-5.1 2.371 2.371 0 0 1 2.247 2.567 2.351 2.351 0 0 1-2.247 2.533zm24.123-10.966h-4.424v12.369h1.845v-4.686h2.578a3.847 3.847 0 1 0 0-7.683zm0.047 5.961h-2.626v-4.24h2.626a2.12 2.12 0 1 1 0 4.24zm11.41-1.776a3.468 3.468 0 0 0-3.295 1.893l1.639 0.685a1.749 1.749 0 0 1 1.687-0.907 1.777 1.777 0 0 1 1.941 1.592v0.127a4.084 4.084 0 0 0-1.925-0.477c-1.766 0-3.565 0.971-3.565 2.784a2.858 2.858 0 0 0 3.071 2.722 2.6 2.6 0 0 0 2.356-1.21h0.063v0.955h1.782v-4.743c1e-3 -2.2-1.637-3.421-3.754-3.421zm-0.223 6.779c-0.606 0-1.449-0.3-1.449-1.05 0-0.955 1.05-1.321 1.957-1.321a3.294 3.294 0 0 1 1.687 0.414 2.238 2.238 0 0 1-2.192 1.957zm10.47-6.508-2.116 5.363h-0.063l-2.2-5.363h-1.988l3.294 7.495-1.878 4.169h1.925l5.077-11.664zm-16.629 7.913h1.846v-12.369h-1.846z" fill="#fff"/><g transform="translate(19.5,16.646)"><path transform="translate(-19.973,-17.144)" d="m20.43 17.537a1.986 1.986 0 0 0-0.457 1.39v21.882a1.984 1.984 0 0 0 0.457 1.39l0.073 0.071 12.258-12.257v-0.289l-12.261-12.259z" fill="url(#h)"/><path transform="translate(-20.11,-17.231)" d="m36.984 34.188-4.084-4.088v-0.289l4.087-4.087 0.092 0.053 4.841 2.751c1.382 0.786 1.382 2.071 0 2.856l-4.841 2.751z" fill="url(#g)"/><path transform="translate(-19.978,-17.277)" d="m36.945 34.18-4.179-4.18-12.331 12.332a1.61 1.61 0 0 0 2.057 0.06l14.453-8.212" fill="url(#f)"/><path transform="translate(-19.978,-17.14)" d="m36.945 25.686-14.453-8.213a1.61 1.61 0 0 0-2.057 0.06l12.331 12.332z" fill="url(#e)"/><g transform="translate(0,16.812)"><path transform="translate(-19.978,-34.132)" d="m36.853 34.132-14.361 8.16a1.647 1.647 0 0 1-1.983 0.011l-0.074 0.073 0.073 0.072a1.647 1.647 0 0 0 1.983-0.011l14.453-8.212z" opacity=".2" style="isolation:isolate"/><path transform="translate(-19.973,-34.204)" d="m20.43 42.3a1.984 1.984 0 0 1-0.457-1.39v0.145a1.981 1.981 0 0 0 0.457 1.389l0.074-0.073z" opacity=".12" style="isolation:isolate"/></g><path transform="translate(-20.153,-17.277)" d="m41.962 31.285-4.933 2.8 0.092 0.092 4.841-2.751a1.737 1.737 0 0 0 1.038-1.426 1.841 1.841 0 0 1-1.038 1.285z" opacity=".12" style="isolation:isolate"/><path transform="translate(-19.973,-17.14)" d="m22.487 17.618 19.295 10.963a1.841 1.841 0 0 1 1.037 1.284 1.734 1.734 0 0 0-1.037-1.429l-19.295-10.963c-1.383-0.786-2.514-0.133-2.514 1.45v0.145c0-1.583 1.127-2.236 2.514-1.45z" fill="#fff" opacity=".25" style="isolation:isolate"/></g></g><g transform="translate(50.892,15.411)" fill="#fff" stroke="#fff" stroke-miterlimit="10" stroke-width=".2"><path transform="translate(-51.338,-15.474)" d="m51.338 22.937v-5.937h1.816a2.952 2.952 0 0 1 2.19 0.825 2.906 2.906 0 0 1 0.82 2.143 2.907 2.907 0 0 1-0.82 2.143 2.952 2.952 0 0 1-2.19 0.825zm0.762-0.729h1.054a2.223 2.223 0 0 0 1.629-0.59 2.2 2.2 0 0 0 0.6-1.649 2.065 2.065 0 0 0-2.23-2.239h-1.053z"/><path transform="translate(-51.401,-15.474)" d="m57.3 22.937v-5.937h0.762v5.937z"/><path transform="translate(-51.419,-15.473)" d="m61.112 23.068a2.215 2.215 0 0 1-1.264-0.422 1.957 1.957 0 0 1-0.808-1.186l0.7-0.281a1.589 1.589 0 0 0 0.51 0.824 1.289 1.289 0 0 0 0.867 0.335 1.386 1.386 0 0 0 0.85-0.26 0.837 0.837 0 0 0 0.352-0.709 0.91 0.91 0 0 0-0.352-0.767 3.638 3.638 0 0 0-1.115-0.5 2.976 2.976 0 0 1-1.194-0.643 1.343 1.343 0 0 1-0.407-1.007 1.472 1.472 0 0 1 0.507-1.11 1.851 1.851 0 0 1 1.318-0.473 1.905 1.905 0 0 1 1.227 0.377 1.751 1.751 0 0 1 0.613 0.825l-0.7 0.29a1.036 1.036 0 0 0-0.369-0.522 1.3 1.3 0 0 0-1.509 0 0.746 0.746 0 0 0-0.312 0.608 0.694 0.694 0 0 0 0.286 0.56 2.774 2.774 0 0 0 0.842 0.411 7.027 7.027 0 0 1 0.734 0.274 3.349 3.349 0 0 1 0.6 0.352 1.383 1.383 0 0 1 0.456 0.547 1.76 1.76 0 0 1 0.154 0.758 1.638 1.638 0 0 1-0.178 0.772 1.459 1.459 0 0 1-0.473 0.539 2.384 2.384 0 0 1-1.331 0.406z"/><path transform="translate(-51.475,-15.474)" d="m65.006 22.937h-0.763v-5.937h2.023a1.874 1.874 0 0 1 1.305 0.5 1.724 1.724 0 0 1 0 2.529 1.874 1.874 0 0 1-1.305 0.5h-1.26zm0-3.134h1.277a0.983 0.983 0 0 0 0.771-0.323 1.021 1.021 0 0 0 0-1.426 0.981 0.981 0 0 0-0.771-0.325h-1.277z"/><path transform="translate(-51.522,-15.473)" d="m73.987 22.168a3.083 3.083 0 0 1-4.352 0 3.208 3.208 0 0 1 0-4.4 3.073 3.073 0 0 1 4.349 0 3.2 3.2 0 0 1 0 4.4zm-3.789-0.5a2.284 2.284 0 0 0 3.226 0 2.529 2.529 0 0 0 0-3.408 2.284 2.284 0 0 0-3.226 0 2.532 2.532 0 0 0 0 3.408z"/><path transform="translate(-51.599,-15.474)" d="m76.009 22.937v-5.937h0.928l2.885 4.618h0.034l-0.034-1.144v-3.474h0.764v5.937h-0.8l-3.019-4.842h-0.033l0.033 1.145v3.7z"/><path transform="translate(-51.663,-15.458)" d="m82.009 22.92v-5.936h0.762v5.936zm0.712-6.4h-0.663l0.431-1.062h0.829z"/><path transform="translate(-51.679,-15.474)" d="m85.615 22.937-2.09-5.937h0.846l1.629 4.817h0.034l1.687-4.817h0.845l-2.156 5.937z"/><path transform="translate(-51.742,-15.474)" d="m92.958 17.729h-2.7v1.883h2.438v0.712h-2.441v1.883h2.7v0.729h-3.463v-5.936h3.466z"/><path transform="translate(-51.792,-15.474)" d="m94.2 22.937v-5.937h0.763v5.207h2.57v0.729z"/><path transform="translate(-51.859,-15.474)" d="m100.55 22.937v-5.937h0.928l2.885 4.618h0.033l-0.033-1.144v-3.474h0.764v5.937h-0.8l-3.019-4.842h-0.033l0.033 1.145v3.7z"/><path transform="translate(-51.918,-15.473)" d="m111.4 22.168a3.083 3.083 0 0 1-4.352 0 3.208 3.208 0 0 1 0-4.4 3.073 3.073 0 0 1 4.348 0 3.2 3.2 0 0 1 0 4.4zm-3.789-0.5a2.284 2.284 0 0 0 3.225 0 2.529 2.529 0 0 0 0-3.408 2.284 2.284 0 0 0-3.225 0 2.532 2.532 0 0 0 0 3.408z"/></g></g></svg>
