<svg xmlns="http://www.w3.org/2000/svg" width="26.683" height="24.364" viewBox="0 0 26.683 24.364"><path d="M7.959,21.777h-1.8a.594.594,0,0,1-.451-.961l.33-.481a31.354,31.354,0,0,1,2.854-3.425l.03-.03a.763.763,0,0,1,1.2,0,28.817,28.817,0,0,1,2.884,3.455l.33.451a.594.594,0,0,1-.451.961H11.114a8.963,8.963,0,1,0,4.326-7.841,1.6,1.6,0,1,1-1.652-2.734,12.192,12.192,0,1,1-5.828,10.6ZM20.7,14.928v4.506a2.262,2.262,0,0,1,1.652,2.193,2.485,2.485,0,0,1-.3,1.142l2.223,2.223a.595.595,0,0,1-.841.841L21.208,23.61a2.39,2.39,0,0,1-1.142.3,2.25,2.25,0,0,1-2.253-2.253A2.289,2.289,0,0,1,19.5,19.464V14.928a.6.6,0,0,1,1.2,0Zm-.6,5.588a1.082,1.082,0,1,0,.751,1.863h0a1.123,1.123,0,0,0,.3-.751A1.059,1.059,0,0,0,20.1,20.516Z" transform="translate(-5.58 -9.4)" fill="#e9005e"/></svg>