<svg xmlns="http://www.w3.org/2000/svg" width="16.465" height="26.693" viewBox="0 0 16.465 26.693"><g transform="translate(0)"><g transform="translate(0 0)"><path d="M16.461,8.338C16.461-2.475-.085-2.475,0,8.5c.082,5,4.178,5.816,4.915,10.812a.418.418,0,0,0,.41.328h5.816a.544.544,0,0,0,.41-.328C12.283,14.235,16.461,13.5,16.461,8.338Zm-7.536,3.44v6.307H7.533V11.778l-1.8-1.72C5.075,9.4,6.14,8.338,6.8,8.993l1.393,1.474L9.662,8.993c.655-.655,1.638.41.983,1.065Z" transform="translate(0.004 -0.249)" fill="#e9005e" fill-rule="evenodd"/><path d="M53.209,247.147c0,1.311.164,2.867-1.556,3.113a3.2,3.2,0,0,1-6.143,0c-1.72-.246-1.556-1.8-1.556-3.113A1.171,1.171,0,0,1,45.1,246h6.963A1.231,1.231,0,0,1,53.209,247.147Z" transform="translate(-40.349 -225.87)" fill="#e9005e" fill-rule="evenodd"/></g></g></svg>