<svg xmlns="http://www.w3.org/2000/svg" width="27.038" height="20.938" viewBox="0 0 27.038 20.938"><g transform="translate(0)"><g transform="translate(0 0)"><path d="M14.368,38.749A3.166,3.166,0,1,0,11.2,35.583,3.17,3.17,0,0,0,14.368,38.749Z" transform="translate(-9.339 -27.23)" fill="#e9005e"/><path d="M15.058,63.741V57.9a3.509,3.509,0,0,0-2.123-3.22,4.559,4.559,0,0,1-5.811,0A3.509,3.509,0,0,0,5,57.9v5.844H15.058Z" transform="translate(-5 -42.803)" fill="#e9005e"/><path d="M67.722,35.583a3.166,3.166,0,1,0,3.166-3.166A3.17,3.17,0,0,0,67.722,35.583Z" transform="translate(-48.879 -27.23)" fill="#e9005e"/><path d="M66.549,55.723a4.546,4.546,0,0,1-2.906-1.046A3.509,3.509,0,0,0,61.52,57.9v5.844H71.578V57.9a3.509,3.509,0,0,0-2.123-3.22A4.546,4.546,0,0,1,66.549,55.723Z" transform="translate(-44.54 -42.803)" fill="#e9005e"/><path d="M38.175,27.694a3.552,3.552,0,1,0,3.552-3.553A3.556,3.556,0,0,0,38.175,27.694Z" transform="translate(-28.208 -21.441)" fill="#e9005e"/><path d="M43.889,49.13a3.51,3.51,0,0,0-1.317-.844,4.925,4.925,0,0,1-6.565,0,3.506,3.506,0,0,0-1.317.844,4.909,4.909,0,0,1,2.54,4.3V59.27h4.118V53.426A4.908,4.908,0,0,1,43.889,49.13Z" transform="translate(-25.77 -38.332)" fill="#e9005e"/><path d="M60.359,20.694a4.557,4.557,0,0,1,3.447-1.749,3.164,3.164,0,0,0-6-1.9A4.964,4.964,0,0,1,60.359,20.694Z" transform="translate(-41.943 -15.152)" fill="#e9005e"/><path d="M25.527,21.046a4.961,4.961,0,0,1,2.495-3.618A3.158,3.158,0,0,0,22.057,19.3,4.558,4.558,0,0,1,25.527,21.046Z" transform="translate(-16.905 -15.505)" fill="#e9005e"/></g></g></svg>