<svg xmlns="http://www.w3.org/2000/svg" width="23.944" height="26.163" viewBox="0 0 23.944 26.163"><g transform="translate(23.944) rotate(90)"><path d="M2.907,21.284H23.256V2.66H2.907ZM23.256,0a2.791,2.791,0,0,1,2.907,2.66V21.284a2.791,2.791,0,0,1-2.907,2.66H2.907A2.791,2.791,0,0,1,0,21.284V2.66A2.791,2.791,0,0,1,2.907,0ZM13.082,19.953a1.4,1.4,0,0,0,1.454-1.33V9.312a1.459,1.459,0,0,0-2.907,0v9.312A1.4,1.4,0,0,0,13.082,19.953Zm5.814,0a1.4,1.4,0,0,0,1.454-1.33V6.651a1.459,1.459,0,0,0-2.907,0V18.623A1.4,1.4,0,0,0,18.9,19.953Zm-11.628,0a1.4,1.4,0,0,0,1.454-1.33V11.972a1.4,1.4,0,0,0-1.454-1.33,1.4,1.4,0,0,0-1.454,1.33v6.651A1.4,1.4,0,0,0,7.268,19.953Z" fill="#e9005e" fill-rule="evenodd"/></g></svg>