<svg xmlns="http://www.w3.org/2000/svg" width="26.843" height="34.285" viewBox="0 0 26.843 34.285"><path d="M44.555,6.751a1.027,1.027,0,0,0-.945-1.023,16.634,16.634,0,0,1-8.463-2.992,1.011,1.011,0,0,0-1.3,0,16.678,16.678,0,0,1-8.5,2.992A1.059,1.059,0,0,0,24.4,6.751c0,13.817,9.29,17.99,9.684,18.187a1.4,1.4,0,0,0,.394.079,1.165,1.165,0,0,0,.394-.079C35.265,24.741,44.555,20.569,44.555,6.751ZM34.477,18.6a5.177,5.177,0,1,1,5.157-5.2A5.149,5.149,0,0,1,34.477,18.6Z" transform="translate(-21.018 -2.5)" fill="#e9005e"/><path d="M46.745,25.383l-1.968,1.968-.787-.787a.919.919,0,0,0-1.3,1.3l1.417,1.417a.95.95,0,0,0,1.338,0l2.637-2.637a.927.927,0,0,0,0-1.3A1.017,1.017,0,0,0,46.745,25.383Z" transform="translate(-31.948 -16.211)" fill="#e9005e"/><path d="M63.651,43.193a22.381,22.381,0,0,1-.992,2.386A2.87,2.87,0,0,1,62.412,48a4.168,4.168,0,0,1-.434.682A25.142,25.142,0,0,1,60.335,50.6c-.031.062-.093.093-.124.155a.513.513,0,0,1-.62.093.475.475,0,0,1-.093-.713l.155-.155a12.123,12.123,0,0,0,1.921-2.386c.62-1.209.217-2.014-.4-2.355a1.1,1.1,0,0,0-1.518.279A25.7,25.7,0,0,1,57.7,47.934,21.818,21.818,0,0,0,55.625,50.6a12.626,12.626,0,0,0-1.3,5.051c-.062,1.054-.093,2.262-.124,2.975a.662.662,0,0,0,.651.682H59.1a.655.655,0,0,0,.651-.651V57.447a.829.829,0,0,1,.372-.713,20.394,20.394,0,0,0,3.718-3.223c1.735-2.014,2.355-7.995,2.448-9.761A1.347,1.347,0,0,0,63.651,43.193Z" transform="translate(-39.447 -25.021)" fill="#e9005e"/><path d="M17.315,50.465A21.817,21.817,0,0,0,15.239,47.8a21.552,21.552,0,0,1-1.952-2.417,1.1,1.1,0,0,0-1.518-.279c-.589.341-.992,1.147-.4,2.355a14.97,14.97,0,0,0,1.921,2.386l.155.155a.478.478,0,0,1-.093.713.519.519,0,0,1-.62-.093c-.031-.062-.093-.093-.124-.155a25.143,25.143,0,0,1-1.642-1.921,6.094,6.094,0,0,1-.434-.682,2.988,2.988,0,0,1-.248-2.417,25.412,25.412,0,0,1-.992-2.386,1.375,1.375,0,0,0-2.7.527c.093,1.766.713,7.747,2.448,9.761a22.754,22.754,0,0,0,3.718,3.223.829.829,0,0,1,.372.713V58.49a.655.655,0,0,0,.651.651h4.245a.643.643,0,0,0,.651-.682c-.031-.744-.062-1.921-.124-2.975A11.757,11.757,0,0,0,17.315,50.465Z" transform="translate(-6.591 -24.918)" fill="#e9005e"/></svg>