<svg xmlns="http://www.w3.org/2000/svg" width="24.961" height="27.543" viewBox="0 0 24.961 27.543"><path d="M24.212,9.961a1.341,1.341,0,0,0,.342-.03,1.415,1.415,0,0,0,1.338,1.035,1.393,1.393,0,0,0,1.26-.828,2.5,2.5,0,0,0,1.556.5A2.074,2.074,0,0,0,30.98,8.689a1.991,1.991,0,0,0-1.774-1.922A2.131,2.131,0,0,0,27.09,5.2a2.16,2.16,0,0,0-2.054,1.39,1.586,1.586,0,0,0-.825-.207,1.714,1.714,0,0,0-1.712,1.8A1.7,1.7,0,0,0,24.212,9.961Z" transform="translate(-18.571 -5.2)" fill="#e9005e"/><rect width="24.961" height="2.609" transform="translate(0 24.934)" fill="#e9005e"/><g transform="translate(0.843 4.043)"><path d="M14.194,20.44a.424.424,0,0,0-.225-.387L10.315,17.8a.424.424,0,0,0-.394,0,.569.569,0,0,0-.225.387L8.6,37.707h6.971L14.391,22.727Z" transform="translate(-8.6 -17.75)" fill="#e9005e"/><path d="M31.4,33.2l1.265,14.979H47.45v-12.4h.7V33.2Zm4.722,12.274h-1.8V42.929h1.8Zm0-4.832h-1.8V38.1h1.8Zm4.216,4.832h-1.8V42.929h1.8Zm0-4.832h-1.8V38.1h1.8Zm4.216,4.832h-1.8V42.929h1.8Zm0-4.832h-1.8V38.1h1.8Z" transform="translate(-24.991 -28.223)" fill="#e9005e"/></g></svg>