<svg xmlns="http://www.w3.org/2000/svg" width="23.515" height="26.92" viewBox="0 0 23.515 26.92"><path d="M18.28,9.558a2.206,2.206,0,0,0-1.319.456L14.075,6.678a2.989,2.989,0,0,0,.4-1.511A2.611,2.611,0,0,0,12.06,2.4,2.593,2.593,0,0,0,9.646,5.166a3.069,3.069,0,0,0,.4,1.511L7.133,9.986a2.151,2.151,0,0,0-1.319-.456A2.61,2.61,0,0,0,3.4,12.3a2.593,2.593,0,0,0,2.414,2.766A2.593,2.593,0,0,0,8.227,12.3a3.069,3.069,0,0,0-.4-1.511l2.887-3.308a2.151,2.151,0,0,0,1.319.456,2.206,2.206,0,0,0,1.319-.456l2.887,3.308a2.989,2.989,0,0,0-.4,1.511,2.611,2.611,0,0,0,2.414,2.766A2.61,2.61,0,0,0,20.669,12.3,2.564,2.564,0,0,0,18.28,9.558Z" transform="translate(-3.4 -2.4)" fill="#e9005e"/><path d="M43.356,52.429a2.61,2.61,0,0,0-2.414,2.766,3.069,3.069,0,0,0,.4,1.511l-2.911,3.279a2.151,2.151,0,0,0-1.319-.456,2.206,2.206,0,0,0-1.319.456l-2.862-3.308a2.988,2.988,0,0,0,.4-1.511A2.611,2.611,0,0,0,30.914,52.4a2.792,2.792,0,0,0,0,5.532,2.206,2.206,0,0,0,1.319-.456l2.887,3.308a2.989,2.989,0,0,0-.4,1.511,2.611,2.611,0,0,0,2.414,2.766A2.61,2.61,0,0,0,39.548,62.3a3.069,3.069,0,0,0-.4-1.511l2.887-3.308a2.151,2.151,0,0,0,1.319.456,2.776,2.776,0,0,0,0-5.5Z" transform="translate(-22.254 -38.141)" fill="#e9005e"/><path d="M12.06,41.687a2.206,2.206,0,0,0-1.319.456L7.854,38.807a2.989,2.989,0,0,0,.4-1.511,3.068,3.068,0,0,0-.4-1.511l2.887-3.308a2.151,2.151,0,0,0,1.319.456,2.61,2.61,0,0,0,2.414-2.766A2.593,2.593,0,0,0,12.06,27.4a2.593,2.593,0,0,0-2.414,2.766,3.069,3.069,0,0,0,.4,1.511L7.133,34.986a2.151,2.151,0,0,0-1.319-.456,2.792,2.792,0,0,0,0,5.532,2.206,2.206,0,0,0,1.319-.456l2.887,3.308a2.989,2.989,0,0,0-.4,1.511,2.611,2.611,0,0,0,2.414,2.766,2.778,2.778,0,0,0,.025-5.5Z" transform="translate(-3.4 -20.271)" fill="#e9005e"/><path d="M62.06,9.558a2.206,2.206,0,0,0-1.319.456L57.854,6.678a2.989,2.989,0,0,0,.4-1.511,2.436,2.436,0,1,0-4.827,0,2.593,2.593,0,0,0,2.414,2.766,2.206,2.206,0,0,0,1.319-.456l2.887,3.308a2.989,2.989,0,0,0-.4,1.511,3.069,3.069,0,0,0,.4,1.511l-2.911,3.308a2.151,2.151,0,0,0-1.319-.456A2.61,2.61,0,0,0,53.4,19.425a2.436,2.436,0,1,0,4.827,0,3.069,3.069,0,0,0-.4-1.511l2.887-3.308a2.151,2.151,0,0,0,1.319.456A2.61,2.61,0,0,0,64.448,12.3,2.564,2.564,0,0,0,62.06,9.558Z" transform="translate(-40.958 -2.4)" fill="#e9005e"/></svg>