<svg xmlns="http://www.w3.org/2000/svg" width="26.957" height="27.197" viewBox="0 0 26.957 27.197"><g transform="translate(0 0)"><path d="M10.406,16.369a.905.905,0,0,0,.2-.585.866.866,0,0,0-.425-.78c-.964-.552-2.211-1.4-1.956-2.014.2-.455,1.02-.39,2.948.682h2.806a23.428,23.428,0,0,0-3.742-3.736c-.879-.455-2.863-.032-3.515-.162-.51-.1-1.247-1.007-1.786-1.462-.085-.195-.283-.162-.425-.032l-1.9,2.046a.438.438,0,0,0,.028.617c.624.617,1.644,1.624,2.438,2.469a35.29,35.29,0,0,0,4.875,3.054A.392.392,0,0,0,10.406,16.369Z" transform="translate(-2.497 -8.175)" fill="#e9005e"/><g transform="translate(4.168 6.635)"><path d="M27.177,33.375V29.022a.405.405,0,0,0-.368-.422H21.99a2.648,2.648,0,0,1,.2.942,2.5,2.5,0,0,1-.368,1.267,1.609,1.609,0,0,1-1.162.682,1.034,1.034,0,0,1-.6-.162c-.907-.487-1.956-1.072-2.863-1.624v3.671a.405.405,0,0,0,.368.422h9.3A.409.409,0,0,0,27.177,33.375Z" transform="translate(-17.2 -28.6)" fill="#e9005e"/></g><g transform="translate(5.613 22.032)"><path d="M31.937,76H22.668a.405.405,0,0,0-.368.422v4.32a.405.405,0,0,0,.368.422h9.3a.405.405,0,0,0,.368-.422V76.39A.419.419,0,0,0,31.937,76Z" transform="translate(-22.3 -76)" fill="#e9005e"/></g><g transform="translate(16.923 22.032)"><path d="M71.837,76H62.569a.405.405,0,0,0-.368.422v4.32a.405.405,0,0,0,.368.422h9.3a.405.405,0,0,0,.368-.422V76.39A.419.419,0,0,0,71.837,76Z" transform="translate(-62.2 -76)" fill="#e9005e"/></g><g transform="translate(16.923 8.746)"><path d="M71.837,35.1H62.569a.405.405,0,0,0-.368.422v4.32a.405.405,0,0,0,.368.422h9.3a.405.405,0,0,0,.368-.422V35.49A.419.419,0,0,0,71.837,35.1Z" transform="translate(-62.2 -35.1)" fill="#e9005e"/></g><g transform="translate(5.613 15.373)"><path d="M22.668,55.5a.405.405,0,0,0-.368.422v4.32a.405.405,0,0,0,.368.422h3.515a.405.405,0,0,0,.368-.422v-4.32a.405.405,0,0,0-.368-.422Z" transform="translate(-22.3 -55.5)" fill="#e9005e"/></g><g transform="translate(11.14 15.373)"><path d="M41.8,55.922v4.32a.405.405,0,0,0,.368.422h9.552a.405.405,0,0,0,.368-.422v-4.32a.405.405,0,0,0-.368-.422H42.168A.405.405,0,0,0,41.8,55.922Z" transform="translate(-41.8 -55.5)" fill="#e9005e"/></g><g transform="translate(22.705 15.373)"><path d="M86.455,55.5H82.968a.405.405,0,0,0-.368.422v4.32a.405.405,0,0,0,.368.422h3.515a.405.405,0,0,0,.369-.422v-4.32A.451.451,0,0,0,86.455,55.5Z" transform="translate(-82.6 -55.5)" fill="#e9005e"/></g></g></svg>