<svg xmlns="http://www.w3.org/2000/svg" width="23.331" height="23.33" viewBox="0 0 23.331 23.33"><path d="M24.557,20.6a.5.5,0,0,0-.7,0l-.746.746-.366-2.07,1.385-1.383a.5.5,0,0,0,0-.7l-.561-.561a.5.5,0,0,0-.7,0l-.5.5-.625-3.544,3-2.995c1.157-1.159,2.851-4.613,1.981-5.484s-4.324.825-5.482,1.985l-3,2.995L14.7,9.458l.5-.5a.5.5,0,0,0,0-.7L14.633,7.7a.5.5,0,0,0-.7,0L12.548,9.079l-2.071-.366.747-.747a.5.5,0,0,0,0-.7L10.663,6.7a.5.5,0,0,0-.7,0L8.33,8.334l-3.1-.548a.309.309,0,0,0-.273.085L3.716,9.109a.31.31,0,0,0,.079.5L13.979,14.7,9.666,20.215l-3.822-.675a.314.314,0,0,0-.273.085l-.928.928a.311.311,0,0,0-.088.263.307.307,0,0,0,.16.227l3.148,1.695-.8,1.607a.31.31,0,0,0,.416.414l1.607-.8L10.776,27.1a.319.319,0,0,0,.227.161.329.329,0,0,0,.045,0,.311.311,0,0,0,.219-.089l.928-.929a.309.309,0,0,0,.086-.271l-.675-3.824,5.518-4.313,5.092,10.183a.31.31,0,0,0,.227.167.286.286,0,0,0,.052,0,.307.307,0,0,0,.217-.09l1.238-1.237a.314.314,0,0,0,.085-.273l-.549-3.1,1.632-1.631a.5.5,0,0,0,0-.7Z" transform="translate(-3.625 -4.864)" fill="#e9005e"/></svg>