<?xml version="1.0" encoding="UTF-8"?>
<svg width="777.8" height="650.69" version="1.1" viewBox="0 0 205.99 172.16" xmlns="http://www.w3.org/2000/svg"><g transform="translate(-2.6176 -62.422)" fill="#e6e0f5"><g transform="matrix(.26458 0 0 .26458 2.0349 83.94)" aria-label="TEMPO REAL"><path d="m72.778-64.507h-24.976v64.507h-20.625v-64.507h-24.976v-15.469h70.576z"/><path d="m143.03 0h-57.847v-79.976h57.847v15.469h-37.329v13.804h34.644v15.469h-34.644v19.766h37.329z"/><path d="m244.22 0h-20.518v-53.55l-14.824 34.751h-14.233l-14.824-34.751v53.55h-19.443v-79.976h23.955l17.993 40.122 17.939-40.122h23.955z"/><path d="m330.59-54.731q0 5.3711-1.8799 10.527-1.8799 5.1025-5.3711 8.5938-4.7803 4.7266-10.688 7.1436-5.8545 2.417-14.609 2.417h-12.837v26.05h-20.625v-79.976h33.945q7.627 0 12.837 1.3428 5.2637 1.2891 9.292 3.9209 4.834 3.1689 7.3584 8.1104 2.5781 4.9414 2.5781 11.87zm-21.323 0.4834q0-3.3838-1.8262-5.8008-1.8262-2.4707-4.2432-3.4375-3.2226-1.2891-6.2842-1.3965-3.0615-0.16113-8.1641-0.16113h-3.5449v23.955h5.9082q5.2637 0 8.6475-0.64453 3.4375-0.64453 5.7471-2.5781 1.9873-1.7188 2.8467-4.082 0.91309-2.417 0.91309-5.8545z"/><path d="m422.92-39.961q0 19.121-10.957 30.4-10.957 11.226-30.293 11.226-19.282 0-30.239-11.226-10.957-11.279-10.957-30.4 0-19.282 10.957-30.454 10.957-11.226 30.239-11.226 19.229 0 30.239 11.226 11.011 11.172 11.011 30.454zm-27.339 20.249q3.0078-3.6523 4.458-8.5938 1.4502-4.9951 1.4502-11.709 0-7.1973-1.665-12.246t-4.3506-8.1641q-2.7393-3.2227-6.3379-4.6729-3.5449-1.4502-7.4121-1.4502-3.9209 0-7.4121 1.3965-3.4375 1.3965-6.3379 4.6191-2.6855 3.0078-4.4043 8.3252-1.665 5.2637-1.665 12.246 0 7.1436 1.6113 12.192 1.665 4.9951 4.3506 8.1641t6.2842 4.6729q3.5986 1.5039 7.5732 1.5039t7.5732-1.5039q3.5986-1.5576 6.2842-4.7803z"/><path d="m521.05-55.483q0-3.0078-1.2354-5.1562-1.2354-2.1484-4.2432-3.3838-2.0947-0.85938-4.8877-1.0205-2.793-0.21484-6.499-0.21484h-7.4658v21.538h6.3379q4.9414 0 8.2715-0.4834 3.3301-0.4834 5.5859-2.2021 2.1484-1.665 3.1152-3.6523 1.0205-2.041 1.0205-5.4248zm32.173 55.483h-25.19l-21.807-29.326h-9.5068v29.326h-20.518v-79.976h34.59q7.0898 0 12.192 0.80566t9.5606 3.4912q4.5117 2.6855 7.1436 6.9824 2.6856 4.2432 2.6856 10.688 0 8.8623-4.1358 14.448-4.082 5.5859-11.709 9.292z"/><path d="m620.2 0h-57.847v-79.976h57.847v15.469h-37.329v13.804h34.644v15.469h-34.644v19.766h37.329z"/><path d="m711.46 0h-21.323l-5.5322-16.167h-29.648l-5.5322 16.167h-20.786l29.541-79.976h23.74zm-31.851-30.83-9.8291-28.682-9.8291 28.682z"/><path d="m780.74 0h-57.686v-79.976h20.625v64.507h37.061z"/></g><g transform="matrix(.26458 0 0 .26458 2.0349 133.95)" aria-label="TEMPO REAL"><path d="m72.778-64.507h-24.976v64.507h-20.625v-64.507h-24.976v-15.469h70.576z"/><path d="m143.03 0h-57.847v-79.976h57.847v15.469h-37.329v13.804h34.644v15.469h-34.644v19.766h37.329z"/><path d="m244.22 0h-20.518v-53.55l-14.824 34.751h-14.233l-14.824-34.751v53.55h-19.443v-79.976h23.955l17.993 40.122 17.939-40.122h23.955z"/><path d="m330.59-54.731q0 5.3711-1.8799 10.527-1.8799 5.1025-5.3711 8.5938-4.7803 4.7266-10.688 7.1436-5.8545 2.417-14.609 2.417h-12.837v26.05h-20.625v-79.976h33.945q7.627 0 12.837 1.3428 5.2637 1.2891 9.292 3.9209 4.834 3.1689 7.3584 8.1104 2.5781 4.9414 2.5781 11.87zm-21.323 0.4834q0-3.3838-1.8262-5.8008-1.8262-2.4707-4.2432-3.4375-3.2226-1.2891-6.2842-1.3965-3.0615-0.16113-8.1641-0.16113h-3.5449v23.955h5.9082q5.2637 0 8.6475-0.64453 3.4375-0.64453 5.7471-2.5781 1.9873-1.7188 2.8467-4.082 0.91309-2.417 0.91309-5.8545z"/><path d="m422.92-39.961q0 19.121-10.957 30.4-10.957 11.226-30.293 11.226-19.282 0-30.239-11.226-10.957-11.279-10.957-30.4 0-19.282 10.957-30.454 10.957-11.226 30.239-11.226 19.229 0 30.239 11.226 11.011 11.172 11.011 30.454zm-27.339 20.249q3.0078-3.6523 4.458-8.5938 1.4502-4.9951 1.4502-11.709 0-7.1973-1.665-12.246t-4.3506-8.1641q-2.7393-3.2227-6.3379-4.6729-3.5449-1.4502-7.4121-1.4502-3.9209 0-7.4121 1.3965-3.4375 1.3965-6.3379 4.6191-2.6855 3.0078-4.4043 8.3252-1.665 5.2637-1.665 12.246 0 7.1436 1.6113 12.192 1.665 4.9951 4.3506 8.1641t6.2842 4.6729q3.5986 1.5039 7.5732 1.5039t7.5732-1.5039q3.5986-1.5576 6.2842-4.7803z"/><path d="m521.05-55.483q0-3.0078-1.2354-5.1562-1.2354-2.1484-4.2432-3.3838-2.0947-0.85938-4.8877-1.0205-2.793-0.21484-6.499-0.21484h-7.4658v21.538h6.3379q4.9414 0 8.2715-0.4834 3.3301-0.4834 5.5859-2.2021 2.1484-1.665 3.1152-3.6523 1.0205-2.041 1.0205-5.4248zm32.173 55.483h-25.19l-21.807-29.326h-9.5068v29.326h-20.518v-79.976h34.59q7.0898 0 12.192 0.80566t9.5606 3.4912q4.5117 2.6855 7.1436 6.9824 2.6856 4.2432 2.6856 10.688 0 8.8623-4.1358 14.448-4.082 5.5859-11.709 9.292z"/><path d="m620.2 0h-57.847v-79.976h57.847v15.469h-37.329v13.804h34.644v15.469h-34.644v19.766h37.329z"/><path d="m711.46 0h-21.323l-5.5322-16.167h-29.648l-5.5322 16.167h-20.786l29.541-79.976h23.74zm-31.851-30.83-9.8291-28.682-9.8291 28.682z"/><path d="m780.74 0h-57.686v-79.976h20.625v64.507h37.061z"/></g><g transform="matrix(.26458 0 0 .26458 2.0349 209.09)" aria-label="TEMPO REAL"><path d="m72.778-64.507h-24.976v64.507h-20.625v-64.507h-24.976v-15.469h70.576z"/><path d="m143.03 0h-57.847v-79.976h57.847v15.469h-37.329v13.804h34.644v15.469h-34.644v19.766h37.329z"/><path d="m244.22 0h-20.518v-53.55l-14.824 34.751h-14.233l-14.824-34.751v53.55h-19.443v-79.976h23.955l17.993 40.122 17.939-40.122h23.955z"/><path d="m330.59-54.731q0 5.3711-1.8799 10.527-1.8799 5.1025-5.3711 8.5938-4.7803 4.7266-10.688 7.1436-5.8545 2.417-14.609 2.417h-12.837v26.05h-20.625v-79.976h33.945q7.627 0 12.837 1.3428 5.2637 1.2891 9.292 3.9209 4.834 3.1689 7.3584 8.1104 2.5781 4.9414 2.5781 11.87zm-21.323 0.4834q0-3.3838-1.8262-5.8008-1.8262-2.4707-4.2432-3.4375-3.2226-1.2891-6.2842-1.3965-3.0615-0.16113-8.1641-0.16113h-3.5449v23.955h5.9082q5.2637 0 8.6475-0.64453 3.4375-0.64453 5.7471-2.5781 1.9873-1.7188 2.8467-4.082 0.91309-2.417 0.91309-5.8545z"/><path d="m422.92-39.961q0 19.121-10.957 30.4-10.957 11.226-30.293 11.226-19.282 0-30.239-11.226-10.957-11.279-10.957-30.4 0-19.282 10.957-30.454 10.957-11.226 30.239-11.226 19.229 0 30.239 11.226 11.011 11.172 11.011 30.454zm-27.339 20.249q3.0078-3.6523 4.458-8.5938 1.4502-4.9951 1.4502-11.709 0-7.1973-1.665-12.246t-4.3506-8.1641q-2.7393-3.2227-6.3379-4.6729-3.5449-1.4502-7.4121-1.4502-3.9209 0-7.4121 1.3965-3.4375 1.3965-6.3379 4.6191-2.6855 3.0078-4.4043 8.3252-1.665 5.2637-1.665 12.246 0 7.1436 1.6113 12.192 1.665 4.9951 4.3506 8.1641t6.2842 4.6729q3.5986 1.5039 7.5732 1.5039t7.5732-1.5039q3.5986-1.5576 6.2842-4.7803z"/><path d="m521.05-55.483q0-3.0078-1.2354-5.1562-1.2354-2.1484-4.2432-3.3838-2.0947-0.85938-4.8877-1.0205-2.793-0.21484-6.499-0.21484h-7.4658v21.538h6.3379q4.9414 0 8.2715-0.4834 3.3301-0.4834 5.5859-2.2021 2.1484-1.665 3.1152-3.6523 1.0205-2.041 1.0205-5.4248zm32.173 55.483h-25.19l-21.807-29.326h-9.5068v29.326h-20.518v-79.976h34.59q7.0898 0 12.192 0.80566t9.5606 3.4912q4.5117 2.6855 7.1436 6.9824 2.6856 4.2432 2.6856 10.688 0 8.8623-4.1358 14.448-4.082 5.5859-11.709 9.292z"/><path d="m620.2 0h-57.847v-79.976h57.847v15.469h-37.329v13.804h34.644v15.469h-34.644v19.766h37.329z"/><path d="m711.46 0h-21.323l-5.5322-16.167h-29.648l-5.5322 16.167h-20.786l29.541-79.976h23.74zm-31.851-30.83-9.8291-28.682-9.8291 28.682z"/><path d="m780.74 0h-57.686v-79.976h20.625v64.507h37.061z"/></g><g stroke-width=".26458"><path d="m21.291 92.008h-6.6081v17.067h-5.457v-17.067h-6.6081v-4.0928h18.673z"/><path d="m39.879 109.08h-15.305v-21.16h15.305v4.0928h-9.8767v3.6522h9.1661v4.0928h-9.1661v5.2297h9.8767z"/><path d="m66.652 109.08h-5.4286v-14.168l-3.9222 9.1945h-3.7659l-3.9222-9.1945v14.168h-5.1444v-21.16h6.3381l4.7607 10.616 4.7465-10.616h6.3381z"/><path d="m89.504 94.595q0 1.4211-0.49739 2.7854-0.49738 1.35-1.4211 2.2738-1.2648 1.2506-2.828 1.8901-1.549 0.6395-3.8654 0.6395h-3.3964v6.8923h-5.457v-21.16h8.9814q2.018 0 3.3964 0.35528 1.3927 0.34106 2.4585 1.0374 1.279 0.83845 1.9469 2.1459 0.68213 1.3074 0.68213 3.1406zm-5.6418 0.1279q0-0.89529-0.48318-1.5348-0.48318-0.65371-1.1227-0.9095-0.85266-0.34107-1.6627-0.36949-0.81003-0.0426-2.1601-0.0426h-0.93793v6.3381h1.5632q1.3927 0 2.288-0.17053 0.90951-0.17053 1.5206-0.68213 0.52581-0.45475 0.75319-1.08 0.24159-0.63949 0.24159-1.549z"/><path d="m113.93 98.503q0 5.0591-2.899 8.0434-2.899 2.9701-8.015 2.9701-5.1018 0-8.0008-2.9701-2.899-2.9843-2.899-8.0434 0-5.1018 2.899-8.0576 2.899-2.9701 8.0008-2.9701 5.0875 0 8.0008 2.9701 2.9133 2.9559 2.9133 8.0576zm-7.2334 5.3576q0.79582-0.96635 1.1795-2.2738 0.38369-1.3216 0.38369-3.098 0-1.9043-0.44054-3.2401-0.44054-1.3358-1.1511-2.1601-0.72476-0.85266-1.6769-1.2364-0.93793-0.38369-1.9611-0.38369-1.0374 0-1.9611 0.36948-0.90951 0.36949-1.6769 1.2222-0.71055 0.79582-1.1653 2.2027-0.44055 1.3927-0.44055 3.2401 0 1.8901 0.42633 3.2259 0.44054 1.3216 1.1511 2.1601 0.71055 0.83845 1.6627 1.2364 0.95213 0.3979 2.0038 0.3979 1.0516 0 2.0038-0.3979 0.95214-0.41212 1.6627-1.2648z"/><path d="m139.9 94.396q0-0.79582-0.32685-1.3643-0.32686-0.56844-1.1227-0.89529-0.55423-0.22738-1.2932-0.27001-0.73897-0.0568-1.7195-0.0568h-1.9753v5.6986h1.6769q1.3074 0 2.1885-0.1279t1.4779-0.58265q0.56844-0.44054 0.82424-0.96635 0.27001-0.54001 0.27001-1.4353zm8.5124 14.68h-6.665l-5.7697-7.7592h-2.5154v7.7592h-5.4286v-21.16h9.1519q1.8758 0 3.2259 0.21317 1.35 0.21316 2.5296 0.92371 1.1937 0.71055 1.8901 1.8474 0.71055 1.1227 0.71055 2.828 0 2.3448-1.0942 3.8228-1.08 1.478-3.098 2.4585z"/><path d="m166.13 109.08h-15.305v-21.16h15.305v4.0928h-9.8767v3.6522h9.1661v4.0928h-9.1661v5.2297h9.8767z"/><path d="m190.27 109.08h-5.6418l-1.4637-4.2775h-7.8445l-1.4637 4.2775h-5.4997l7.8161-21.16h6.2813zm-8.4271-8.1571-2.6006-7.5887-2.6006 7.5887z"/><path d="m208.61 109.08h-15.263v-21.16h5.457v17.067h9.8056z"/></g><g transform="matrix(.26458 0 0 .26458 2.0349 184.22)" aria-label="TEMPO REAL"><path d="m72.778-64.507h-24.976v64.507h-20.625v-64.507h-24.976v-15.469h70.576z"/><path d="m143.03 0h-57.847v-79.976h57.847v15.469h-37.329v13.804h34.644v15.469h-34.644v19.766h37.329z"/><path d="m244.22 0h-20.518v-53.55l-14.824 34.751h-14.233l-14.824-34.751v53.55h-19.443v-79.976h23.955l17.993 40.122 17.939-40.122h23.955z"/><path d="m330.59-54.731q0 5.3711-1.8799 10.527-1.8799 5.1025-5.3711 8.5938-4.7803 4.7266-10.688 7.1436-5.8545 2.417-14.609 2.417h-12.837v26.05h-20.625v-79.976h33.945q7.627 0 12.837 1.3428 5.2637 1.2891 9.292 3.9209 4.834 3.1689 7.3584 8.1104 2.5781 4.9414 2.5781 11.87zm-21.323 0.4834q0-3.3838-1.8262-5.8008-1.8262-2.4707-4.2432-3.4375-3.2226-1.2891-6.2842-1.3965-3.0615-0.16113-8.1641-0.16113h-3.5449v23.955h5.9082q5.2637 0 8.6475-0.64453 3.4375-0.64453 5.7471-2.5781 1.9873-1.7188 2.8467-4.082 0.91309-2.417 0.91309-5.8545z"/><path d="m422.92-39.961q0 19.121-10.957 30.4-10.957 11.226-30.293 11.226-19.282 0-30.239-11.226-10.957-11.279-10.957-30.4 0-19.282 10.957-30.454 10.957-11.226 30.239-11.226 19.229 0 30.239 11.226 11.011 11.172 11.011 30.454zm-27.339 20.249q3.0078-3.6523 4.458-8.5938 1.4502-4.9951 1.4502-11.709 0-7.1973-1.665-12.246t-4.3506-8.1641q-2.7393-3.2227-6.3379-4.6729-3.5449-1.4502-7.4121-1.4502-3.9209 0-7.4121 1.3965-3.4375 1.3965-6.3379 4.6191-2.6855 3.0078-4.4043 8.3252-1.665 5.2637-1.665 12.246 0 7.1436 1.6113 12.192 1.665 4.9951 4.3506 8.1641t6.2842 4.6729q3.5986 1.5039 7.5732 1.5039t7.5732-1.5039q3.5986-1.5576 6.2842-4.7803z"/><path d="m521.05-55.483q0-3.0078-1.2354-5.1562-1.2354-2.1484-4.2432-3.3838-2.0947-0.85938-4.8877-1.0205-2.793-0.21484-6.499-0.21484h-7.4658v21.538h6.3379q4.9414 0 8.2715-0.4834 3.3301-0.4834 5.5859-2.2021 2.1484-1.665 3.1152-3.6523 1.0205-2.041 1.0205-5.4248zm32.173 55.483h-25.19l-21.807-29.326h-9.5068v29.326h-20.518v-79.976h34.59q7.0898 0 12.192 0.80566t9.5606 3.4912q4.5117 2.6855 7.1436 6.9824 2.6856 4.2432 2.6856 10.688 0 8.8623-4.1358 14.448-4.082 5.5859-11.709 9.292z"/><path d="m620.2 0h-57.847v-79.976h57.847v15.469h-37.329v13.804h34.644v15.469h-34.644v19.766h37.329z"/><path d="m711.46 0h-21.323l-5.5322-16.167h-29.648l-5.5322 16.167h-20.786l29.541-79.976h23.74zm-31.851-30.83-9.8291-28.682-9.8291 28.682z"/><path d="m780.74 0h-57.686v-79.976h20.625v64.507h37.061z"/></g><g transform="matrix(.26458 0 0 .26458 2.0349 159.08)" aria-label="TEMPO REAL"><path d="m72.778-64.507h-24.976v64.507h-20.625v-64.507h-24.976v-15.469h70.576z"/><path d="m143.03 0h-57.847v-79.976h57.847v15.469h-37.329v13.804h34.644v15.469h-34.644v19.766h37.329z"/><path d="m244.22 0h-20.518v-53.55l-14.824 34.751h-14.233l-14.824-34.751v53.55h-19.443v-79.976h23.955l17.993 40.122 17.939-40.122h23.955z"/><path d="m330.59-54.731q0 5.3711-1.8799 10.527-1.8799 5.1025-5.3711 8.5938-4.7803 4.7266-10.688 7.1436-5.8545 2.417-14.609 2.417h-12.837v26.05h-20.625v-79.976h33.945q7.627 0 12.837 1.3428 5.2637 1.2891 9.292 3.9209 4.834 3.1689 7.3584 8.1104 2.5781 4.9414 2.5781 11.87zm-21.323 0.4834q0-3.3838-1.8262-5.8008-1.8262-2.4707-4.2432-3.4375-3.2226-1.2891-6.2842-1.3965-3.0615-0.16113-8.1641-0.16113h-3.5449v23.955h5.9082q5.2637 0 8.6475-0.64453 3.4375-0.64453 5.7471-2.5781 1.9873-1.7188 2.8467-4.082 0.91309-2.417 0.91309-5.8545z"/><path d="m422.92-39.961q0 19.121-10.957 30.4-10.957 11.226-30.293 11.226-19.282 0-30.239-11.226-10.957-11.279-10.957-30.4 0-19.282 10.957-30.454 10.957-11.226 30.239-11.226 19.229 0 30.239 11.226 11.011 11.172 11.011 30.454zm-27.339 20.249q3.0078-3.6523 4.458-8.5938 1.4502-4.9951 1.4502-11.709 0-7.1973-1.665-12.246t-4.3506-8.1641q-2.7393-3.2227-6.3379-4.6729-3.5449-1.4502-7.4121-1.4502-3.9209 0-7.4121 1.3965-3.4375 1.3965-6.3379 4.6191-2.6855 3.0078-4.4043 8.3252-1.665 5.2637-1.665 12.246 0 7.1436 1.6113 12.192 1.665 4.9951 4.3506 8.1641t6.2842 4.6729q3.5986 1.5039 7.5732 1.5039t7.5732-1.5039q3.5986-1.5576 6.2842-4.7803z"/><path d="m521.05-55.483q0-3.0078-1.2354-5.1562-1.2354-2.1484-4.2432-3.3838-2.0947-0.85938-4.8877-1.0205-2.793-0.21484-6.499-0.21484h-7.4658v21.538h6.3379q4.9414 0 8.2715-0.4834 3.3301-0.4834 5.5859-2.2021 2.1484-1.665 3.1152-3.6523 1.0205-2.041 1.0205-5.4248zm32.173 55.483h-25.19l-21.807-29.326h-9.5068v29.326h-20.518v-79.976h34.59q7.0898 0 12.192 0.80566t9.5606 3.4912q4.5117 2.6855 7.1436 6.9824 2.6856 4.2432 2.6856 10.688 0 8.8623-4.1358 14.448-4.082 5.5859-11.709 9.292z"/><path d="m620.2 0h-57.847v-79.976h57.847v15.469h-37.329v13.804h34.644v15.469h-34.644v19.766h37.329z"/><path d="m711.46 0h-21.323l-5.5322-16.167h-29.648l-5.5322 16.167h-20.786l29.541-79.976h23.74zm-31.851-30.83-9.8291-28.682-9.8291 28.682z"/><path d="m780.74 0h-57.686v-79.976h20.625v64.507h37.061z"/></g><g transform="matrix(.26458 0 0 .26458 2.0349 234.22)" aria-label="TEMPO REAL"><path d="m72.778-64.507h-24.976v64.507h-20.625v-64.507h-24.976v-15.469h70.576z"/><path d="m143.03 0h-57.847v-79.976h57.847v15.469h-37.329v13.804h34.644v15.469h-34.644v19.766h37.329z"/><path d="m244.22 0h-20.518v-53.55l-14.824 34.751h-14.233l-14.824-34.751v53.55h-19.443v-79.976h23.955l17.993 40.122 17.939-40.122h23.955z"/><path d="m330.59-54.731q0 5.3711-1.8799 10.527-1.8799 5.1025-5.3711 8.5938-4.7803 4.7266-10.688 7.1436-5.8545 2.417-14.609 2.417h-12.837v26.05h-20.625v-79.976h33.945q7.627 0 12.837 1.3428 5.2637 1.2891 9.292 3.9209 4.834 3.1689 7.3584 8.1104 2.5781 4.9414 2.5781 11.87zm-21.323 0.4834q0-3.3838-1.8262-5.8008-1.8262-2.4707-4.2432-3.4375-3.2226-1.2891-6.2842-1.3965-3.0615-0.16113-8.1641-0.16113h-3.5449v23.955h5.9082q5.2637 0 8.6475-0.64453 3.4375-0.64453 5.7471-2.5781 1.9873-1.7188 2.8467-4.082 0.91309-2.417 0.91309-5.8545z"/><path d="m422.92-39.961q0 19.121-10.957 30.4-10.957 11.226-30.293 11.226-19.282 0-30.239-11.226-10.957-11.279-10.957-30.4 0-19.282 10.957-30.454 10.957-11.226 30.239-11.226 19.229 0 30.239 11.226 11.011 11.172 11.011 30.454zm-27.339 20.249q3.0078-3.6523 4.458-8.5938 1.4502-4.9951 1.4502-11.709 0-7.1973-1.665-12.246t-4.3506-8.1641q-2.7393-3.2227-6.3379-4.6729-3.5449-1.4502-7.4121-1.4502-3.9209 0-7.4121 1.3965-3.4375 1.3965-6.3379 4.6191-2.6855 3.0078-4.4043 8.3252-1.665 5.2637-1.665 12.246 0 7.1436 1.6113 12.192 1.665 4.9951 4.3506 8.1641t6.2842 4.6729q3.5986 1.5039 7.5732 1.5039t7.5732-1.5039q3.5986-1.5576 6.2842-4.7803z"/><path d="m521.05-55.483q0-3.0078-1.2354-5.1562-1.2354-2.1484-4.2432-3.3838-2.0947-0.85938-4.8877-1.0205-2.793-0.21484-6.499-0.21484h-7.4658v21.538h6.3379q4.9414 0 8.2715-0.4834 3.3301-0.4834 5.5859-2.2021 2.1484-1.665 3.1152-3.6523 1.0205-2.041 1.0205-5.4248zm32.173 55.483h-25.19l-21.807-29.326h-9.5068v29.326h-20.518v-79.976h34.59q7.0898 0 12.192 0.80566t9.5606 3.4912q4.5117 2.6855 7.1436 6.9824 2.6856 4.2432 2.6856 10.688 0 8.8623-4.1358 14.448-4.082 5.5859-11.709 9.292z"/><path d="m620.2 0h-57.847v-79.976h57.847v15.469h-37.329v13.804h34.644v15.469h-34.644v19.766h37.329z"/><path d="m711.46 0h-21.323l-5.5322-16.167h-29.648l-5.5322 16.167h-20.786l29.541-79.976h23.74zm-31.851-30.83-9.8291-28.682-9.8291 28.682z"/><path d="m780.74 0h-57.686v-79.976h20.625v64.507h37.061z"/></g></g></svg>
