<svg xmlns="http://www.w3.org/2000/svg" width="104.881" height="23.129" viewBox="0 0 104.881 23.129"><g transform="translate(-22.962 -18)"><g transform="translate(22.962 18)"><g transform="translate(13.512 13.577)"><path d="M206.367,190.094a5.334,5.334,0,1,1-10.667,0,1.423,1.423,0,0,0-2.845,0,8.178,8.178,0,1,0,16.356,0,1.423,1.423,0,0,0-2.845,0Z" transform="translate(-192.856 -188.721)" fill="#fff"/></g><g transform="translate(0 13.577)"><path d="M31.14,195.428a5.392,5.392,0,0,1-5.334-5.334,1.423,1.423,0,0,0-2.845,0,8.285,8.285,0,0,0,8.178,8.178,1.423,1.423,0,0,0,0-2.845Z" transform="translate(-22.962 -188.721)" fill="#fff"/></g><path d="M124.455,26.179a8.3,8.3,0,0,0-5.521-7.733,8.176,8.176,0,1,0,5.515,7.9A1.661,1.661,0,0,0,124.455,26.179Zm-6.278,4.99a5.341,5.341,0,1,1,3.433-4.99A5.4,5.4,0,0,1,118.177,31.17Z" transform="translate(-101.345 -18)" fill="#fff"/></g><g transform="translate(62.58 18.841)"><path d="M1078.319,55.47a2.357,2.357,0,1,1,2.37,2.344A2.315,2.315,0,0,1,1078.319,55.47Z" transform="translate(-1034.006 -51.173)" fill="#fff"/><rect width="3.958" height="13.815" transform="translate(44.666 8.078)" fill="#fff"/><path d="M1170.882,139.59V125.775h3.857v1.916a4.937,4.937,0,0,1,4.361-2.294,5.353,5.353,0,0,1,3.807,1.487,5.634,5.634,0,0,1,1.563,4.26v8.445h-3.958v-7.412c0-2.017-1.059-3.151-2.7-3.151a2.952,2.952,0,0,0-2.975,3.252v7.311Z" transform="translate(-1119.207 -117.697)" fill="#fff"/><path d="M532.194,126.067v1.462a5.738,5.738,0,0,0-4.26-1.815,6.433,6.433,0,0,0-4.865,2.042,7.2,7.2,0,0,0-1.941,5.143,7.474,7.474,0,0,0,1.916,5.244,6.4,6.4,0,0,0,4.891,2.092,5.786,5.786,0,0,0,4.26-1.765v1.412h3.731V126.067Zm-1.272,9.712a3.3,3.3,0,0,1-2.307.851,3.367,3.367,0,0,1-2.546-1.059c-.086-.1-.165-.194-.24-.294a3.629,3.629,0,0,1,.189-4.84c.017-.019.032-.04.05-.059a3.6,3.6,0,0,1,4.7-.348,3.628,3.628,0,0,1,.153,5.749Z" transform="translate(-521.127 -117.989)" fill="#fff"/><path d="M956.728,34.416A2.159,2.159,0,0,1,958.9,32a5.062,5.062,0,0,1,2.118.605l1.034-2.881a7.911,7.911,0,0,0-3.832-1.152c-3.353,0-5.42,2.186-5.42,6.118V50.468h1.71a2.54,2.54,0,0,0,2.223-2.62V39.931h4.286V36.653h-4.286V34.416Z" transform="translate(-918.465 -28.575)" fill="#fff"/><path d="M757.556,69.113a5.293,5.293,0,0,0-3.781-1.487,5.022,5.022,0,0,0-4.361,2.218v-7.21h-3.857V81.818h3.958V74.508a2.952,2.952,0,0,1,2.975-3.252c1.639,0,2.672,1.134,2.672,3.151v4.454h0c0,2.4,1.577,2.866,2.235,2.957h1.722V73.373A5.634,5.634,0,0,0,757.556,69.113Z" transform="translate(-727.707 -59.925)" fill="#fff"/></g></g></svg>