<?xml version="1.0" encoding="utf-8"?>
<!-- Generator: Adobe Illustrator 26.3.1, SVG Export Plug-In . SVG Version: 6.00 Build 0)  -->
<svg version="1.1" id="Camada_1" xmlns="http://www.w3.org/2000/svg" xmlns:xlink="http://www.w3.org/1999/xlink" x="0px" y="0px"
	 viewBox="0 0 336 223" style="enable-background:new 0 0 336 223;" xml:space="preserve">
<style type="text/css">
	.st0{enable-background:new    ;}
	.st1{fill:#E6E0F5;}
</style>
<g transform="translate(-12 -227)">
	<g class="st0">
		<path class="st1" d="M31.7,273.4h-6.1V288h-9.9v-40.7h16.1c10,0,15,5.6,15,13.1C46.6,267.1,42,273.4,31.7,273.4z M30.9,265.5
			c3.9,0,5.6-2,5.6-5.1s-1.7-5.1-5.6-5.1h-5.4v10.2H30.9z"/>
		<path class="st1" d="M71,288.4c-11.5,0-20.9-8.6-20.9-20.9c0-12.2,9.4-20.8,20.9-20.8c11.6,0,20.8,8.6,20.8,20.8
			C91.9,279.8,82.6,288.4,71,288.4z M71,279.4c6.5,0,10.7-4.7,10.7-11.8c0-7.2-4.2-11.8-10.7-11.8c-6.6,0-10.8,4.6-10.8,11.8
			C60.3,274.7,64.4,279.4,71,279.4z"/>
		<path class="st1" d="M133.8,247.3V288h-9.9l-16.6-25.1V288h-9.9v-40.7h9.9l16.6,25.2v-25.2H133.8z"/>
		<path class="st1" d="M138.8,247.3h31.5v7.9h-10.8V288h-9.9v-32.8h-10.8V247.3z"/>
		<path class="st1" d="M194.5,288.4c-11.5,0-20.9-8.6-20.9-20.9c0-12.2,9.4-20.8,20.9-20.8c11.6,0,20.8,8.6,20.8,20.8
			C215.3,279.8,206.1,288.4,194.5,288.4z M194.5,279.4c6.5,0,10.7-4.7,10.7-11.8c0-7.2-4.2-11.8-10.7-11.8
			c-6.6,0-10.8,4.6-10.8,11.8C183.7,274.7,187.9,279.4,194.5,279.4z"/>
		<path class="st1" d="M218.7,247.3h10.6l5.9,29.6l7.2-29.6h10.9l7,29.6l5.9-29.6h10.7L266.3,288h-12l-6.5-26.8L241,288h-12
			L218.7,247.3z"/>
		<path class="st1" d="M306.8,255.2h-15v8.2h13.3v7.7h-13.3v8.9h15v7.9h-24.9v-40.7h24.9V255.2z"/>
		<path class="st1" d="M332.2,288h-19v-40.7h18.3c8.3,0,13.2,4.1,13.2,10.6c0,4.9-3,8.1-6.9,9.3c4.8,1,7.8,5.2,7.8,9.8
			C345.7,283.7,340.8,288,332.2,288z M329.7,255.2h-6.5v8.5h6.5c3.2,0,5-1.5,5-4.2S332.9,255.2,329.7,255.2z M330.4,271h-7.2v9h7.3
			c3.3,0,5.2-1.5,5.2-4.4C335.7,272.7,333.7,271,330.4,271z"/>
	</g>
	<g class="st0">
		<path class="st1" d="M31.7,415.4h-6.1V430h-9.9v-40.7h16.1c10,0,15,5.6,15,13.1C46.6,409.1,42,415.4,31.7,415.4z M30.9,407.5
			c3.9,0,5.6-2,5.6-5.1s-1.7-5.1-5.6-5.1h-5.4v10.2H30.9z"/>
		<path class="st1" d="M71,430.4c-11.5,0-20.9-8.6-20.9-20.9c0-12.2,9.4-20.8,20.9-20.8c11.6,0,20.8,8.6,20.8,20.8
			C91.9,421.8,82.6,430.4,71,430.4z M71,421.4c6.5,0,10.7-4.7,10.7-11.8c0-7.2-4.2-11.8-10.7-11.8c-6.6,0-10.8,4.6-10.8,11.8
			C60.3,416.7,64.4,421.4,71,421.4z"/>
		<path class="st1" d="M133.8,389.3V430h-9.9l-16.6-25.1V430h-9.9v-40.7h9.9l16.6,25.2v-25.2H133.8z"/>
		<path class="st1" d="M138.8,389.3h31.5v7.9h-10.8V430h-9.9v-32.8h-10.8V389.3z"/>
		<path class="st1" d="M194.5,430.4c-11.5,0-20.9-8.6-20.9-20.9c0-12.2,9.4-20.8,20.9-20.8c11.6,0,20.8,8.6,20.8,20.8
			C215.3,421.8,206.1,430.4,194.5,430.4z M194.5,421.4c6.5,0,10.7-4.7,10.7-11.8c0-7.2-4.2-11.8-10.7-11.8
			c-6.6,0-10.8,4.6-10.8,11.8C183.7,416.7,187.9,421.4,194.5,421.4z"/>
		<path class="st1" d="M218.7,389.3h10.6l5.9,29.6l7.2-29.6h10.9l7,29.6l5.9-29.6h10.7L266.3,430h-12l-6.5-26.8L241,430h-12
			L218.7,389.3z"/>
		<path class="st1" d="M306.8,397.2h-15v8.2h13.3v7.7h-13.3v8.9h15v7.9h-24.9v-40.7h24.9V397.2z"/>
		<path class="st1" d="M332.2,430h-19v-40.7h18.3c8.3,0,13.2,4.1,13.2,10.6c0,4.9-3,8.1-6.9,9.3c4.8,1,7.8,5.2,7.8,9.8
			C345.7,425.7,340.8,430,332.2,430z M329.7,397.2h-6.5v8.5h6.5c3.2,0,5-1.5,5-4.2S332.9,397.2,329.7,397.2z M330.4,413h-7.2v9h7.3
			c3.3,0,5.2-1.5,5.2-4.4C335.7,414.7,333.7,413,330.4,413z"/>
	</g>
	<g class="st0">
		<path class="st1" d="M31.7,367.4h-6.1V382h-9.9v-40.7h16.1c10,0,15,5.6,15,13.1C46.6,361.1,42,367.4,31.7,367.4z M30.9,359.5
			c3.9,0,5.6-2,5.6-5.1s-1.7-5.1-5.6-5.1h-5.4v10.2H30.9z"/>
		<path class="st1" d="M71,382.4c-11.5,0-20.9-8.6-20.9-20.9c0-12.2,9.4-20.8,20.9-20.8c11.6,0,20.8,8.6,20.8,20.8
			C91.9,373.8,82.6,382.4,71,382.4z M71,373.4c6.5,0,10.7-4.7,10.7-11.8c0-7.2-4.2-11.8-10.7-11.8c-6.6,0-10.8,4.6-10.8,11.8
			C60.3,368.7,64.4,373.4,71,373.4z"/>
		<path class="st1" d="M133.8,341.3V382h-9.9l-16.6-25.1V382h-9.9v-40.7h9.9l16.6,25.2v-25.2H133.8z"/>
		<path class="st1" d="M138.8,341.3h31.5v7.9h-10.8V382h-9.9v-32.8h-10.8V341.3z"/>
		<path class="st1" d="M194.5,382.4c-11.5,0-20.9-8.6-20.9-20.9c0-12.2,9.4-20.8,20.9-20.8c11.6,0,20.8,8.6,20.8,20.8
			C215.3,373.8,206.1,382.4,194.5,382.4z M194.5,373.4c6.5,0,10.7-4.7,10.7-11.8c0-7.2-4.2-11.8-10.7-11.8
			c-6.6,0-10.8,4.6-10.8,11.8C183.7,368.7,187.9,373.4,194.5,373.4z"/>
		<path class="st1" d="M218.7,341.3h10.6l5.9,29.6l7.2-29.6h10.9l7,29.6l5.9-29.6h10.7L266.3,382h-12l-6.5-26.8L241,382h-12
			L218.7,341.3z"/>
		<path class="st1" d="M306.8,349.2h-15v8.2h13.3v7.7h-13.3v8.9h15v7.9h-24.9v-40.7h24.9V349.2z"/>
		<path class="st1" d="M332.2,382h-19v-40.7h18.3c8.3,0,13.2,4.1,13.2,10.6c0,4.9-3,8.1-6.9,9.3c4.8,1,7.8,5.2,7.8,9.8
			C345.7,377.7,340.8,382,332.2,382z M329.7,349.2h-6.5v8.5h6.5c3.2,0,5-1.5,5-4.2S332.9,349.2,329.7,349.2z M330.4,365h-7.2v9h7.3
			c3.3,0,5.2-1.5,5.2-4.4C335.7,366.7,333.7,365,330.4,365z"/>
	</g>
	<g class="st0">
		<path class="st1" d="M31.7,320.4h-6.1V335h-9.9v-40.7h16.1c10,0,15,5.6,15,13.1C46.6,314.1,42,320.4,31.7,320.4z M30.9,312.5
			c3.9,0,5.6-2,5.6-5.1s-1.7-5.1-5.6-5.1h-5.4v10.2H30.9z"/>
		<path class="st1" d="M71,335.4c-11.5,0-20.9-8.6-20.9-20.9c0-12.2,9.4-20.8,20.9-20.8c11.6,0,20.8,8.6,20.8,20.8
			C91.9,326.8,82.6,335.4,71,335.4z M71,326.4c6.5,0,10.7-4.7,10.7-11.8c0-7.2-4.2-11.8-10.7-11.8c-6.6,0-10.8,4.6-10.8,11.8
			C60.3,321.7,64.4,326.4,71,326.4z"/>
		<path class="st1" d="M133.8,294.3V335h-9.9l-16.6-25.1V335h-9.9v-40.7h9.9l16.6,25.2v-25.2H133.8z"/>
		<path class="st1" d="M138.8,294.3h31.5v7.9h-10.8V335h-9.9v-32.8h-10.8V294.3z"/>
		<path class="st1" d="M194.5,335.4c-11.5,0-20.9-8.6-20.9-20.9c0-12.2,9.4-20.8,20.9-20.8c11.6,0,20.8,8.6,20.8,20.8
			C215.3,326.8,206.1,335.4,194.5,335.4z M194.5,326.4c6.5,0,10.7-4.7,10.7-11.8c0-7.2-4.2-11.8-10.7-11.8
			c-6.6,0-10.8,4.6-10.8,11.8C183.7,321.7,187.9,326.4,194.5,326.4z"/>
		<path class="st1" d="M218.7,294.3h10.6l5.9,29.6l7.2-29.6h10.9l7,29.6l5.9-29.6h10.7L266.3,335h-12l-6.5-26.8L241,335h-12
			L218.7,294.3z"/>
		<path class="st1" d="M306.8,302.2h-15v8.2h13.3v7.7h-13.3v8.9h15v7.9h-24.9v-40.7h24.9V302.2z"/>
		<path class="st1" d="M332.2,335h-19v-40.7h18.3c8.3,0,13.2,4.1,13.2,10.6c0,4.9-3,8.1-6.9,9.3c4.8,1,7.8,5.2,7.8,9.8
			C345.7,330.7,340.8,335,332.2,335z M329.7,302.2h-6.5v8.5h6.5c3.2,0,5-1.5,5-4.2S332.9,302.2,329.7,302.2z M330.4,318h-7.2v9h7.3
			c3.3,0,5.2-1.5,5.2-4.4C335.7,319.7,333.7,318,330.4,318z"/>
	</g>
</g>
</svg>
