<?xml version="1.0" encoding="UTF-8"?>
<svg version="1.1" viewBox="0 0 626.76 555.22" xmlns="http://www.w3.org/2000/svg"><g transform="translate(-813.09 -85.266)" fill="#e6e0f5"><g transform="translate(804,158)" aria-label="PONTOWEB"><path d="m67.901-48.761q0 4.7852-1.6748 9.3789-1.6748 4.5459-4.7852 7.6562-4.2588 4.2109-9.5225 6.3643-5.2158 2.1533-13.016 2.1533h-11.437v23.208h-18.375v-71.251h30.242q6.7949 0 11.437 1.1963 4.6895 1.1484 8.2783 3.4932 4.3066 2.8232 6.5557 7.2256 2.2969 4.4023 2.2969 10.575zm-18.997 0.43066q0-3.0146-1.627-5.168-1.627-2.2012-3.7803-3.0625-2.8711-1.1484-5.5986-1.2441-2.7275-0.14356-7.2734-0.14356h-3.1582v21.342h5.2637q4.6895 0 7.7041-0.57422 3.0625-0.57422 5.1201-2.2969 1.7705-1.5312 2.5361-3.6367 0.81348-2.1533 0.81348-5.2158z"/><path d="m150.16-35.602q0 17.035-9.7617 27.084-9.7617 10.001-26.988 10.001-17.179 0-26.94-10.001-9.7617-10.049-9.7617-27.084 0-17.179 9.7617-27.132 9.7617-10.001 26.94-10.001 17.131 0 26.94 10.001 9.8096 9.9531 9.8096 27.132zm-24.356 18.04q2.6797-3.2539 3.9717-7.6562 1.292-4.4502 1.292-10.432 0-6.4121-1.4834-10.91t-3.876-7.2734q-2.4404-2.8711-5.6465-4.1631-3.1582-1.292-6.6035-1.292-3.4932 0-6.6035 1.2441-3.0625 1.2441-5.6465 4.1152-2.3926 2.6797-3.9238 7.417-1.4834 4.6895-1.4834 10.91 0 6.3643 1.4355 10.862 1.4834 4.4502 3.876 7.2734 2.3926 2.8232 5.5986 4.1631 3.2061 1.3398 6.7471 1.3398 3.541 0 6.7471-1.3398 3.206-1.3877 5.5986-4.2588z"/><path d="m228.92 0h-17.705l-30.242-48.904v48.904h-16.844v-71.251h21.964l25.983 40.817v-40.817h16.844z"/><path d="m302.95-57.47h-22.251v57.47h-18.375v-57.47h-22.251v-13.781h62.877z"/><path d="m383.29-35.602q0 17.035-9.7617 27.084-9.7617 10.001-26.988 10.001-17.179 0-26.94-10.001-9.7617-10.049-9.7617-27.084 0-17.179 9.7617-27.132 9.7617-10.001 26.94-10.001 17.131 0 26.94 10.001 9.8096 9.9531 9.8096 27.132zm-24.356 18.04q2.6797-3.2539 3.9717-7.6562 1.292-4.4502 1.292-10.432 0-6.4121-1.4834-10.91-1.4834-4.498-3.876-7.2734-2.4404-2.8711-5.6465-4.1631-3.1582-1.292-6.6035-1.292-3.4932 0-6.6035 1.2441-3.0625 1.2441-5.6465 4.1152-2.3926 2.6797-3.9238 7.417-1.4834 4.6895-1.4834 10.91 0 6.3643 1.4356 10.862 1.4834 4.4502 3.876 7.2734 2.3926 2.8232 5.5986 4.1631 3.206 1.3398 6.7471 1.3398 3.541 0 6.7471-1.3398 3.206-1.3877 5.5986-4.2588z"/><path d="m495.6-71.251-19.188 71.251h-20.337l-12.776-46.416-12.441 46.416h-20.337l-19.188-71.251h19.188l10.958 49.048 13.111-49.048h18.327l12.489 49.048 11.484-49.048z"/><path d="m559.43 0h-51.536v-71.251h51.536v13.781h-33.257v12.298h30.864v13.781h-30.864v17.609h33.257z"/><path d="m635.85-21.82q0 5.168-2.1055 9.2354-2.0576 4.0674-5.6943 6.7471-4.2109 3.1582-9.2832 4.498-5.0244 1.3398-12.776 1.3398h-31.104v-71.251h27.658q8.6133 0 12.585 0.57422 4.0195 0.57422 7.9434 2.5361 4.0674 2.0576 6.0293 5.5508 2.0098 3.4453 2.0098 7.8955 0 5.168-2.7275 9.1396-2.7275 3.9238-7.7041 6.125v0.38281q6.9863 1.3877 11.054 5.7422 4.1152 4.3545 4.1152 11.484zm-23.543-29.285q0-1.7705-0.90918-3.541-0.86132-1.7705-3.1104-2.6318-2.0098-0.76562-5.0244-0.81348-2.9668-0.0957-8.374-0.0957h-1.7226v15.073h2.8711q4.3545 0 7.417-0.14355 3.0625-0.14356 4.833-0.95703 2.4883-1.1006 3.2539-2.8232 0.76562-1.7705 0.76562-4.0674zm4.498 28.998q0-3.3975-1.3398-5.2158-1.292-1.8662-4.4502-2.7754-2.1533-0.62207-5.9336-0.66992-3.7803-0.04785-7.8955-0.04785h-4.0195v17.753h1.3398q7.752 0 11.102-0.04785 3.3496-0.04785 6.1729-1.2441 2.8711-1.1963 3.9238-3.1582 1.1006-2.0098 1.1006-4.5938z"/></g><g transform="translate(804,319)" aria-label="PONTOWEB"><path d="m67.901-48.761q0 4.7852-1.6748 9.3789-1.6748 4.5459-4.7852 7.6562-4.2588 4.2109-9.5225 6.3643-5.2158 2.1533-13.016 2.1533h-11.437v23.208h-18.375v-71.251h30.242q6.7949 0 11.437 1.1963 4.6895 1.1484 8.2783 3.4932 4.3066 2.8232 6.5557 7.2256 2.2969 4.4023 2.2969 10.575zm-18.997 0.43066q0-3.0146-1.627-5.168-1.627-2.2012-3.7803-3.0625-2.8711-1.1484-5.5986-1.2441-2.7275-0.14356-7.2734-0.14356h-3.1582v21.342h5.2637q4.6895 0 7.7041-0.57422 3.0625-0.57422 5.1201-2.2969 1.7705-1.5312 2.5361-3.6367 0.81348-2.1533 0.81348-5.2158z"/><path d="m150.16-35.602q0 17.035-9.7617 27.084-9.7617 10.001-26.988 10.001-17.179 0-26.94-10.001-9.7617-10.049-9.7617-27.084 0-17.179 9.7617-27.132 9.7617-10.001 26.94-10.001 17.131 0 26.94 10.001 9.8096 9.9531 9.8096 27.132zm-24.356 18.04q2.6797-3.2539 3.9717-7.6562 1.292-4.4502 1.292-10.432 0-6.4121-1.4834-10.91t-3.876-7.2734q-2.4404-2.8711-5.6465-4.1631-3.1582-1.292-6.6035-1.292-3.4932 0-6.6035 1.2441-3.0625 1.2441-5.6465 4.1152-2.3926 2.6797-3.9238 7.417-1.4834 4.6895-1.4834 10.91 0 6.3643 1.4355 10.862 1.4834 4.4502 3.876 7.2734 2.3926 2.8232 5.5986 4.1631 3.2061 1.3398 6.7471 1.3398 3.541 0 6.7471-1.3398 3.206-1.3877 5.5986-4.2588z"/><path d="m228.92 0h-17.705l-30.242-48.904v48.904h-16.844v-71.251h21.964l25.983 40.817v-40.817h16.844z"/><path d="m302.95-57.47h-22.251v57.47h-18.375v-57.47h-22.251v-13.781h62.877z"/><path d="m383.29-35.602q0 17.035-9.7617 27.084-9.7617 10.001-26.988 10.001-17.179 0-26.94-10.001-9.7617-10.049-9.7617-27.084 0-17.179 9.7617-27.132 9.7617-10.001 26.94-10.001 17.131 0 26.94 10.001 9.8096 9.9531 9.8096 27.132zm-24.356 18.04q2.6797-3.2539 3.9717-7.6562 1.292-4.4502 1.292-10.432 0-6.4121-1.4834-10.91-1.4834-4.498-3.876-7.2734-2.4404-2.8711-5.6465-4.1631-3.1582-1.292-6.6035-1.292-3.4932 0-6.6035 1.2441-3.0625 1.2441-5.6465 4.1152-2.3926 2.6797-3.9238 7.417-1.4834 4.6895-1.4834 10.91 0 6.3643 1.4356 10.862 1.4834 4.4502 3.876 7.2734 2.3926 2.8232 5.5986 4.1631 3.206 1.3398 6.7471 1.3398 3.541 0 6.7471-1.3398 3.206-1.3877 5.5986-4.2588z"/><path d="m495.6-71.251-19.188 71.251h-20.337l-12.776-46.416-12.441 46.416h-20.337l-19.188-71.251h19.188l10.958 49.048 13.111-49.048h18.327l12.489 49.048 11.484-49.048z"/><path d="m559.43 0h-51.536v-71.251h51.536v13.781h-33.257v12.298h30.864v13.781h-30.864v17.609h33.257z"/><path d="m635.85-21.82q0 5.168-2.1055 9.2354-2.0576 4.0674-5.6943 6.7471-4.2109 3.1582-9.2832 4.498-5.0244 1.3398-12.776 1.3398h-31.104v-71.251h27.658q8.6133 0 12.585 0.57422 4.0195 0.57422 7.9434 2.5361 4.0674 2.0576 6.0293 5.5508 2.0098 3.4453 2.0098 7.8955 0 5.168-2.7275 9.1396-2.7275 3.9238-7.7041 6.125v0.38281q6.9863 1.3877 11.054 5.7422 4.1152 4.3545 4.1152 11.484zm-23.543-29.285q0-1.7705-0.90918-3.541-0.86132-1.7705-3.1104-2.6318-2.0098-0.76562-5.0244-0.81348-2.9668-0.0957-8.374-0.0957h-1.7226v15.073h2.8711q4.3545 0 7.417-0.14355 3.0625-0.14356 4.833-0.95703 2.4883-1.1006 3.2539-2.8232 0.76562-1.7705 0.76562-4.0674zm4.498 28.998q0-3.3975-1.3398-5.2158-1.292-1.8662-4.4502-2.7754-2.1533-0.62207-5.9336-0.66992-3.7803-0.04785-7.8955-0.04785h-4.0195v17.753h1.3398q7.752 0 11.102-0.04785 3.3496-0.04785 6.1729-1.2441 2.8711-1.1963 3.9238-3.1582 1.1006-2.0098 1.1006-4.5938z"/></g><g transform="translate(804,558)" aria-label="PONTOWEB"><path d="m67.901-48.761q0 4.7852-1.6748 9.3789-1.6748 4.5459-4.7852 7.6562-4.2588 4.2109-9.5225 6.3643-5.2158 2.1533-13.016 2.1533h-11.437v23.208h-18.375v-71.251h30.242q6.7949 0 11.437 1.1963 4.6895 1.1484 8.2783 3.4932 4.3066 2.8232 6.5557 7.2256 2.2969 4.4023 2.2969 10.575zm-18.997 0.43066q0-3.0146-1.627-5.168-1.627-2.2012-3.7803-3.0625-2.8711-1.1484-5.5986-1.2441-2.7275-0.14356-7.2734-0.14356h-3.1582v21.342h5.2637q4.6895 0 7.7041-0.57422 3.0625-0.57422 5.1201-2.2969 1.7705-1.5312 2.5361-3.6367 0.81348-2.1533 0.81348-5.2158z"/><path d="m150.16-35.602q0 17.035-9.7617 27.084-9.7617 10.001-26.988 10.001-17.179 0-26.94-10.001-9.7617-10.049-9.7617-27.084 0-17.179 9.7617-27.132 9.7617-10.001 26.94-10.001 17.131 0 26.94 10.001 9.8096 9.9531 9.8096 27.132zm-24.356 18.04q2.6797-3.2539 3.9717-7.6562 1.292-4.4502 1.292-10.432 0-6.4121-1.4834-10.91t-3.876-7.2734q-2.4404-2.8711-5.6465-4.1631-3.1582-1.292-6.6035-1.292-3.4932 0-6.6035 1.2441-3.0625 1.2441-5.6465 4.1152-2.3926 2.6797-3.9238 7.417-1.4834 4.6895-1.4834 10.91 0 6.3643 1.4355 10.862 1.4834 4.4502 3.876 7.2734 2.3926 2.8232 5.5986 4.1631 3.2061 1.3398 6.7471 1.3398 3.541 0 6.7471-1.3398 3.206-1.3877 5.5986-4.2588z"/><path d="m228.92 0h-17.705l-30.242-48.904v48.904h-16.844v-71.251h21.964l25.983 40.817v-40.817h16.844z"/><path d="m302.95-57.47h-22.251v57.47h-18.375v-57.47h-22.251v-13.781h62.877z"/><path d="m383.29-35.602q0 17.035-9.7617 27.084-9.7617 10.001-26.988 10.001-17.179 0-26.94-10.001-9.7617-10.049-9.7617-27.084 0-17.179 9.7617-27.132 9.7617-10.001 26.94-10.001 17.131 0 26.94 10.001 9.8096 9.9531 9.8096 27.132zm-24.356 18.04q2.6797-3.2539 3.9717-7.6562 1.292-4.4502 1.292-10.432 0-6.4121-1.4834-10.91-1.4834-4.498-3.876-7.2734-2.4404-2.8711-5.6465-4.1631-3.1582-1.292-6.6035-1.292-3.4932 0-6.6035 1.2441-3.0625 1.2441-5.6465 4.1152-2.3926 2.6797-3.9238 7.417-1.4834 4.6895-1.4834 10.91 0 6.3643 1.4356 10.862 1.4834 4.4502 3.876 7.2734 2.3926 2.8232 5.5986 4.1631 3.206 1.3398 6.7471 1.3398 3.541 0 6.7471-1.3398 3.206-1.3877 5.5986-4.2588z"/><path d="m495.6-71.251-19.188 71.251h-20.337l-12.776-46.416-12.441 46.416h-20.337l-19.188-71.251h19.188l10.958 49.048 13.111-49.048h18.327l12.489 49.048 11.484-49.048z"/><path d="m559.43 0h-51.536v-71.251h51.536v13.781h-33.257v12.298h30.864v13.781h-30.864v17.609h33.257z"/><path d="m635.85-21.82q0 5.168-2.1055 9.2354-2.0576 4.0674-5.6943 6.7471-4.2109 3.1582-9.2832 4.498-5.0244 1.3398-12.776 1.3398h-31.104v-71.251h27.658q8.6133 0 12.585 0.57422 4.0195 0.57422 7.9434 2.5361 4.0674 2.0576 6.0293 5.5508 2.0098 3.4453 2.0098 7.8955 0 5.168-2.7275 9.1396-2.7275 3.9238-7.7041 6.125v0.38281q6.9863 1.3877 11.054 5.7422 4.1152 4.3545 4.1152 11.484zm-23.543-29.285q0-1.7705-0.90918-3.541-0.86132-1.7705-3.1104-2.6318-2.0098-0.76562-5.0244-0.81348-2.9668-0.0957-8.374-0.0957h-1.7226v15.073h2.8711q4.3545 0 7.417-0.14355 3.0625-0.14356 4.833-0.95703 2.4883-1.1006 3.2539-2.8232 0.76562-1.7705 0.76562-4.0674zm4.498 28.998q0-3.3975-1.3398-5.2158-1.292-1.8662-4.4502-2.7754-2.1533-0.62207-5.9336-0.66992-3.7803-0.04785-7.8955-0.04785h-4.0195v17.753h1.3398q7.752 0 11.102-0.04785 3.3496-0.04785 6.1729-1.2441 2.8711-1.1963 3.9238-3.1582 1.1006-2.0098 1.1006-4.5938z"/></g><g transform="translate(804,238)" aria-label="PONTOWEB"><path d="m67.901-48.761q0 4.7852-1.6748 9.3789-1.6748 4.5459-4.7852 7.6562-4.2588 4.2109-9.5225 6.3643-5.2158 2.1533-13.016 2.1533h-11.437v23.208h-18.375v-71.251h30.242q6.7949 0 11.437 1.1963 4.6895 1.1484 8.2783 3.4932 4.3066 2.8232 6.5557 7.2256 2.2969 4.4023 2.2969 10.575zm-18.997 0.43066q0-3.0146-1.627-5.168-1.627-2.2012-3.7803-3.0625-2.8711-1.1484-5.5986-1.2441-2.7275-0.14356-7.2734-0.14356h-3.1582v21.342h5.2637q4.6895 0 7.7041-0.57422 3.0625-0.57422 5.1201-2.2969 1.7705-1.5312 2.5361-3.6367 0.81348-2.1533 0.81348-5.2158z"/><path d="m150.16-35.602q0 17.035-9.7617 27.084-9.7617 10.001-26.988 10.001-17.179 0-26.94-10.001-9.7617-10.049-9.7617-27.084 0-17.179 9.7617-27.132 9.7617-10.001 26.94-10.001 17.131 0 26.94 10.001 9.8096 9.9531 9.8096 27.132zm-24.356 18.04q2.6797-3.2539 3.9717-7.6562 1.292-4.4502 1.292-10.432 0-6.4121-1.4834-10.91t-3.876-7.2734q-2.4404-2.8711-5.6465-4.1631-3.1582-1.292-6.6035-1.292-3.4932 0-6.6035 1.2441-3.0625 1.2441-5.6465 4.1152-2.3926 2.6797-3.9238 7.417-1.4834 4.6895-1.4834 10.91 0 6.3643 1.4355 10.862 1.4834 4.4502 3.876 7.2734 2.3926 2.8232 5.5986 4.1631 3.2061 1.3398 6.7471 1.3398 3.541 0 6.7471-1.3398 3.206-1.3877 5.5986-4.2588z"/><path d="m228.92 0h-17.705l-30.242-48.904v48.904h-16.844v-71.251h21.964l25.983 40.817v-40.817h16.844z"/><path d="m302.95-57.47h-22.251v57.47h-18.375v-57.47h-22.251v-13.781h62.877z"/><path d="m383.29-35.602q0 17.035-9.7617 27.084-9.7617 10.001-26.988 10.001-17.179 0-26.94-10.001-9.7617-10.049-9.7617-27.084 0-17.179 9.7617-27.132 9.7617-10.001 26.94-10.001 17.131 0 26.94 10.001 9.8096 9.9531 9.8096 27.132zm-24.356 18.04q2.6797-3.2539 3.9717-7.6562 1.292-4.4502 1.292-10.432 0-6.4121-1.4834-10.91-1.4834-4.498-3.876-7.2734-2.4404-2.8711-5.6465-4.1631-3.1582-1.292-6.6035-1.292-3.4932 0-6.6035 1.2441-3.0625 1.2441-5.6465 4.1152-2.3926 2.6797-3.9238 7.417-1.4834 4.6895-1.4834 10.91 0 6.3643 1.4356 10.862 1.4834 4.4502 3.876 7.2734 2.3926 2.8232 5.5986 4.1631 3.206 1.3398 6.7471 1.3398 3.541 0 6.7471-1.3398 3.206-1.3877 5.5986-4.2588z"/><path d="m495.6-71.251-19.188 71.251h-20.337l-12.776-46.416-12.441 46.416h-20.337l-19.188-71.251h19.188l10.958 49.048 13.111-49.048h18.327l12.489 49.048 11.484-49.048z"/><path d="m559.43 0h-51.536v-71.251h51.536v13.781h-33.257v12.298h30.864v13.781h-30.864v17.609h33.257z"/><path d="m635.85-21.82q0 5.168-2.1055 9.2354-2.0576 4.0674-5.6943 6.7471-4.2109 3.1582-9.2832 4.498-5.0244 1.3398-12.776 1.3398h-31.104v-71.251h27.658q8.6133 0 12.585 0.57422 4.0195 0.57422 7.9434 2.5361 4.0674 2.0576 6.0293 5.5508 2.0098 3.4453 2.0098 7.8955 0 5.168-2.7275 9.1396-2.7275 3.9238-7.7041 6.125v0.38281q6.9863 1.3877 11.054 5.7422 4.1152 4.3545 4.1152 11.484zm-23.543-29.285q0-1.7705-0.90918-3.541-0.86132-1.7705-3.1104-2.6318-2.0098-0.76562-5.0244-0.81348-2.9668-0.0957-8.374-0.0957h-1.7226v15.073h2.8711q4.3545 0 7.417-0.14355 3.0625-0.14356 4.833-0.95703 2.4883-1.1006 3.2539-2.8232 0.76562-1.7705 0.76562-4.0674zm4.498 28.998q0-3.3975-1.3398-5.2158-1.292-1.8662-4.4502-2.7754-2.1533-0.62207-5.9336-0.66992-3.7803-0.04785-7.8955-0.04785h-4.0195v17.753h1.3398q7.752 0 11.102-0.04785 3.3496-0.04785 6.1729-1.2441 2.8711-1.1963 3.9238-3.1582 1.1006-2.0098 1.1006-4.5938z"/></g><g transform="translate(804,478)" aria-label="PONTOWEB"><path d="m67.901-48.761q0 4.7852-1.6748 9.3789-1.6748 4.5459-4.7852 7.6562-4.2588 4.2109-9.5225 6.3643-5.2158 2.1533-13.016 2.1533h-11.437v23.208h-18.375v-71.251h30.242q6.7949 0 11.437 1.1963 4.6895 1.1484 8.2783 3.4932 4.3066 2.8232 6.5557 7.2256 2.2969 4.4023 2.2969 10.575zm-18.997 0.43066q0-3.0146-1.627-5.168-1.627-2.2012-3.7803-3.0625-2.8711-1.1484-5.5986-1.2441-2.7275-0.14356-7.2734-0.14356h-3.1582v21.342h5.2637q4.6895 0 7.7041-0.57422 3.0625-0.57422 5.1201-2.2969 1.7705-1.5312 2.5361-3.6367 0.81348-2.1533 0.81348-5.2158z"/><path d="m150.16-35.602q0 17.035-9.7617 27.084-9.7617 10.001-26.988 10.001-17.179 0-26.94-10.001-9.7617-10.049-9.7617-27.084 0-17.179 9.7617-27.132 9.7617-10.001 26.94-10.001 17.131 0 26.94 10.001 9.8096 9.9531 9.8096 27.132zm-24.356 18.04q2.6797-3.2539 3.9717-7.6562 1.292-4.4502 1.292-10.432 0-6.4121-1.4834-10.91t-3.876-7.2734q-2.4404-2.8711-5.6465-4.1631-3.1582-1.292-6.6035-1.292-3.4932 0-6.6035 1.2441-3.0625 1.2441-5.6465 4.1152-2.3926 2.6797-3.9238 7.417-1.4834 4.6895-1.4834 10.91 0 6.3643 1.4355 10.862 1.4834 4.4502 3.876 7.2734 2.3926 2.8232 5.5986 4.1631 3.2061 1.3398 6.7471 1.3398 3.541 0 6.7471-1.3398 3.206-1.3877 5.5986-4.2588z"/><path d="m228.92 0h-17.705l-30.242-48.904v48.904h-16.844v-71.251h21.964l25.983 40.817v-40.817h16.844z"/><path d="m302.95-57.47h-22.251v57.47h-18.375v-57.47h-22.251v-13.781h62.877z"/><path d="m383.29-35.602q0 17.035-9.7617 27.084-9.7617 10.001-26.988 10.001-17.179 0-26.94-10.001-9.7617-10.049-9.7617-27.084 0-17.179 9.7617-27.132 9.7617-10.001 26.94-10.001 17.131 0 26.94 10.001 9.8096 9.9531 9.8096 27.132zm-24.356 18.04q2.6797-3.2539 3.9717-7.6562 1.292-4.4502 1.292-10.432 0-6.4121-1.4834-10.91-1.4834-4.498-3.876-7.2734-2.4404-2.8711-5.6465-4.1631-3.1582-1.292-6.6035-1.292-3.4932 0-6.6035 1.2441-3.0625 1.2441-5.6465 4.1152-2.3926 2.6797-3.9238 7.417-1.4834 4.6895-1.4834 10.91 0 6.3643 1.4356 10.862 1.4834 4.4502 3.876 7.2734 2.3926 2.8232 5.5986 4.1631 3.206 1.3398 6.7471 1.3398 3.541 0 6.7471-1.3398 3.206-1.3877 5.5986-4.2588z"/><path d="m495.6-71.251-19.188 71.251h-20.337l-12.776-46.416-12.441 46.416h-20.337l-19.188-71.251h19.188l10.958 49.048 13.111-49.048h18.327l12.489 49.048 11.484-49.048z"/><path d="m559.43 0h-51.536v-71.251h51.536v13.781h-33.257v12.298h30.864v13.781h-30.864v17.609h33.257z"/><path d="m635.85-21.82q0 5.168-2.1055 9.2354-2.0576 4.0674-5.6943 6.7471-4.2109 3.1582-9.2832 4.498-5.0244 1.3398-12.776 1.3398h-31.104v-71.251h27.658q8.6133 0 12.585 0.57422 4.0195 0.57422 7.9434 2.5361 4.0674 2.0576 6.0293 5.5508 2.0098 3.4453 2.0098 7.8955 0 5.168-2.7275 9.1396-2.7275 3.9238-7.7041 6.125v0.38281q6.9863 1.3877 11.054 5.7422 4.1152 4.3545 4.1152 11.484zm-23.543-29.285q0-1.7705-0.90918-3.541-0.86132-1.7705-3.1104-2.6318-2.0098-0.76562-5.0244-0.81348-2.9668-0.0957-8.374-0.0957h-1.7226v15.073h2.8711q4.3545 0 7.417-0.14355 3.0625-0.14356 4.833-0.95703 2.4883-1.1006 3.2539-2.8232 0.76562-1.7705 0.76562-4.0674zm4.498 28.998q0-3.3975-1.3398-5.2158-1.292-1.8662-4.4502-2.7754-2.1533-0.62207-5.9336-0.66992-3.7803-0.04785-7.8955-0.04785h-4.0195v17.753h1.3398q7.752 0 11.102-0.04785 3.3496-0.04785 6.1729-1.2441 2.8711-1.1963 3.9238-3.1582 1.1006-2.0098 1.1006-4.5938z"/></g><g transform="translate(804,399)" aria-label="PONTOWEB"><path d="m67.901-48.761q0 4.7852-1.6748 9.3789-1.6748 4.5459-4.7852 7.6562-4.2588 4.2109-9.5225 6.3643-5.2158 2.1533-13.016 2.1533h-11.437v23.208h-18.375v-71.251h30.242q6.7949 0 11.437 1.1963 4.6895 1.1484 8.2783 3.4932 4.3066 2.8232 6.5557 7.2256 2.2969 4.4023 2.2969 10.575zm-18.997 0.43066q0-3.0146-1.627-5.168-1.627-2.2012-3.7803-3.0625-2.8711-1.1484-5.5986-1.2441-2.7275-0.14356-7.2734-0.14356h-3.1582v21.342h5.2637q4.6895 0 7.7041-0.57422 3.0625-0.57422 5.1201-2.2969 1.7705-1.5312 2.5361-3.6367 0.81348-2.1533 0.81348-5.2158z"/><path d="m150.16-35.602q0 17.035-9.7617 27.084-9.7617 10.001-26.988 10.001-17.179 0-26.94-10.001-9.7617-10.049-9.7617-27.084 0-17.179 9.7617-27.132 9.7617-10.001 26.94-10.001 17.131 0 26.94 10.001 9.8096 9.9531 9.8096 27.132zm-24.356 18.04q2.6797-3.2539 3.9717-7.6562 1.292-4.4502 1.292-10.432 0-6.4121-1.4834-10.91t-3.876-7.2734q-2.4404-2.8711-5.6465-4.1631-3.1582-1.292-6.6035-1.292-3.4932 0-6.6035 1.2441-3.0625 1.2441-5.6465 4.1152-2.3926 2.6797-3.9238 7.417-1.4834 4.6895-1.4834 10.91 0 6.3643 1.4355 10.862 1.4834 4.4502 3.876 7.2734 2.3926 2.8232 5.5986 4.1631 3.2061 1.3398 6.7471 1.3398 3.541 0 6.7471-1.3398 3.206-1.3877 5.5986-4.2588z"/><path d="m228.92 0h-17.705l-30.242-48.904v48.904h-16.844v-71.251h21.964l25.983 40.817v-40.817h16.844z"/><path d="m302.95-57.47h-22.251v57.47h-18.375v-57.47h-22.251v-13.781h62.877z"/><path d="m383.29-35.602q0 17.035-9.7617 27.084-9.7617 10.001-26.988 10.001-17.179 0-26.94-10.001-9.7617-10.049-9.7617-27.084 0-17.179 9.7617-27.132 9.7617-10.001 26.94-10.001 17.131 0 26.94 10.001 9.8096 9.9531 9.8096 27.132zm-24.356 18.04q2.6797-3.2539 3.9717-7.6562 1.292-4.4502 1.292-10.432 0-6.4121-1.4834-10.91-1.4834-4.498-3.876-7.2734-2.4404-2.8711-5.6465-4.1631-3.1582-1.292-6.6035-1.292-3.4932 0-6.6035 1.2441-3.0625 1.2441-5.6465 4.1152-2.3926 2.6797-3.9238 7.417-1.4834 4.6895-1.4834 10.91 0 6.3643 1.4356 10.862 1.4834 4.4502 3.876 7.2734 2.3926 2.8232 5.5986 4.1631 3.206 1.3398 6.7471 1.3398 3.541 0 6.7471-1.3398 3.206-1.3877 5.5986-4.2588z"/><path d="m495.6-71.251-19.188 71.251h-20.337l-12.776-46.416-12.441 46.416h-20.337l-19.188-71.251h19.188l10.958 49.048 13.111-49.048h18.327l12.489 49.048 11.484-49.048z"/><path d="m559.43 0h-51.536v-71.251h51.536v13.781h-33.257v12.298h30.864v13.781h-30.864v17.609h33.257z"/><path d="m635.85-21.82q0 5.168-2.1055 9.2354-2.0576 4.0674-5.6943 6.7471-4.2109 3.1582-9.2832 4.498-5.0244 1.3398-12.776 1.3398h-31.104v-71.251h27.658q8.6133 0 12.585 0.57422 4.0195 0.57422 7.9434 2.5361 4.0674 2.0576 6.0293 5.5508 2.0098 3.4453 2.0098 7.8955 0 5.168-2.7275 9.1396-2.7275 3.9238-7.7041 6.125v0.38281q6.9863 1.3877 11.054 5.7422 4.1152 4.3545 4.1152 11.484zm-23.543-29.285q0-1.7705-0.90918-3.541-0.86132-1.7705-3.1104-2.6318-2.0098-0.76562-5.0244-0.81348-2.9668-0.0957-8.374-0.0957h-1.7226v15.073h2.8711q4.3545 0 7.417-0.14355 3.0625-0.14356 4.833-0.95703 2.4883-1.1006 3.2539-2.8232 0.76562-1.7705 0.76562-4.0674zm4.498 28.998q0-3.3975-1.3398-5.2158-1.292-1.8662-4.4502-2.7754-2.1533-0.62207-5.9336-0.66992-3.7803-0.04785-7.8955-0.04785h-4.0195v17.753h1.3398q7.752 0 11.102-0.04785 3.3496-0.04785 6.1729-1.2441 2.8711-1.1963 3.9238-3.1582 1.1006-2.0098 1.1006-4.5938z"/></g><g transform="translate(804,639)" aria-label="PONTOWEB"><path d="m67.901-48.761q0 4.7852-1.6748 9.3789-1.6748 4.5459-4.7852 7.6562-4.2588 4.2109-9.5225 6.3643-5.2158 2.1533-13.016 2.1533h-11.437v23.208h-18.375v-71.251h30.242q6.7949 0 11.437 1.1963 4.6895 1.1484 8.2783 3.4932 4.3066 2.8232 6.5557 7.2256 2.2969 4.4023 2.2969 10.575zm-18.997 0.43066q0-3.0146-1.627-5.168-1.627-2.2012-3.7803-3.0625-2.8711-1.1484-5.5986-1.2441-2.7275-0.14356-7.2734-0.14356h-3.1582v21.342h5.2637q4.6895 0 7.7041-0.57422 3.0625-0.57422 5.1201-2.2969 1.7705-1.5312 2.5361-3.6367 0.81348-2.1533 0.81348-5.2158z"/><path d="m150.16-35.602q0 17.035-9.7617 27.084-9.7617 10.001-26.988 10.001-17.179 0-26.94-10.001-9.7617-10.049-9.7617-27.084 0-17.179 9.7617-27.132 9.7617-10.001 26.94-10.001 17.131 0 26.94 10.001 9.8096 9.9531 9.8096 27.132zm-24.356 18.04q2.6797-3.2539 3.9717-7.6562 1.292-4.4502 1.292-10.432 0-6.4121-1.4834-10.91t-3.876-7.2734q-2.4404-2.8711-5.6465-4.1631-3.1582-1.292-6.6035-1.292-3.4932 0-6.6035 1.2441-3.0625 1.2441-5.6465 4.1152-2.3926 2.6797-3.9238 7.417-1.4834 4.6895-1.4834 10.91 0 6.3643 1.4355 10.862 1.4834 4.4502 3.876 7.2734 2.3926 2.8232 5.5986 4.1631 3.2061 1.3398 6.7471 1.3398 3.541 0 6.7471-1.3398 3.206-1.3877 5.5986-4.2588z"/><path d="m228.92 0h-17.705l-30.242-48.904v48.904h-16.844v-71.251h21.964l25.983 40.817v-40.817h16.844z"/><path d="m302.95-57.47h-22.251v57.47h-18.375v-57.47h-22.251v-13.781h62.877z"/><path d="m383.29-35.602q0 17.035-9.7617 27.084-9.7617 10.001-26.988 10.001-17.179 0-26.94-10.001-9.7617-10.049-9.7617-27.084 0-17.179 9.7617-27.132 9.7617-10.001 26.94-10.001 17.131 0 26.94 10.001 9.8096 9.9531 9.8096 27.132zm-24.356 18.04q2.6797-3.2539 3.9717-7.6562 1.292-4.4502 1.292-10.432 0-6.4121-1.4834-10.91-1.4834-4.498-3.876-7.2734-2.4404-2.8711-5.6465-4.1631-3.1582-1.292-6.6035-1.292-3.4932 0-6.6035 1.2441-3.0625 1.2441-5.6465 4.1152-2.3926 2.6797-3.9238 7.417-1.4834 4.6895-1.4834 10.91 0 6.3643 1.4356 10.862 1.4834 4.4502 3.876 7.2734 2.3926 2.8232 5.5986 4.1631 3.206 1.3398 6.7471 1.3398 3.541 0 6.7471-1.3398 3.206-1.3877 5.5986-4.2588z"/><path d="m495.6-71.251-19.188 71.251h-20.337l-12.776-46.416-12.441 46.416h-20.337l-19.188-71.251h19.188l10.958 49.048 13.111-49.048h18.327l12.489 49.048 11.484-49.048z"/><path d="m559.43 0h-51.536v-71.251h51.536v13.781h-33.257v12.298h30.864v13.781h-30.864v17.609h33.257z"/><path d="m635.85-21.82q0 5.168-2.1055 9.2354-2.0576 4.0674-5.6943 6.7471-4.2109 3.1582-9.2832 4.498-5.0244 1.3398-12.776 1.3398h-31.104v-71.251h27.658q8.6133 0 12.585 0.57422 4.0195 0.57422 7.9434 2.5361 4.0674 2.0576 6.0293 5.5508 2.0098 3.4453 2.0098 7.8955 0 5.168-2.7275 9.1396-2.7275 3.9238-7.7041 6.125v0.38281q6.9863 1.3877 11.054 5.7422 4.1152 4.3545 4.1152 11.484zm-23.543-29.285q0-1.7705-0.90918-3.541-0.86132-1.7705-3.1104-2.6318-2.0098-0.76562-5.0244-0.81348-2.9668-0.0957-8.374-0.0957h-1.7226v15.073h2.8711q4.3545 0 7.417-0.14355 3.0625-0.14356 4.833-0.95703 2.4883-1.1006 3.2539-2.8232 0.76562-1.7705 0.76562-4.0674zm4.498 28.998q0-3.3975-1.3398-5.2158-1.292-1.8662-4.4502-2.7754-2.1533-0.62207-5.9336-0.66992-3.7803-0.04785-7.8955-0.04785h-4.0195v17.753h1.3398q7.752 0 11.102-0.04785 3.3496-0.04785 6.1729-1.2441 2.8711-1.1963 3.9238-3.1582 1.1006-2.0098 1.1006-4.5938z"/></g></g></svg>
