<svg xmlns="http://www.w3.org/2000/svg" width="79.887" height="69.901" viewBox="0 0 79.887 69.901"><g transform="translate(0 0)"><path d="M76.142,8H3.745A3.749,3.749,0,0,0,0,11.745V56.681a3.749,3.749,0,0,0,3.745,3.745H32.288l-.936,7.489H27.461a3.749,3.749,0,0,0-3.745,3.745v4.993A1.248,1.248,0,0,0,24.965,77.9H54.922a1.248,1.248,0,0,0,1.248-1.248V71.66a3.749,3.749,0,0,0-3.745-3.745H48.535L47.6,60.426H76.142a3.749,3.749,0,0,0,3.745-3.745V11.745A3.749,3.749,0,0,0,76.142,8Zm-72.4,2.5h72.4a1.249,1.249,0,0,1,1.248,1.248v38.7h-2.5v-36.2a1.248,1.248,0,0,0-1.248-1.248H6.241a1.248,1.248,0,0,0-1.248,1.248v36.2H2.5v-38.7A1.249,1.249,0,0,1,3.745,10.5ZM19.972,50.44V22.979H59.915V50.44Zm42.44-27.461H72.4V35.461H62.411Zm9.986-2.5H7.489V15.489H72.4Zm-64.908,2.5h9.986V50.44H7.489ZM62.411,37.957H72.4V50.44H62.411Zm-8.738,33.7H49.929a1.248,1.248,0,1,0,0,2.5h3.745V75.4H26.213V74.156H44.936a1.248,1.248,0,1,0,0-2.5H26.213a1.249,1.249,0,0,1,1.248-1.248H52.426A1.249,1.249,0,0,1,53.674,71.66Zm-7.655-3.745H33.868l.936-7.489H45.083ZM77.39,56.681a1.249,1.249,0,0,1-1.248,1.248H3.745A1.249,1.249,0,0,1,2.5,56.681V52.936H77.39Z" transform="translate(0 -8)" fill="#7f4cf4"/><rect width="3" height="2" transform="translate(38.023 46.142)" fill="#7f4cf4"/><path d="M44.778,26.125l-9.986-4.993a1.25,1.25,0,0,0-1.117,0L23.69,26.125A1.249,1.249,0,0,0,23,27.241V39.723a1.249,1.249,0,0,0,.69,1.117l9.986,4.993a1.25,1.25,0,0,0,1.117,0l9.986-4.993a1.249,1.249,0,0,0,.69-1.117V27.241a1.249,1.249,0,0,0-.69-1.116ZM34.234,23.644l7.2,3.6-7.2,3.6-7.2-3.6ZM25.5,29.261l7.489,3.745V42.7L25.5,38.952ZM35.482,42.7V33.006l7.489-3.745v9.691Z" transform="translate(5.709 -4.773)" fill="#7f4cf4"/><rect width="3" height="3" transform="translate(9.023 9.142)" fill="#7f4cf4"/><rect width="3" height="3" transform="translate(14.023 9.142)" fill="#7f4cf4"/><rect width="3" height="3" transform="translate(18.023 9.142)" fill="#7f4cf4"/><rect width="8" height="3" transform="translate(63.023 9.142)" fill="#7f4cf4"/><rect width="6" height="3" transform="translate(9.023 20.142)" fill="#7f4cf4"/><rect width="6" height="2" transform="translate(9.023 28.142)" fill="#7f4cf4"/><rect width="6" height="3" transform="translate(9.023 35.142)" fill="#7f4cf4"/><rect width="6" height="3" transform="translate(64.023 17.142)" fill="#7f4cf4"/><rect width="6" height="2" transform="translate(64.023 23.142)" fill="#7f4cf4"/><rect width="6" height="2" transform="translate(64.023 33.142)" fill="#7f4cf4"/><rect width="6" height="3" transform="translate(64.023 38.142)" fill="#7f4cf4"/></g></svg>