<svg xmlns="http://www.w3.org/2000/svg" width="59.914" height="70.58" viewBox="0 0 59.914 70.58"><g transform="translate(0)"><g transform="translate(0 0)"><path d="M58.5,3.277H53.951V1H44.843V3.277H40.29V6.692a3.419,3.419,0,0,0,3.415,3.415h1.771a4.545,4.545,0,0,0,2.782,2.115V13.84l-12.95,4.317a6.782,6.782,0,0,0,.428-2.358V12.384a6.83,6.83,0,0,0-13.661,0V15.8a6.782,6.782,0,0,0,.428,2.358L9.078,13.682A3.1,3.1,0,0,0,5,16.62v.362a3.116,3.116,0,0,0,1.474,2.638l13.325,8.2v36.93H15.245v6.83H51.674V60.2H45.982V50.248a5.656,5.656,0,0,0-1.029-3.264l-6.94-9.914V27.819l10.245-6.3v2.253H45.982v2.277h6.83V23.768H50.535V20.112l.8-.494a3.114,3.114,0,0,0,1.474-2.636V16.62a3.092,3.092,0,0,0-2.277-2.972V12.223a4.548,4.548,0,0,0,2.782-2.115h1.771A3.419,3.419,0,0,0,58.5,6.693ZM43.705,7.83a1.14,1.14,0,0,1-1.138-1.138V5.554h2.277V7.83ZM24.353,12.384a4.554,4.554,0,0,1,9.107,0V15.8a4.554,4.554,0,0,1-9.107,0ZM30,32.451l-1.091,1.091-1.091-1.091.984-9.828c.035,0,.071.006.107.006s.072,0,.107-.006ZM49.4,69.3H17.522V67.026H35.736V62.473H49.4ZM36.875,60.2H33.46v4.554H28.906V43.511a.405.405,0,0,1,.7-.24l7.27,9.347ZM50.535,16.982a.825.825,0,0,1-.39.7L35.736,26.546v11.24l7.352,10.5a3.406,3.406,0,0,1,.617,1.959V60.2H39.152V51.837L31.4,41.874a2.667,2.667,0,0,0-4.773,1.637V64.749H22.076v-38.2L7.667,17.68a.823.823,0,0,1-.39-.7V16.62a.839.839,0,0,1,1.08-.779l16.631,5.544a6.781,6.781,0,0,0,1.565.817L25.444,33.3l3.462,3.463L32.369,33.3,31.26,22.2a6.849,6.849,0,0,0,1.565-.817l16.631-5.544a.838.838,0,0,1,1.079.779ZM51.674,7.83a2.277,2.277,0,0,1-4.554,0V3.277h4.554Zm4.554-1.138A1.14,1.14,0,0,1,55.089,7.83H53.951V5.554h2.277Z" transform="translate(-5 -1)" fill="#7f4cf4"/><rect width="3" height="2" transform="translate(54.914 13.382)" fill="#7f4cf4"/><rect width="1" height="3" transform="translate(53.914 15.382)" fill="#7f4cf4"/><rect width="3" height="2" transform="translate(54.914 18.382)" fill="#7f4cf4"/><rect width="2" height="3" transform="translate(57.914 15.382)" fill="#7f4cf4"/><rect width="1" height="2" transform="translate(4.914 28.382)" fill="#7f4cf4"/><rect width="2" height="3" transform="translate(2.914 30.382)" fill="#7f4cf4"/><rect width="1" height="2" transform="translate(4.914 33.382)" fill="#7f4cf4"/><rect width="3" height="3" transform="translate(5.914 30.382)" fill="#7f4cf4"/><rect width="2" height="2" transform="translate(8.914 1.382)" fill="#7f4cf4"/><rect width="3" height="3" transform="translate(5.914 3.382)" fill="#7f4cf4"/><rect width="2" height="1" transform="translate(8.914 6.382)" fill="#7f4cf4"/><rect width="3" height="3" transform="translate(10.914 3.382)" fill="#7f4cf4"/></g></g></svg>