<svg xmlns="http://www.w3.org/2000/svg" width="74.578" height="74.316" viewBox="0 0 74.578 74.316"><g transform="translate(0)"><g transform="translate(0 0)"><path d="M31.915,51.251a4.787,4.787,0,0,0,3.221-2.306H75.358V5.795H63.815A13.014,13.014,0,0,0,44.767,4.564a13.128,13.128,0,0,0-1.137,1.231H13.03V31.534a13.123,13.123,0,0,0-3.6,9.021v5.993a4.8,4.8,0,0,0,3.888,4.7,9.555,9.555,0,0,0,2.1,4.015v2.376L7.055,60.154A5.981,5.981,0,0,0,2.9,64.72L.78,75.314H44.458l-2.119-10.6a5.981,5.981,0,0,0-4.156-4.566L29.81,57.642V55.266A9.562,9.562,0,0,0,31.915,51.251Zm-4.5,6.6-4.794,2.877-4.794-2.877v-.618a9.511,9.511,0,0,0,9.589,0Zm-6.151,9.069h2.715l.856,5.993H20.406Zm2.772-2.4H21.2l-.42-2.1,1.834,1.1,1.835-1.1Zm-1.416-8.39a7.2,7.2,0,0,1-7.192-7.192v-3.93l4.794-1.6v1.933h1.2a21.636,21.636,0,0,0,8.39-1.708v5.3A7.2,7.2,0,0,1,22.619,56.137Zm9.589-7.525V44.485a2.375,2.375,0,0,1,0,4.127ZM72.961,8.192v27.5a5.968,5.968,0,0,0-3.669-3.121l-8.317-2.494V29.068a6.669,6.669,0,0,0,2.344-4.293c2.232-.784,3.649-3.742,3.649-5.8V14.6a13.87,13.87,0,0,0-1.562-6.4ZM46.408,6.314a10.686,10.686,0,0,1,8.1-2.892A11.023,11.023,0,0,1,64.57,14.6V18.98c0,1.485-1.239,3.6-2.4,3.6h-1.2v1.2c0,1.849-.524,2.456-2.036,3.939l-.361.352v3.794L68.6,34.866a3.586,3.586,0,0,1,2.506,2.8l1.615,8.881H35.8V41.258l.653-3.592a3.576,3.576,0,0,1,2.5-2.8l10.034-3.01V28.065l-.361-.352c-1.513-1.483-2.036-2.089-2.036-3.939v-1.2h-1.2c-1.158,0-2.4-2.111-2.4-3.6V14.185A10.68,10.68,0,0,1,46.408,6.314ZM42.061,8.192A13.2,13.2,0,0,0,40.6,14.185V18.98c0,2.053,1.417,5.011,3.649,5.8a6.672,6.672,0,0,0,2.344,4.293v1.006l-8.324,2.5a5.949,5.949,0,0,0-3.507,2.842,13.163,13.163,0,0,0-19.332-5.895V8.192ZM22.619,29.767A10.8,10.8,0,0,1,33.406,40.555V42.42a4.711,4.711,0,0,0-1.2-.5V40.555h-2.4V41a19.241,19.241,0,0,1-7.192,1.912V40.092l-7.192,2.4V40.555h-2.4v1.369a4.754,4.754,0,0,0-1.2.5V40.555A10.8,10.8,0,0,1,22.619,29.767ZM11.831,46.548a2.389,2.389,0,0,1,1.2-2.064V48.61A2.386,2.386,0,0,1,11.831,46.548ZM5.25,65.19a3.59,3.59,0,0,1,2.493-2.739l8.721-2.617,1.543.925,1,5-1.024,7.161H13.213l1-7.021-2.373-.339-1.052,7.361H3.7Zm32.245-2.739a3.59,3.59,0,0,1,2.493,2.739l1.545,7.727H34.445l-1.051-7.362-2.373.339,1,7.023H27.255l-1.022-7.161,1-5,1.543-.925Z" transform="translate(-0.78 -0.998)" fill="#7f4cf4"/><rect width="3" height="3" transform="translate(16.315 10.912)" fill="#7f4cf4"/><rect width="16" height="3" transform="translate(21.315 10.912)" fill="#7f4cf4"/><rect width="21" height="3" transform="translate(16.315 14.913)" fill="#7f4cf4"/><rect width="21" height="3" transform="translate(16.315 19.912)" fill="#7f4cf4"/></g></g></svg>